<mxfile host="app.diagrams.net" modified="2022-04-14T03:47:19.809Z" agent="5.0 (Windows NT 10.0; WOW64) AppleWebKit/537.36 (KHTML, like Gecko) Chrome/78.0.3904.108 Safari/537.36" etag="05aU_LUCXLSwsAwnWReH" version="17.4.3" type="github">
  <diagram id="YdaNAZpo_XAY3q4JSkF_" name="Page-1">
    <mxGraphModel dx="2222" dy="762" grid="0" gridSize="10" guides="1" tooltips="1" connect="1" arrows="1" fold="1" page="0" pageScale="1" pageWidth="827" pageHeight="1169" math="0" shadow="0">
      <root>
        <mxCell id="0" />
        <mxCell id="1" parent="0" />
        <mxCell id="nd6oboQFitSLa15vrSld-107" value="微服务B配置&lt;br&gt;&lt;br&gt;&lt;br&gt;&lt;br&gt;&lt;br&gt;&lt;br&gt;" style="rounded=0;whiteSpace=wrap;html=1;strokeColor=#1A1A1A;fillColor=#FFFFFF;" vertex="1" parent="1">
          <mxGeometry x="-221" y="2662" width="297" height="91" as="geometry" />
        </mxCell>
        <mxCell id="nd6oboQFitSLa15vrSld-106" value="微服务A配置&lt;br&gt;&lt;br&gt;&lt;br&gt;&lt;br&gt;&lt;br&gt;&lt;br&gt;" style="rounded=0;whiteSpace=wrap;html=1;strokeColor=#1A1A1A;fillColor=#FFFFFF;" vertex="1" parent="1">
          <mxGeometry x="-530" y="2662" width="297" height="91" as="geometry" />
        </mxCell>
        <mxCell id="PZWJgZCzfhh245YYI7uz-1" value="" style="shape=image;verticalLabelPosition=bottom;labelBackgroundColor=default;verticalAlign=top;aspect=fixed;imageAspect=0;image=https://z3.ax1x.com/2021/07/27/WhcJM9.png;" parent="1" vertex="1">
          <mxGeometry x="160" y="40" width="520" height="407" as="geometry" />
        </mxCell>
        <mxCell id="PZWJgZCzfhh245YYI7uz-2" value="" style="shape=image;verticalLabelPosition=bottom;labelBackgroundColor=default;verticalAlign=top;aspect=fixed;imageAspect=0;image=https://z3.ax1x.com/2021/07/27/Why1oT.png;" parent="1" vertex="1">
          <mxGeometry x="203" y="632" width="520" height="215" as="geometry" />
        </mxCell>
        <mxCell id="PZWJgZCzfhh245YYI7uz-3" value="" style="shape=image;verticalLabelPosition=bottom;labelBackgroundColor=default;verticalAlign=top;aspect=fixed;imageAspect=0;image=https://z3.ax1x.com/2021/07/27/WhyEFS.md.png;" parent="1" vertex="1">
          <mxGeometry x="227" y="964" width="520" height="227" as="geometry" />
        </mxCell>
        <mxCell id="PZWJgZCzfhh245YYI7uz-4" value="" style="shape=image;verticalLabelPosition=bottom;labelBackgroundColor=default;verticalAlign=top;aspect=fixed;imageAspect=0;image=https://z3.ax1x.com/2021/07/27/WhyZWQ.png;" parent="1" vertex="1">
          <mxGeometry x="238" y="1284" width="520" height="373" as="geometry" />
        </mxCell>
        <mxCell id="PZWJgZCzfhh245YYI7uz-5" value="" style="shape=image;verticalLabelPosition=bottom;labelBackgroundColor=default;verticalAlign=top;aspect=fixed;imageAspect=0;image=https://z3.ax1x.com/2021/07/27/WhyQe0.png;" parent="1" vertex="1">
          <mxGeometry x="272" y="1707" width="520" height="373" as="geometry" />
        </mxCell>
        <mxCell id="PZWJgZCzfhh245YYI7uz-6" value="" style="shape=image;verticalLabelPosition=bottom;labelBackgroundColor=default;verticalAlign=top;aspect=fixed;imageAspect=0;image=https://z3.ax1x.com/2021/07/27/Whyuyn.png;" parent="1" vertex="1">
          <mxGeometry x="287" y="2136" width="520" height="238" as="geometry" />
        </mxCell>
        <mxCell id="PZWJgZCzfhh245YYI7uz-7" value="" style="shape=image;verticalLabelPosition=bottom;labelBackgroundColor=default;verticalAlign=top;aspect=fixed;imageAspect=0;image=https://z3.ax1x.com/2021/07/27/WhyVJg.md.png;" parent="1" vertex="1">
          <mxGeometry x="307" y="2436" width="520" height="254" as="geometry" />
        </mxCell>
        <mxCell id="nd6oboQFitSLa15vrSld-1" value="PC" style="rounded=0;whiteSpace=wrap;html=1;strokeColor=#1A1A1A;" vertex="1" parent="1">
          <mxGeometry x="-360" y="90" width="110" height="30" as="geometry" />
        </mxCell>
        <mxCell id="nd6oboQFitSLa15vrSld-2" value="APP&lt;span style=&quot;white-space: pre&quot;&gt;	&lt;/span&gt;" style="rounded=0;whiteSpace=wrap;html=1;strokeColor=#1A1A1A;" vertex="1" parent="1">
          <mxGeometry x="-200" y="90" width="110" height="30" as="geometry" />
        </mxCell>
        <mxCell id="nd6oboQFitSLa15vrSld-3" value="三方系统介入" style="rounded=0;whiteSpace=wrap;html=1;strokeColor=#1A1A1A;" vertex="1" parent="1">
          <mxGeometry x="-40" y="90" width="110" height="30" as="geometry" />
        </mxCell>
        <mxCell id="nd6oboQFitSLa15vrSld-4" value="" style="rounded=0;whiteSpace=wrap;html=1;strokeColor=#1A1A1A;" vertex="1" parent="1">
          <mxGeometry x="-440" y="190" width="590" height="340" as="geometry" />
        </mxCell>
        <mxCell id="nd6oboQFitSLa15vrSld-25" value="RESTful通信" style="edgeStyle=orthogonalEdgeStyle;rounded=0;orthogonalLoop=1;jettySize=auto;html=1;entryX=0.5;entryY=0;entryDx=0;entryDy=0;strokeColor=#1A1A1A;" edge="1" parent="1" source="nd6oboQFitSLa15vrSld-5" target="nd6oboQFitSLa15vrSld-11">
          <mxGeometry relative="1" as="geometry" />
        </mxCell>
        <mxCell id="nd6oboQFitSLa15vrSld-5" value="API服务网关" style="rounded=0;whiteSpace=wrap;html=1;strokeColor=#006EAF;fillColor=#1ba1e2;fontColor=#ffffff;" vertex="1" parent="1">
          <mxGeometry x="-360" y="214" width="420" height="26" as="geometry" />
        </mxCell>
        <mxCell id="nd6oboQFitSLa15vrSld-6" value="服务保护" style="rounded=0;whiteSpace=wrap;html=1;strokeColor=#1A1A1A;" vertex="1" parent="1">
          <mxGeometry x="-300" y="250" width="100" height="30" as="geometry" />
        </mxCell>
        <mxCell id="nd6oboQFitSLa15vrSld-7" value="负载均衡" style="rounded=0;whiteSpace=wrap;html=1;strokeColor=#1A1A1A;" vertex="1" parent="1">
          <mxGeometry x="-100" y="250" width="100" height="30" as="geometry" />
        </mxCell>
        <mxCell id="nd6oboQFitSLa15vrSld-11" value="" style="rounded=0;whiteSpace=wrap;html=1;strokeColor=#6c8ebf;fillColor=#FFFFFF;" vertex="1" parent="1">
          <mxGeometry x="-360" y="300" width="420" height="100" as="geometry" />
        </mxCell>
        <mxCell id="nd6oboQFitSLa15vrSld-12" value="微服务" style="whiteSpace=wrap;html=1;aspect=fixed;strokeColor=#1A1A1A;" vertex="1" parent="1">
          <mxGeometry x="-330" y="320" width="60" height="60" as="geometry" />
        </mxCell>
        <mxCell id="nd6oboQFitSLa15vrSld-13" value="微服务" style="whiteSpace=wrap;html=1;aspect=fixed;strokeColor=#1A1A1A;" vertex="1" parent="1">
          <mxGeometry x="-230" y="320" width="60" height="60" as="geometry" />
        </mxCell>
        <mxCell id="nd6oboQFitSLa15vrSld-14" value="微服务" style="whiteSpace=wrap;html=1;aspect=fixed;strokeColor=#1A1A1A;" vertex="1" parent="1">
          <mxGeometry x="-130" y="320" width="60" height="60" as="geometry" />
        </mxCell>
        <mxCell id="nd6oboQFitSLa15vrSld-15" value="微服务" style="whiteSpace=wrap;html=1;aspect=fixed;strokeColor=#1A1A1A;" vertex="1" parent="1">
          <mxGeometry x="-30" y="320" width="60" height="60" as="geometry" />
        </mxCell>
        <mxCell id="nd6oboQFitSLa15vrSld-16" value="链路跟踪" style="rounded=0;whiteSpace=wrap;html=1;strokeColor=#1A1A1A;" vertex="1" parent="1">
          <mxGeometry x="-340" y="420" width="170" height="30" as="geometry" />
        </mxCell>
        <mxCell id="nd6oboQFitSLa15vrSld-18" value="配置中心" style="rounded=0;whiteSpace=wrap;html=1;strokeColor=#1A1A1A;" vertex="1" parent="1">
          <mxGeometry x="-120" y="420" width="160" height="30" as="geometry" />
        </mxCell>
        <mxCell id="nd6oboQFitSLa15vrSld-20" value="注册中心" style="rounded=0;whiteSpace=wrap;html=1;strokeColor=#006EAF;fillColor=#1ba1e2;fontColor=#ffffff;" vertex="1" parent="1">
          <mxGeometry x="-360" y="470" width="420" height="30" as="geometry" />
        </mxCell>
        <mxCell id="nd6oboQFitSLa15vrSld-22" value="" style="shape=flexArrow;endArrow=classic;startArrow=classic;html=1;rounded=0;strokeColor=#1A1A1A;" edge="1" parent="1">
          <mxGeometry width="100" height="100" relative="1" as="geometry">
            <mxPoint x="-309.5" y="210" as="sourcePoint" />
            <mxPoint x="-310" y="120" as="targetPoint" />
            <Array as="points">
              <mxPoint x="-310" y="180" />
            </Array>
          </mxGeometry>
        </mxCell>
        <mxCell id="nd6oboQFitSLa15vrSld-23" value="" style="shape=flexArrow;endArrow=classic;startArrow=classic;html=1;rounded=0;strokeColor=#1A1A1A;" edge="1" parent="1">
          <mxGeometry width="100" height="100" relative="1" as="geometry">
            <mxPoint x="-145" y="210" as="sourcePoint" />
            <mxPoint x="-145.5" y="120" as="targetPoint" />
            <Array as="points">
              <mxPoint x="-145.5" y="180" />
            </Array>
          </mxGeometry>
        </mxCell>
        <mxCell id="nd6oboQFitSLa15vrSld-24" value="" style="shape=flexArrow;endArrow=classic;startArrow=classic;html=1;rounded=0;strokeColor=#1A1A1A;" edge="1" parent="1">
          <mxGeometry width="100" height="100" relative="1" as="geometry">
            <mxPoint x="15" y="210" as="sourcePoint" />
            <mxPoint x="14.5" y="120" as="targetPoint" />
            <Array as="points">
              <mxPoint x="14.5" y="180" />
            </Array>
          </mxGeometry>
        </mxCell>
        <mxCell id="nd6oboQFitSLa15vrSld-42" style="edgeStyle=none;rounded=0;orthogonalLoop=1;jettySize=auto;html=1;strokeColor=#1A1A1A;" edge="1" parent="1" source="nd6oboQFitSLa15vrSld-26" target="nd6oboQFitSLa15vrSld-41">
          <mxGeometry relative="1" as="geometry" />
        </mxCell>
        <mxCell id="nd6oboQFitSLa15vrSld-26" value="注册中心" style="rounded=0;whiteSpace=wrap;html=1;strokeColor=#1A1A1A;fillColor=#FFFFFF;" vertex="1" parent="1">
          <mxGeometry x="-268" y="796" width="120" height="60" as="geometry" />
        </mxCell>
        <mxCell id="nd6oboQFitSLa15vrSld-31" style="rounded=0;orthogonalLoop=1;jettySize=auto;html=1;strokeColor=#1A1A1A;" edge="1" parent="1" source="nd6oboQFitSLa15vrSld-27" target="nd6oboQFitSLa15vrSld-26">
          <mxGeometry relative="1" as="geometry" />
        </mxCell>
        <mxCell id="nd6oboQFitSLa15vrSld-36" value="name：service-a" style="edgeLabel;html=1;align=center;verticalAlign=middle;resizable=0;points=[];" vertex="1" connectable="0" parent="nd6oboQFitSLa15vrSld-31">
          <mxGeometry x="-0.2676" y="-1" relative="1" as="geometry">
            <mxPoint as="offset" />
          </mxGeometry>
        </mxCell>
        <mxCell id="nd6oboQFitSLa15vrSld-43" value="注册" style="edgeLabel;html=1;align=center;verticalAlign=middle;resizable=0;points=[];" vertex="1" connectable="0" parent="nd6oboQFitSLa15vrSld-31">
          <mxGeometry x="0.2779" y="-2" relative="1" as="geometry">
            <mxPoint as="offset" />
          </mxGeometry>
        </mxCell>
        <mxCell id="nd6oboQFitSLa15vrSld-27" value="微服务A" style="rounded=0;whiteSpace=wrap;html=1;strokeColor=#1A1A1A;fillColor=#FFFFFF;" vertex="1" parent="1">
          <mxGeometry x="-464" y="680" width="99" height="45" as="geometry" />
        </mxCell>
        <mxCell id="nd6oboQFitSLa15vrSld-32" style="edgeStyle=none;rounded=0;orthogonalLoop=1;jettySize=auto;html=1;strokeColor=#1A1A1A;" edge="1" parent="1" source="nd6oboQFitSLa15vrSld-29" target="nd6oboQFitSLa15vrSld-26">
          <mxGeometry relative="1" as="geometry" />
        </mxCell>
        <mxCell id="nd6oboQFitSLa15vrSld-35" value="name：service-b" style="edgeLabel;html=1;align=center;verticalAlign=middle;resizable=0;points=[];" vertex="1" connectable="0" parent="nd6oboQFitSLa15vrSld-32">
          <mxGeometry x="-0.3239" y="2" relative="1" as="geometry">
            <mxPoint as="offset" />
          </mxGeometry>
        </mxCell>
        <mxCell id="nd6oboQFitSLa15vrSld-44" value="注册" style="edgeLabel;html=1;align=center;verticalAlign=middle;resizable=0;points=[];" vertex="1" connectable="0" parent="nd6oboQFitSLa15vrSld-32">
          <mxGeometry x="0.3803" relative="1" as="geometry">
            <mxPoint as="offset" />
          </mxGeometry>
        </mxCell>
        <mxCell id="nd6oboQFitSLa15vrSld-29" value="微服务B" style="rounded=0;whiteSpace=wrap;html=1;strokeColor=#1A1A1A;fillColor=#FFFFFF;" vertex="1" parent="1">
          <mxGeometry x="-257.5" y="680" width="99" height="45" as="geometry" />
        </mxCell>
        <mxCell id="nd6oboQFitSLa15vrSld-33" style="edgeStyle=none;rounded=0;orthogonalLoop=1;jettySize=auto;html=1;entryX=0.933;entryY=-0.017;entryDx=0;entryDy=0;entryPerimeter=0;strokeColor=#1A1A1A;" edge="1" parent="1" source="nd6oboQFitSLa15vrSld-30" target="nd6oboQFitSLa15vrSld-26">
          <mxGeometry relative="1" as="geometry" />
        </mxCell>
        <mxCell id="nd6oboQFitSLa15vrSld-34" value="name：service-c" style="edgeLabel;html=1;align=center;verticalAlign=middle;resizable=0;points=[];" vertex="1" connectable="0" parent="nd6oboQFitSLa15vrSld-33">
          <mxGeometry x="-0.2065" relative="1" as="geometry">
            <mxPoint as="offset" />
          </mxGeometry>
        </mxCell>
        <mxCell id="nd6oboQFitSLa15vrSld-45" value="注册" style="edgeLabel;html=1;align=center;verticalAlign=middle;resizable=0;points=[];" vertex="1" connectable="0" parent="nd6oboQFitSLa15vrSld-33">
          <mxGeometry x="0.4499" y="-1" relative="1" as="geometry">
            <mxPoint as="offset" />
          </mxGeometry>
        </mxCell>
        <mxCell id="nd6oboQFitSLa15vrSld-30" value="微服务C" style="rounded=0;whiteSpace=wrap;html=1;strokeColor=#1A1A1A;fillColor=#FFFFFF;" vertex="1" parent="1">
          <mxGeometry x="-59" y="680" width="99" height="45" as="geometry" />
        </mxCell>
        <mxCell id="nd6oboQFitSLa15vrSld-38" style="edgeStyle=none;rounded=0;orthogonalLoop=1;jettySize=auto;html=1;entryX=0.5;entryY=1;entryDx=0;entryDy=0;strokeColor=#1A1A1A;" edge="1" parent="1" source="nd6oboQFitSLa15vrSld-26" target="nd6oboQFitSLa15vrSld-26">
          <mxGeometry relative="1" as="geometry" />
        </mxCell>
        <mxCell id="nd6oboQFitSLa15vrSld-41" value="&lt;h1&gt;可用服务列表&lt;/h1&gt;&lt;p&gt;1.servcie-a&lt;/p&gt;&lt;p&gt;2.service-b&lt;/p&gt;&lt;p&gt;3.service-c&lt;/p&gt;" style="text;html=1;strokeColor=#B09500;fillColor=#FFFF33;spacing=5;spacingTop=-20;whiteSpace=wrap;overflow=hidden;rounded=0;fontColor=#000000;" vertex="1" parent="1">
          <mxGeometry x="-303" y="906" width="190" height="120" as="geometry" />
        </mxCell>
        <mxCell id="nd6oboQFitSLa15vrSld-47" value="" style="shape=image;verticalLabelPosition=bottom;labelBackgroundColor=default;verticalAlign=top;aspect=fixed;imageAspect=0;image=data:image/png,iVBORw0KGgoAAAANSUhEUgAAAywAAAHMCAYAAAA3VSw2AAAgAElEQVR4AezdB7htVXU3/KVejSLGyht7F0WagBRRWlQQNWIUUFBUom9QX0sUMcqHkZjEEmMBBLEAFlSKDRAVEVBsNBGQroIFUAEFJAKaRL/nNzf/exc7u65z7r373DPn86y91p5rzjHH+M82xmzrdn/+85//3PS5eP3P//xPc9111zV/+Zd/2dzpTndqbne72/WFHP43NP70pz81f/zjH0v8O9zhDsMjDHmDDj7++7//u7njHe/Y3P72t+/ER5vGtHxElj/84Q/N73//++bud797g0YXPMjxX//1X81d7nKXInEXGuLD9S/+4i+m4iEQkwcNd5jiYVo+pA8L7q53vWvBI/QnuQdTZYObtnyJExryRbkgCzetLOLccsstzZIlS8rVJb7ydf311zerr756yZcufMBUvuCja/maCw08w9QFU3hOy0doyNcbbrihuec979kZU3XFdec733mqPMUDRw7xYdK1nKODhvxNGZ22fODj5ptvLu2gtnTaNiyytOs9v2n5EEe+ihdZ+E3jUjaUC+WUm5YPWP7nf/5n4SF5Oy0NfMADlviYJn7kVS6U07nIkrzVFk9bV8TlyKGu3OMe95gTpspp8nVaPPAiX1zw7FpGxScPPtDgpuEFH9rim266qeAxLR9tTPGS8lUYmeIHHXK4k6WLHOKkf+va/iijsOD0s8Ey9/JizA8Z8CHOXPtIZTyyjEn2Nq/x4JK38ESHm1YOZVzbsdpqq3XOF5iig4dp62yEQqPdR3aRBQ14KKNdyzke6GH6WVhOgyee5Ul//9ZFFjTIk7IxDR944NQ3dbat1/bTWSKhYU5kxNxdXRwhcoWxaemIHz5WFg3ptvmYVoaEnxUayU/3/kIRXkfdI8dc8iWYSj/8jEpz2LvQmQsN8nTFAl/iBouufOAh1zBZx/knX7rygD45gum49Ia9b/PRpXyhGyzmIkubxlz4SN52oREsQ8O9i2tj2iW+ONIOH11p4IPrgoV4/XWlCx0yhI+u5SM0pD8XGqEzVzzJ05UP8RK/C554Fz80yNTF4UPc3LvQwMN80ujCgzjhg440F0xTvrrQSJ7gB6ZdaESW8NEVD3mSfOlCI/HJ1NWlXKHRNV+CaVcs8T4fsoRGZOqCibjkmUvZSPormwY5Ur6G5c3trrnmmoEtU8BEJNbfMCKjgBbHiA3rqatDgyUcYLvQmSsNeATQrlY5vmEp/lzwSPqjjM1xGKHBwXRaBwsOHlzKR/kz5c9c+EhSylcKevymvRsZgEVkmja+eOKTBx5dXMooWl35mA8aeJ8LHmk7ggeeXNO6+agraLjmUlfmSmO+2o75qPfzUVfmQiNth7KhTMC2S9kQBx5zqStzLecpz0aMla8udba/rsCji0sZhWswnpbOfNGQL/DowkfwgGXKRpfykXZ4Ifez8g8esHBP/Z82X4UXl1M+urq59AlJU12RJ13KBhqp73MpG2k75lJX0NAOdi3n84FH6go58MJ1rSvizaWPTNlc3jRu94c//GGowaJw3HjjjWUqUmHt4tAIoF3AlGYKaUCZlo9kLDpplLvQUNFM4XVZAiU9fEQWBawrHqloKaRdZEGD64Jp8ISFZ8vb4DqtExcfcEiDurJoqGhk6MoHOUxVw0Jd6ZK3KRtdyyjs5oOGfIEHLLrmq/jwuNvd7tapjEUWuM5HXelSzvEAC5i6z4WGqXvth7ajK6Zz5YM86VDm2nbMpc7KU0vk8NCe/sffpG7W2o6udYW8yoVlP8pG13xJve9aRvERGnNtf+ZSZ+Wr5Uvqi+W1ylmXthQPc6mz8FBXpA2PLjykjKLVNV/kiX6W07fMhQ9x8dHFkQUeKRtd+UBjLnVFfHhoN7r2C/NRzoPHXGTBB3nI0aVPkI/qirbUUuMueYLGfNSVudKAZ/JlVL4uyfrM/kIcAkBAYFi4/nj9/yMIJa5LpuADjWRslwoXWXQM+OhKAx14oAGTaZ345HDBs2sBU0hlbtc8wQcs3LvwIZ70Q2MumJKFm4ssOjdlay40yCNPydLFydN2XemSt8r5XMoovkODLF3KKBppOOaSr+R3pa50wSPlq0sZTR6iQR58dG1/5C1c54tG1/YnsnTFI/U2+dIlT9BQ38igfHWhAU/1XvyusshTTp7Kly6uLctcaJBnLvUtvOOhKx94cInfpZzjQXzlnCxdymhowLUrjZRRZT1lo0sZU77IEhrBeNo7frrSEDf9W9d8Uc5hwXWlET7gSJYuLvmiXOCjS56QJeVL+ejipAtTPHTlAw/KetqwLnyQxTWXeo8PFzm61jc8pA3sWu+VL3x0LefwS99Eli58KF+TlPPph8W75O4c4nSpGP3JzQeNfpor8/9c5Znv+PNNb0VjO1f++/mdC725xMXHXOP3yzIf/2eBp1ngYS750+a//TxN/rTjtZ+nodEOOx802vQW8/OqhuV8yTNfdLqWrflKf77odJVjrvHCv3ue50pzscevOE5fAmbeYJlepBqjIlARqAhUBCoCFYGKQEWgInBbBKqhcFs8FtK/arAspNyqvFYEKgIVgYpARaAiUBGoCFQEFhkC1WBZZBlexa0IVAQqAhWBikBFoCJQEagILCQEqsGykHKr8loRqAhUBCoCFYGKQEWgIlARWGQIVINlkWV4FbciUBGoCFQEKgIVgYpARaAisJAQqAbLQsqtymtFoCJQEagIVAQqAhWBikBFYJEhUA2WRZbhVdyKQEWgIlARqAhUBCoCFYGKwEJCoBosCym3Kq8VgYpARaAiUBGoCFQEKgIVgUWGQDVYFlmGV3ErAhWBikBFoCJQEagIVAQqAgsJgSULidnKa0WgIlARqAhUBGYBgT//+c/N//zP/zR/+tOfGs8uH6XLMx797/fr9xc/NLwTv31v0+Av7O1vf/uldOMXGpPygS7X5i80+LflSLh22BK5aQov7fChETnybhiNfj7Eb9Pw3v84/wfxETrSbdNI2GF88Bd+EKb9ccbxER6SpvCe3e9whztMhWnwzz3yB9fc8R0+49fPh3IqXPt9ZOkP2w4TOfgJjw452rSGhceT+P000GnHmYSP0AofodGmXUAYkGbiJqy4rvzPXbjwNQmm4UGc0Eh8/5Muv7Z/woYPd+nFP2ETv9/f/7Zf6PCLC434tcOHbu7hb658oIOGtJKeNPjHbxh/8R93rwbLOITq+4pARaAiUBGoCLQQSOfcNli8jr8711ZEdOZxUYiibKCTOMKETmgknvDCtv0T1rvQaPtRFpJe/MVv+4duaISO/5z/FNU8h05bEYlfMEmaaLiEjdKOTtIKRqGd+OHBPRcanHvSKx5Ncxv+kuYgGsL38zEI0/ih0U7P/8iGVpsP4fIuPCSucO2w4iZs/N2Fd7VpJ64716Y9KGwbU2GHyYJW0nMPH/Hv5y9hvA9P6PNvYxo64vfTEN770Ios4vMLbTz77wqNhA2NNg8lYgvTdphBfCT9xAttYdFt8+E5NCIb/pJGm4bn8J00hIv/IFm8D36hL26/n3fhAz3/wwd/cbjIMgzThE1aoRG+41+ItepL5G3z4dmFRpu3Nh/9/sLHhef8H3W/w7777rvvsACYu+WWW5q/+Iu/KMBNQxjNtiABriuNZGgAHcbzIH98tDMQeF2cDPmv//qv5s53vvPSAjktHXygc8c73nFp4ZqURjJZfM/BdNL4CRc8/O9CQ3zXH//4x0KSLNNiKj5HFm7Jku62MxrKBR66lC/p//d///fSytaFBnnUlTvd6U5zwpQsyZOufChj/Q1EAXnCH7LgI3hOy4dkxP/DH/7Q3OUud1lKZ8LkSzA8pM4qG114CA33lM8udPCBRvJlWjnEVb5goi0NL9PSmSsf0sMDDLrKEhopX9PiCQuXtgMPXfJWfA4e0k85LZ5T/KCTcj4Njchw8cUXN0ceeWRz+umnNw996EObu93tbiX1c889t/nsZz/b/OpXv2r+6q/+qtQB+f+Zz3ymOeWUU5obbrihechDHlL4vuyyy5ovfvGLzTe/+c3mkY98ZHP3u9+99DEXXXRRCX/ttdc297vf/Uq5Ia/0TjjhhJLOgx70oILlpZde2nz+858vfNz//vcvfMDljDPOKDR++ctfNsIqe9oo6Z144onNX/7lXzb3vve9C4Y///nPC+0LL7ywuec971ku6X3ta19rjj322Iasj370o0u/haevfvWrzZe//OVC4z73uU/h53e/+11z6KGHlrDkRh9W0kIDHmhwaPBDR5v5f/7P/yl4/PSnPy00yPTwhz+8WW211Ur4b33rW80xxxzT3HTTTQUP5UZ6n/70p5vTTjutyHDf+963hD3nnHMKHt/+9rebtddeu+B/8803N9/73veKv7KHPzTIeNhhhzXf+c53mrve9a7NGmusUXj+/ve/33zhC19o4PGoRz2qyC3eySefXPxvvPHG5gEPeEDxv+6665pPfepTzamnnlpwVg7gL+7RRx/dXHHFFQ3eyKK8HXXUUc1JJ53UXHPNNc3DHvawUg9+9rOfFTy+/vWvNw984AObe9zjHiWs8qHc/PrXvy7paU9h+rnPfa7gjydljx/slANyyxM08AGPww8/vLnyyiubBz/4waUcKI/HH39885WvfKXoM/BXH6+66qqS3g9/+MNSjpQFtL/xjW8Uuc8///zmsY99bKFBbnmLDp1ImuoRrA855JDmvPPOK+ULH6Ehz+GBBnf99dc3X/rSl4oseJUv+BAGDXVJXYGd9/I65UBZV3akpxzIQ3Lxx8cFF1xQ8FC3lDs09EnyFn4pS/QX5eDjH/94yUP1RH7hmQww/cEPflBwJqc8lNfquLqsbilLyoT6qYzgQfnHxyWXXFL8L7/88oKRciY9dNUv9eIRj3hEKUvy6Ljjjiu4Kovw537xi1+UPJTHKUv4E1YdggEaHBrKrrZGe3Kve92r8KE8fuITn2h+8pOfFEzJmTquLsMBbTyrnzAltzKXdgLG+D7zzDObxzzmMeWdeigt+QiHlCV5IQ/PPvvsUhbxwWmPlElh0ebkLV7IxD9+5aH1c3vgj7oQQGhUmHHvQqMrnQjiPh80xvE77H34GPZ+Ev9VhUbkSN5OIns7TPJRfFf73bTPXXlopzNLNNp8TfucfAm+08ZP+ODRlY54XNf4+BB3rmUDjbnwMB98hIdgGoynvc8Fj2AwFx7mg0Zkng8+gmv4Cu1J7+JNw4cOOJc0fvvb3xbFQmdN8Qo/lH9Ki47697///dIyTNmi4FH6DHyhQRH97ne/WxRCHT8a0qB0UF517BQrYb1jHDFYKPT+86fwUKAolb/5zW+WhqWYUGYYLmgIT8GlsFGUKIXiw4CCQrHDo+fQxqv0KMGMHWHxedZZZxX/0BCerHjAI2UWbRfFUXrihC5FL7JQyuHhHSWe3PigACY8eWHHkCMDPihpFChYowE34Sn/+EDnP//zP0tYiioa+GB8oRHa5GZAkCV+FEM00CcXf3HgQcmn0KPJ33sGFZza+MtDtCl9bVnkBz7kbfiAubTQaOOvfKBBcSZL+Av+ZInf1VdfXfiAk3htPPi1ywG8pY8PeMkndOSb9MijXCUP4Q4j5QzuwuKHbHiGV9KDizqBRlsWvMorym7KP+zIopz+6Ec/WuqvbuENHWUl/FH68UD5Vh7xIT11CH9ohA/5KT7+gj+8lRV8kCk00MGvMgMP/6WpLqMBEzT44V1cmDKoQkMdwwe+lePwDEfpwb/dTqiHaGsnUpbIzbDGszxEw6VckQ+NtBP8lQu8KZftsMoSPpRBeHjnGc54lHcJr36i3a5D0oCzixErLEzgS244pU1xlz4/NFKm4YQ3F1nEd8GUMfRv//ZvxRALf96p1+Fr0H0JoAY5EUNAwv53ceK5CMGK6uJCAz8riwYeAOueyjYXWeDR1QUP964uWLp3ceIpUJwyxCrv4iJDVz6kOR80pI9OZJpWFvHEVza6OvFdeJlLOZc+GsprFxc+yNKFhvjBQzk3YtbFhY+51hVpr8x8CR7yZK51JZh0wVOclK25YIqGq2tdSXxlSzmfS1mfCx/BchIaCRuZjbQaCTf7QenyP+XcSK6RUSPtRoDJZ/TSSLNRRiOvRhGFN8LIX6fvWTsa/4QVlx8exDWSvfrqqy/1k7aw4ntGGx0juUZGjbLig593/uMPn/7jTzx+6IYP/mRA27vQcMcH2mjgzYVP4YQPHnhGM3wIx6FBbv74DM/ikQ8dI8AJjwa67tJpY0ou/qER/IVDQ1jvpIMGmRLWO3j4H1nwDANhyYlXfAgjLv7c0Zd25FanIjf/8IE+PoJ/ygF/cdEWz394BP/4wyJ4oJF8EZbc/DhpCId/9CIjPvAs3ciCNhmED/7ohoZwwYN/sBPeO2m6owEn79HkTyZpiY+P8CwMnr0LdngkN/7CBzpoJ6/wFNrhox9/NLUn/CM3HPnjP/niHX9yyNvwIQw+1O/IknIQmfEhfsq0GZDQwF/kFl4a4UPaZEE/fKAhLn88BlNpxD94tOsL2sIEU/LCVBzpceFDmyIP+OMPT8E/mOIjeZi61c5D9MJHygEe0Awf0hM3+RVMhcGXtPGBLsfgdaHjfVvPwI96JK1B7nZ/+tOfBmq9Iso8FiGBANpPREMvXFwY8j/vvFeQEp8/OrnaYePnLl5o40M8QOSdeAkfGu5c/EMjd3SAiM/QTljx+IW/yJK47oBVCJIJCdumwa/Ng3f8kh4s/JfZ8WuHT3qFSGs9ZvzdyeEeGp658Ow5afLDAyccf//xwcE08dty8BvljweFThyFMWmgGT5Cw72fj7zDh7jhg7///TTQ5Z90hIss8kV4NPjFTUIjfKgk4qtcHH8uNDyPwhQeRmBU7na+iD+I57Ys4dm9XVfCQ5uP8OveT5sfGinnZBnFc3gIfwmLDkzTiPrPJbxnfoP8Q0N8eGiU8JHwaATT+A2ijY6LLPBsp9kvt3DhrS2LOPCUDllCwz3hPYsfF//w5o4Hd+XD+7zr54M/F/k8Rw6GCky0HWiM4jk8iJ+0PIvPwWMUzyVQi4/QcEcDf/CIv/BJ032UE0ddQUNbOi58Py3x4UnJh2cUmv5w4/6TP7J04QP9yKJ8uobJEpy0/UY0lWnLhDjlixztspA8R4+/K35o8ZdeePCOv3DtugKndljh+QkvnPChwZ9ryyEc//AQ+fglPe/4J6xnV2gnbGjzF9bVplESv5U//v18CI8u/7jQDn/8xeUfHty5pBl+R/GRsOIFJ3TjP4gP7xK2zUdohA+8CRue+Yfndlj+Ces54RPWve0f3vgnbPjwjv84TENbvDYN8fESP+ly/Nrp8U9Yz+FP2PDnOTiFL3dh+cf1027TGBQWjdAVNrKEB3fXJJiGDzTCI9n5xy8880e3zV9wavPhWfx22LliGoxCW7r4avPML3zEv5+PyBK5hQ9O/No0+JOBX1sWNOLn7n/CJjy6/F2ccOiPwjQyCuvi9IVmbfRBlgCGj3ZfzS/+JdKtP0sGeSZAEhAmz3nnjlGNuOklYVhvOo/4m1bSIUWBI6gpL+9ZZFF00aDcEF5noAMQlh/hCIaGO6EYUaFBQQSKDjAKdCx4/njjj6Y0xdPR4c2dVRj+brnllkLbf9YwmYXHcxTa4CWsqUr/YyHDBB8ZcWPoSRcfwuKdDDBBFw38cRQZFnB4hgksYSoNcSMLmUODDKZxYYdncTjpkRtN/miQgT9sxXdx+IAHXvGBR3wEI+FgBw80+OMHTbyghwaeyWW0BB9owIK/+PDwXnhTnO7KALw5YdGWHkylF+ykKy10yCo95UAYMoqDHhrkJoOwZEqZQUtYMuIDX8J7j7awaIiv7CWsNPjDGR/wxDcawqYckIGfq42/9PAsr/DM8WvjL2+lk3IuPWHF4QcPeKsPwuKDH77JxV+aaPCTHhrwJCfsg7+4aKOHD/Q9o0tuOJA95QBdGInPXxqh4RnO/JNXeIEBmpywcObfLgehIYx6KF3x8OHyH84c2llmgo9224E/8oZG5FZGyIA3vJBBXfYMo+Qh3mBEltRlYWGBBtrBjr/05Iu6mXInHH/ppe3At/TIjYZ35Eteea+948/hw4Vmym5b7jYe0oMRJw/JSG48K5PqX4zFtizCkR0fKY/wkJ50YTCJEyfXJOETRhx8Jq70PE/rEt99Up5HpTGKhjTkg6Uin/zkJ8v99a9/fbPFFlssrTtoRw60+un5n/ftsJ6VjbZLuLTl+Z+wCd/2T1hh4t/mI36hkfTi7z6IRtJKePdJZQntafhAfxAfg2ig3+ZvUHrh27tBNLxHI3RCYxgfg8KK046X53Z6bT6SFr+EdR/kH/7a8T23abdp5LlNux227T8oPfHH4R9e0NWOuLfpeh5Eu81Hm09hEz7+7nlu027TKIneimHit8P285F3bRrtNAb5T8pH6Aziw7tBmLbDRhY8hFb4zX2Q/yCehUc79NvxBvExiMYwPtphwzP6bf92euEhMrjTN+zd0g/od/VPnH4w6boPciM33SuMOj8JtAVFyDsJWm/37//+72XDzSabbFI6Se+s2eNvDaPRqHSS9vjbtKMDsPGKcNarvu997yubAZ/4xCeWDliHbA3eu9/97qJ0hQbh0LBxjYJioxE+rLF9//vfX9aB2minsxbWZrP999+/rJvbcMMNiyzWFErPRrn11luvbBLCs3WRb3vb25of//jHhS7FA+3/+I//aD72sY8VWR73uMcV5cB6zAMOOKBsprJZ0mYlzvrMf/7nfy5r+chH0cHHgQceWDb3UTpsVpKRNmORz/pBm7Rs4pOeTWX8re2EB0WCgm9z4Ic//OGSls1zaPB/85vfXNY22vxlwxNZ8PvBD36wpLHllluWsNYwHnzwwWVzGQVFocGPtb1vetObCo3111+/KG3yx6aygw46qBQqsggrPWsPbbBSwOSLsmEt5nve857C+5Of/OSS35RlssAar3ASloxveMMbSv7CzdIKBdTmPXloXehmm21W5KaU2bj1oQ99qJRFfEjXmlk420AqXymPaFhzKb9Y8HgjJ/zlqw2QyjMZOfgqG8rSxhtvXGhQ4qy5fPvb316UzbXWWquUGZj+67/+a9m0Ji2y8LOmVHrqgU2i2XCmbO23336Fz4022qjIYrMZ+azftAkwZQb++FP+bDA01Qx/YW1iJQs8yKfMyFeKk82WsMMHzN7ylreUtbXrrLNOKXfq1kc+8pESXt6pF8JaB/yOd7yjrEU1wqHcCWtD5Lve9a6ytnzzzTcv2DFsbEZU7hiiyp085K/ckVt8S2Pkq/qmjFkXi2f13vrVj370oyUflWX5QhbrXf/xH/+x5BmMGAv4s5FQmaF8w18c5QBGylPKHZ6tM1dXxNlmm21KehpB4eCHJ/mCD+Vgr732Kut4YQxr6VnX+4EPfKDk5eMf//giN8OB3Mo/Q2ndddct5UAdUjZsrhRWWUBDOeBvc+Saa65ZaPD/l3/5l7KJFU/yhSzWjuNN/UrZld/Krrpl/bM2As/83/nOd5b81pbATl2y/vm9731vKavaQOWOrEcccUShrX3SHmu7rW0nh/ZDWO0E/Cng6pA8hL187G/nS0Xp+8GT+Pjo4vCpnomvXMrHaR1s0RG3Kx/SnEYWa+KtN5cmYwWO0va/LUP+5x7Z8r9rWHRWJo1hfEe+SfibJuy49NpYDAs7zH8++ZhE7nF8zIosK4qPcfivKExnhY9x5WMSPMbJMknerkga2nC6lz6cTqJ/1K/og9p4tHma+mgmibQdhZBxYbRUBxKnI+BPSWgzYHSR0qjDiktY/qEhHXHR8D4dgzhoxL+fBoHbPEon6YUP78MH2nHSHiRLO6xRWWmI1/YfRGMQH9JIJ+0ZDXK2+Yjc3sWhFVk8p5P2jGeKULATJ2HbNLyXT8KHhoLhGUbCeo4LH+288l44NPAgXTQSFp02jfDhfdsFZ2GjJIVG+BPeezTa4ePPT3pt5QmO/WGFx3PKQfho52FoSCt8wKotS2i0ZUl6wSJ5G7nbmKIVGu288oxncdKo4FH6eHaPEzY02mUmNITFC3lCI7RDI3xIr80HuaSHvjxBQ1g00WjLzZ+fcG0+0OQvjrYBL6HRj7+0+UmnzUewQzdlIzyj3U7PczAShnOPLN7jIU588g2ioSyHhvBkQFtYfKSuoMG/zbMwkbtNQ1r8+WWmR9jkYT+NflnwERrCBo+k53+bRrATJ3y4Rxb0QkM8hiDDUPjkFTmruy0CMGGg7LrrrgXvGI63DVX/VQQqAhWBisAkCOiXnGam/zH4l/5qVNypZlh0cDo2I3Y6QKN3OmEdoBFBI9dZqqFDtVSB1WQk36ioRp8iYcSTf46fQ9doopHJzGBEOTBTYnTTaChlkEMDTbMjRko5NIxAGrk2Ktvmw+ijsEbF0QCMztkI9QYbbLB0NJo/mYziCxsFQ3o6K3zwjyInLFkyK4FnfEibfMIKE56NYKJB7sjnvc5PmmSNLGaP0MjMBn9x0IARuaOUekduFwyEw7PRczTgmrDkhiWec4QdueWPtFyRWx4aVTcyn9FEYdE3UksWNPwnt/xWDjKTVYRpmkID/uSO8kixIjf+yIqG9GCAB7Ikv9ERFw18RElzT5mhHHMpB2goI8Efbf8jS5Rk5U4+GeH3zJGRLORTRmKEwDTYwT9yi4df4cOH9JQ7fuj3lzv4SyM04K/cwiQ0Uu5gBO92ucOXchDs8EzhFhYv8pDDhzySnlkQ6QkLu3a5a+OPZ3TwxHkX/JWHlCV04C/PzUYmPXKnLEmHk+/yLuXOf/HhIqz02nU25Z+coSG8+iYP2+VOmceDuiy/8cuZ/ZCeOiMdTrnDMxreR24zDGhkRkdaHMzgoezgg7+7/JCevEJDuVMOxMdj+JCeMoMGWZKH8ke5kIdtGmSBhfTSZoaG8p86m3aGLNJUljj+8ijlAA08Sxf+eE47I7x8wBs+pC0tbXvqabAsxG/9UabQS5j2u0me8Sgd8f5iiBIAACAASURBVOXLoDTG0SETOuJ25UMa08giz9QDOMpraXfhfZxs9X1FoCJQEVjVEdCGm7XWP+t76QHaU/3rsHb1dn8Wa4BLh2ANts5QB6yTsYzAsX5GDXfYYYfScafh7k8EjX6/AUkVr2nCDqMxH/7T8DFN2PngDY1p0hwUdpDffPE2H3Rmnb9BMk7D8zRhB6XVxW+aNKcJ24WXSeNMw8c0YSdNf1y4adIcFHaQ37g05/p+UJr8KO2Uf8ssHVPKkNtqq62KIRDjNGkLn9mYGIF5N+mdIW7JnfgZHJk0bsLF6MFfVz6mkUV6ljZa6ige47F/0Ci81XtFoCJQEagIjEfAlhHtafoC7Sxbo7/fCaWploQhbB2+PScMmU033bSMEg4jPqmxgplpwob55XGfho9pws4Xr9OkOSjsIL/54m0+6Mw6f4NknIbnacIOSquL3zRpThO2Cy+TxpmGj2nCTpr+uHDTpDko7CC/cWnO9f2gNPmZodBROJ/fPiYzQU960pPmNHMxV15nMb7BOnuEGFxmsVzVVQQqAhWBisD0CLAnzPa7uwycjXNTGyw6NjMulg9kScu4ROr7ikBFoCJQEZhdBAw6mTlxz+ljs8vtyuGMYWdGyEqDYYN0K4ezmmpFoCJQEVhYCDBSTHywKSwDm2S2fSqDBRym8p1apME20jRo1G5hwVa5rQhUBCoCixeBzLLstNNOzfbbb19mVrJ/ZvGiclvJYWRf0N57711eGBmsRsttMar/KgIVgYrApAgwVPbZZ59yCq229ZWvfGUxXEbFn8pgSQPNUPHMQqquIlARqAhUBBY2AhRySrjDBzy7qluGADwcauEgE65itAyb+lQRqAhUBLog4BMjZvQdZjKJPTGVwWJK3GkyvtnBOSmnuopARaAiUBFY2AjoLAxEZTDKJsiqlC/L0+Bj2RxnY+io02yWxaxPFYGKQEWgItCPgEmPXXbZpZxKyWDRno5z40O0KOjAjDBllCkzLq0g9bEiUBGoCFQEFhAClHHT8z/60Y/KB3bNJPhg7SQdyAISc06swsgpaj4qa3PodtttVz6iqk+sriJQEagIVASmQ0DbaRkylwEh91FuKoMlHZvOLaNvtcEeBW99VxGoCFQEZh8BbfvXvva15rjjjitLwzbZZJOyl6W27728g49vBjhFzab7fBNq9nO2clgRqAhUBGYTAe2qa1I3lcHCUHGs8aWXXloMFh9lq0c7Tgp1DVcRqAhUBGYTAYaJD14+4QlPKB9FnMvHGGdTwrlxBR8fRHXcs2Vz+ejo3KjW2BWBikBFYHEiwFA588wzywCQD0/7kPK4VVsjPxxp6vu6664rxxc7NcbI0imnnNIccsghhfAb3/jG8lXzxQl3lboiUBGoCKwaCOg8brzxxubmm28ubXsU8v4ZFuHy4cguezjE16/kw5GWn43rpAYhbPAsxwvPx4cjx8mCb+nBx7Mv3XdNd5A81a8iUBGoCCwmBLSne+yxR9l0b8b61a9+dcPOGPnhSKNFg5xGWaeQDkYn479vr9hsbwROo11dRaAiUBGoCCx8BLTnDIi0+SQaZLDkff+7SRFIX6I/yfOkcRMu/ZP/w/qwhB12Dw1y4GOUE5ZLZ6r/49cVg1Fp1XcVgYpARWBVR8BAVQyUHPKiTR3VJ9zu5ptvHriATESXUbfVVlutjCb5b2Ts+uuvLxsybb73sZfqKgIVgYpARWBhIpC23vGSLv8db6xDGaSQ61D4d5kZgZD4t9xyS+lDun7vBY8MnrnwMQ0Naen7rr322iK3U20YeF0xWJglpXJdEagIVATmBwHt70UXXVRm7NkRD3zgA5e254P6Haku0WEMcu3GnPUjHD9T59abaahrYz0IuepXEagIVAQWFgIU8i9+8Ytlya9Z9He84x1lkKq/jdcHuMwwdD1FjMFiOYD4czFYsiSsKx/k+OMf/ziRLHh2itphhx1WZnRe85rXlI33CyuXK7cVgYpARWB2EHj0ox9d+hNtcWbKR/UJS/o7pIiCAMfSySiWTo3zLqNbwyyhErD+VAQqAhWBisCCQOA3v/lNObrXByS5QYNS2v52n9BFsHbfIY0ufUg/jS58TCOLsPbuOHSGoWSGqLrBCMCq7cb9T9h2OWg/e9//P3HqvSJQEVi4CGgb0j6o457dh9klU50SZpTp3HPPLcdfIrjjjjuWnf0LF67KeUWgIlARqAhozzfddNMye24fS9YUV2R6CMBnrbXWavbcc88yWDfJiTaLDbsoHlFC3BmWufI/9+ATBaX/DnN+/Vfi1XtFoCKwcBHQLnzuc58rA0H3ve99ywmV42bLpzJYQGMNr6PINCZPfepTFy5alfOKQEWgIlARWDp6vdlmmzW+v9JWHCs8yxCwZ3ONNdYoHvq/xe7aholnSzrMPllm5+6yJ8oHN3/96183ZvDal3eMYyfStS+fSnCwj6XnDOdclopQaPoNmcWeD1X+isBCRECbcdRRR5U24vGPf3wxWMbJMZXBYt3yQx7ykOZpT3ta6dTSeI9LpL6vCFQEKgIVgdlGICPfMVj891xdDwEjglYZxC1moyVlhVFy0003lYHMX/ziF43r5z//eXPVVVc111xzTfPb3/62YNY/S5L/DvX53e9+11x22WVL17Kn3Dn4gY5xv/vdr3nQgx7UPPjBDy4bc30PZ/XVVy/7n9rGS/Kl3isCFYHZR0DdNUhmea0Za/bFODfyOywaaA2OTZiOc0wjFaJpLPK/3isCFYGKQEVgYSGgXXddfvnlza9+9avS1j/ucY8rHUi/wSJcvsNi5LuLMxKf77A4HaY/jUlo6psoy/qgrnxMI4v0KOA+mizeYx/72OZe97rX0LXWk8iw0MLAgOyMNkaKshID5Qc/+EFzwQUXlFkW+Slf7YVy0R/MjmSmxN1MCQUl+ZjZmczMMGR8A86lrAgnvJmXDTfcsHnoQx9aDBintTFevIs+0qU8LbS8qPxWBBY6AtqStClk0Qbwy9Hxg+SbaoYFgdoYDIKx+lUEKgIVgYWLgI7j5JNPLvsTjWzvt99+ZblObe97eaojZawcdNBBxVD6x3/8x6KML9wcn47zGCo+aeC0tAsvvLDsZ/3JT35SlnQ44tnqC8vmLO9iSJgVcVRplnbFqMidgRG6yh9DKJflYldeeWUxiNwtRb/66qvL0jLLSBhAjJZ11123WWeddZo111yzzMbEeK3ldrr8raErAisaAXU0bYC0/dcejHJTGSwaFQ2HBgTxhz/84aUxGpVAfVcRqAhUBCoCs42A9pwi2d4nMNscr1ju4GMkn1JuJNC3yfityo7yEIPCrBqD7cQTT2wuvvjiogOYDbFZduutt24e85jHFGOFwcLgZcAoT1xwyr0fs/ZG2ygsZmYYOxtvvHFz8803l2+/MVhcDKazzz67+fGPf1yWkp122mmN41G33HLLZv3111+atvSHpdnPQ/1fEagIrFgE2BNmaQ1S6Hfudre7ja2vUy0Js5nuO9/5TnPkkUcWy+gVr3hFGeFYsWLW1CoCFYGKQEVgPhGgKFreY9kTBdKodZbYtNMRbjEuCSO3UX8Ks2f7KlZ1oyWzHgyEb37zm81ZZ53VXHLJJUWxsGRQGXnUox5VlmlZHreijAN7XmzkZ0C5zjjjjDKQakbH5t0nPelJzdprr700f1YUX+16Up8rAhWB0QgY+HnrW99alpeaId11112L4TJvS8J0YBJx0odGwAhLdRWBikBFoCKw8BEwom0pj7Z9kLGy8CWcmwRZ9gSfVVkJjqFyww03lCWCX/nKV4qhZiTU0c7PeMYzmo022qgsiXPKV2ZS5obu5LGNxDKWbNRlnDzhCU9ovvSlLzXnn39+c8IJJ5RTTLfaaqtmhx12KMvTLBNb1fNscvRqyIrAbCCgThpwsEct+9DGcTbVDIuGjLFyxRVXFLp1Sdg4eOv7ikBFoCIw+wiYNdC+u3QkUUL7FfPFPMMSRR4mDLpVzaiTty6GiWOIP/ShDzWnn356mVmiUDznOc9ptt122zK7xFDpLxsrq5Rb+WFm0OoP33UwU2jTP/3EXiOniynPq1p+rSy8a7oVgflAQHuqzpr4MENrWSc3aoZlKoMlnZo7V9eIFhjqT0WgIlARWLAIpF33fS0jXpY6PetZz1r6zYu2YMIuxiVhlHjLob785S8XhZ7yTiGOYdfGaCE+pwzI23POOaf5+Mc/XuQlt9mUF7/4xWV2xWzFrCn+eHdZ/eGkO5vyTz311LL3xR6b3XffvTHjwsiKobkQ86jyXBFYlRBQZ7UvcZ4ZMaMMlqk23ScBRLn2SFwSrfeKQEWgIlARWFgIaNuNph933HFlqc/Tn/70YrAsLCmWL7f2r3z7298uH0akADNYVgUn7/Xpjir++te/3hx++OFlM6ylVz4O/apXvaocSay/n5VZlTbu4cvGXXtq3vSmN5XDERguZore//73l1mXnXbaqRyxnPBtGvW5IlARWPEIaHtcXO6juJjKYGEB+SiUIw1Veid4GMGoriJQEagIVAQWLgJGnh/2sIeV/QBmWGy8n0XldGUhDB8b7Z/85CeXkXwfL1wV8InC4Ljir33ta8VYsabc/pDddtutfNhtIe0BkSfK7s4779yst956zcEHH1xmDS0V822XF77whbfZ17KyylNNtyKw2BEwSOIgDzOjvtVkAKh9YuAgfEYuCWOg+HBTPvxkrZkRmAMPPLBMhb/lLW8pRssgwtWvIlARqAhUBBYGAhRXHYirvWymXykXLkvCuhg14utX8uHILNOZFiV86o/wmm9vTEtjGlmEdUmXky5s+vGZloeVHZ6yIC/MrJlZIZ8TwHbcccdyAugs7VWZBqvkl+/EONX0u9/9bim322+/ffP85z+/HMGcfS3T0K1hKwIVgflBQNujnXH6otP99t5779KWj1wSJtIwp2NR8d1dGjPnoxu5UNkZMtVVBCoCFYGKwMJGgOJNCee089r9YS6Kuz6hi0tfIp08T0snPIg3qg8bRTc0yD6JLMK7YqyMoj3r78jB+cbJKaec0hx99NEFA0vdzE5kf85CNcjw7XrEIx7R7LHHHmVTr9POTjrppHIi0d/+7d+WmZaEm/X8qvxVBFY1BNQ9H3+1FNX3mzjt0qg+4XY333zz0J5Jh2Ia1XGORtMQ89+si/85i35VA7LKUxGoCFQEFgsC2nWXY2xdOpL73Oc+QxVzHYowMXCmxUm/csstt5RBL6NpXR06XFc+xCXLJAZI8LnqqqtKeMvn7PGYS9pd5Z6PeOR2utbxxx/fHHHEESXfN9tss7IMjJI/CSbzwceKoCHvfKDus5/9bMNoMSNnj9azn/3sYrTUw4NWRC7UNCoCt0VA+33uueeWmU82BuNFuzPqIJMlo6bT0zEhkHD3vve9S2dWRyZuC379VxGoCFQEFioCOg8j7Y6ZpIjvtddeZVBqkEJOAeQ/br3xMCxiJOhXuiwrQxcPZlbGdXDDeAgNdPAxqpMUFs8+VmjZlOeXv/zl5eOEg/AZleasvCPDt771reaTn/xk89vf/rZ8z8RSqcyszAqf88EHXcUILgOFkXbiiSc2X/jCF8pArNPeGM3j8n8++Kg0KgIVgWUIaDs32GCDpTP62nPt0qg+Ycmwiqoh5zKSJhxiKry1w/ytb40hs4yNlfCEV9ftbtdLPHf/8i5seTfofTtcOwz/0HH3ztKJNo1eiF5aRv0slXC/wx2aZsmSwWETJ3fhXZFD3EFpJHz/PenyD/+3LvEoNPEUWfijH9efThuL0Evc0E7c9j3x8kFRaUirzUfC96cZ/3qvCFQEVjgC2vMrr7yyHKhy97vffakh0K+Q6xfSJ3jneVrXpqFf6UKDgSWea1gfNo4vfOgkJ6EhjL7PSL3+zz6efmzGpTcL7+HmsreDsWKzPaXBZnRfm+6K5SzINooH+eejqM997nNL3p188snNMcccU04VW3/99UteClNdRaAisGIQ0A5pU9OWt/uFYW3rHfbdd999h7GHgDWuRiBYPQwWZ7R/7GMfK5vYHvSgB5XZlmHxV6h/lOUo1knc/7ayzj9Kd8K628vTNhqEiwERf/d2/P4GDp1bbmmaU05pmv33bxqK+yMe0TNaejGH/0r/xhub5vDDm+Zud2uae91rmaI/PNayN3i78MKmOe64prnTnZrm3vfuyYkn766+umkOO6xpvvWtprn//ZvmHvdYZsAso9LzE8cV3EIDnX6Z/feeS5zvfa9p3vveXvyHPawnRzuM5+RBO+36XBGoCKw0BOxJXHvttZtNN920nBg2zCDRD3jXVbnVQVH6xTfg1UVR1Delo+vKB6CnkcWyhcc85jHNE5/4xKLc+zhhF95XWgbfuj+JkeL0LH25PH/Na15T8t2xwAtNnkmxJJcya/bQCW8XXXRROfH0sssuKyfjyVthVlX5J8WphqsIrCgEtN8O8DKrbyDIkeTq6MgZlmmZ09idd955hbDd/TPhKMA/+UnTHHNM02y0UdNsumlPacccpdu7j3ykZwS85CVNc7/7LVOYxf3Nb5rmPe9pmosv7inXlOm11mqaXXZpmm98o2m++c1lBs3d7940f/u3TfPMZy5Low0Cpf6GG5rmpz9tmt/+dpky3w7Tfpa+OH/4Q9N88YtN8+UvN83llzfN//f/Nc3qq09utKDhEITrrmuaAw5omr//+55R8qUvNc3uu/fo//KXPYNKvgl37LFN88QnNk2MCli5GE/f+U7TfPWrTfOsZzWNL5C+731Nc9NNTfOWt/ToZpbGDFLi4MEz2j/+cdOst14vPTJy7l/4QtP4fsEmm9x2lqeNSX2uCFQEVhgCUdKMsGf/AiMg/iuMkRlPyHLoexjoufWjyTPO7v9ij4JgRPPYY49tfvCDHxRj8e/+7u/KqWCUhMXgKESObH7BC17QHHTQQc2PfvSjMtPkWzNWjCwWHBZDXlcZZx8Bxgo7wkmFz6RTj3FTtVIq+0Me8pBmhx12KAaLkYqZcBRhsxJ3vnPTvP/9TbPrrk2z3XY9hZjy/cc/9p7PPbdpzj67abbeujfroZG2bImS/fvf9xTp5z+/p6hfe21PyafcU8Tf+tam+fWvm+ZjH+sp4fxibLgzcqKwo9d/Baj2zILwLjy6Ntusab773aY57bSm+drXmmaHHXpptON4HuTI8qAHNc2LX9w0H/1ozxgR9vTTezJuv30vLendfHPPuGMcMdLe+MaerIyRq67qhTM7BDeYoc2gEvdFL+rJ6vs7f/d3TbPVVk1z2WW9GZWf/7wnt1km8hx5ZM9AwcdjHtM0W2zRS1derblmz4AcJs8gGatfRaAisNwQYKBo42OoZIp+uSW4wAjDw8UtNGzwy2D5/ve/XzaeUxC22WaboiR0neVaYNlX2FW2GSVbbLFFc/HFF5cjj31/xsyZI4+rob4Qc7XyvFARePSjH10OYHnwgx+8tN8ZJcvUBotpGxenc5sJR+m1BIoCbfbkvPOa5sore0ukGA4UdLMeFPBPf7q3bArvG2/cU8AJgQY/V78SHf/2O8o7Jd7sDKPGO05aZlYo7GYafvazprnjHXuGhzCrrdY0a6zRC4un669vmh/+sGk++9ke79ts0zMaGBNmi+5zn97Mxl3u0jR3vWvP+OjFHvyL9pve1Htnidk73tE03/52j47O1nX++U1z5pm9mZNXvrI3YwInqwPJ4pmhc9JJTcPQkd8HHdST7XWv681YnXpqjxYcHvrQ3gwM2uJ+/etN88EPNs1zntM0O+3UWxonvOVqjEo0zFRVVxGoCKx0BKLM/uxnPytfBrcEeN11163KWytnYOSr6eeff35R/H2rZI011ui8LK5FeoU84p+R8r3vfa+59tprlx73O2r5xQphbCUkwmhhmDi++ZJLLilL47761a+Wgwd8tqFttK8E9mqSFYFFgYB69ra3vW3pIJD9hNqpUW4qgyWEEM0oXPxW6p3SzHC45pqmecITesu1sqmcAm1m5JOfbJpLL+0tlbJkLEaJuFHkI0T+B7z2Pe/EY5B84ANNc8YZPaXdzIGZCXy4f//7TfOrX/XoM0wsydpgg96yKnTMohx9dNOYqTIrwXnPoLDnhCFjJoMxw7h6xjN6Bk/4bN/Dz+9+1zNOGAYMnJe/vLdvxV4as0vweMADenTWX7+XNjrS/9CHemk6E9sME1qMD8vDYCguHB1FykhhdDC6yJgZGGEYi/gR54ILenIzVszA7Lxzz/D5xS+a5sEPHm+AtWWszxWBisByQUCbbqmQDwha9mRD9lz2hiwXJlciUfhQbg844ICyrMrWTwbLQnB4pwycccYZzdlnn71UWbdCYmYGHVcwkPQXh0u8+MUvbi699NLmxz/+cXPCCSc0vs+yUD+WuYIhrMlVBOaMQOyI2BTuo9xUBosNir/5zW+aX1K8G1sfHlYq/agElvs7AlKWLW068cSesv6kJzUNZdzMBpfTqhgpnrNeV1wKdowW9/bl/bj/wjAO7BnZcMPe0jL7Rj7xiaZ5ylOaZrfderMv9sGYdUh6eL7iit47s0MUf/wxAsxKcJZNkYmhZYaF0cJQGOQYSAydk09umnXW6S2/YnTYS2PdtT0ljDrhpMsoYUDAAk38mF2BG57N8JxzTtO89KW99297W2+m55/+qWnuec9lM1HomsFhvMGKfGaZyGQPDH7skXnkI3v7gsz68LNE7IEPrAbLoLxcAX5pGNJgrIAkZz6JxYyJcmCPhrPwbcRerIrssEIaBXettdYqyr/N2wul7ijXji52jPEvfvGLcirYOuusUwyXhSLDsHyZi78ybinYhhtuWD4o6VjvjTfeuBztXMv/XJCtcSsC4xHQLjkq3lJVgwT3ute9xrapUxksErBJ7cgjjywd2t///d+vfIOFkm+plQ3elOQf/KC3JIvizN/SLM8xFPyntGcJl1mAr3ylNyvCmGFYGP2nvDvtywZ4sw+UbDMO9rowDMxSULgZLP1Xf171v6fYU9zRNgvCAJA2hy+zLBxebXh/yEN6BpnDA5ImebgYYdJgeDByyMCIYqzY5G52hSHC4OEYJ8IwhGyqN9OBJ/5mR+Dxox/1eHTiF2PQDJEldccf3zOe8MkQWXfd3r4ZvKIhnuVmjCVh8GRfkLTNzJAzV/Kgx1X9XY4IqLsujYMTmmx0M4JuCcRiVloCucGYa665ppyI6MQg2FBaFgs25HzSk55UNiQ7LWoxLhVKWRh0h4/N2i972ctKPXrAAx6wIMqGOm92xQyCizFqr4YPgy6Wsj0oP/mR3/LHnXbaqSz1U//NQDn9VP1f7PgMw21m/aNn0Ym43CdhWNxp47TpJr67dKdJG51+3kOvTaft1/YPH3nv3oWH0FlBd23Tpz71qXISsW0m6uG4Wf2pDBZyaPwcdawz18nPhKOcO8qXQcEAoLR7dmoYw4ORcdFFvVkAS5Ms1bKXxAyIGQYzMTKYAu2/u/8U6zzz9z/+njmFwwWLKO0U97YfGvETxzODxawEI+vWk2cKvXZBE88eFntIHFnMYLGvxcwIA4qBgS8GzV//dW/TvWVjji0mH4MIH2Zc7O8Jzwy2E07oGWbeSxNuf/M3vWVclrjZSL/55j0DiVzBAk+wdTAAY8XMCR7sd5GeGRfLwDhx4MKIZORJizzPfnZvJkm61a0wBBgrvmT+7W9/uxzraZT1KU95Sum0F3PnrOFkwPkug/tGG23U+Oo3xZ1b1bEhn8vsimsxyFyEnOIHPpR9MysLDR8ne1LErYxQrtdbb7267OnWei1fKUtbb711qf9nnnlmOdbb4UILLZ8Lw4v5h17lis7Wy8DxiNBLXHFd9JLQcBc/ulZojru3eRc2/JAl/9t+/Ty200dL+v1hepRm5le/6+ALe+sMHPg/zk1lsLB+nNP/6le/utBN5zYukeX+nqCUcIqyo4E9P/WpPUXd7AjDwJ4QMwRmG8xaUEYcA6wD2nbbnhFjBsBJVowJ4bfcshfHcb6OXIsy/tjH9pZ/UdwVDOkddVRvv4c0zFK4m52wnwV/ZnIYGAogJV4Y6VD6fXOlv3Al8xxtzGCxVMyMiTTRYrDgS/pmlxgXjA6zIXh34hhDgjPjYclZCj9+LQuTPqeAk90Rx4w5+1YYIgwYRxDj12wKw8XSNBh7hh+ezNaQ1awKXvbee1mjQS4XXi0zY7jAu26672G/nH8ZKZlVMf1KKT/rrLNKIyHpxz/+8eUr0MuZjZknf9VVV5XNtz6oBx+j0dtuu21z3/ved5WfbdFRuMy85fsoOpAYMjOfeSuAQfgYrPPBSA4+mYVbAcl3TgLfV1xxRSnb+HVYwCRLLzonuAAjOiXNt3VsvFf/KVFm0Gbio9izjifdgX5AX6GLxFjw35VB3PaAb2RKXHcXR1dAR1x+7vF3N7jsfb+j0xgYNXBqNQk9jj7Ur1f1x0Mf/3QeulY+tzAojf64+Y8GncxgOL3GoLFB9MgnXJsP4eGUgXLh6EU+oWElCv3Scnq64wte0NPNfD+Pbkcu8omPTi4yOOGVbmZPNB3LQHjSFS58JI96Pivt16THP/zDP5R21WDQuNkVjE5lsEjAVLKL06HNhJMZOhIZRglXUCnTFHAVRmGy/MlsC4XaxnxOPO8ZF2ZhyGVmglwyVSGwFErBUgD5uRRmV8JR4u2bMbNj/4Y9HZaVMYycsiWs44Ht/QldBotKbDZE/LZLIXQXxpItMyv2fZiRefzjm+ad7+zxhwcVzbIycijUKp/CSjaO8WHpVyqhys3AyHdipMNPJbHBH17kPvDAXhzv8S0tho+wlnmRmaGDfxX1c5/rnXTmqOMYS+Jy6Dl5jNzx672pv8sBAYoKZxb0lltuKRtKbah2EpSGwfIfS0NsPJ2ZerwccJiUJMNk1113bQ499NCisBx11FHlq+/Pec5zyoyL2ZZVeYmY8mINv+9zWBK3xx57dP6o46SYL6RwjH6KrIMJGC7Pe97zlp6WOatyyFMG6HbDpwAAIABJREFUKGP8yiuvLEva7NmIMTqrfK9ovrSHBl832GCD5rTTTittpFUkdVnkmJzQx1CqLTunZNNL6AN0Be/oOz5twDkx1HL26BF0CTqX/b5OEI2uQm/x6QSDn0cc0aMjLH2CDmR1Bl2H489Ji65mEJZiT4ej+LuPcuK5HEZkzzEdjz7WZW8tvdNgL2PByh26ppNVo/ORm5MeA+XpT+8ZNnQyepul9HBwyJLBYQaME2Z984+cBsutajHgbsVMW78iO/wMzNPrxDeATS8MRuijKR+46IK9fyvlV39qzxiXtmrcqq2pDBaNtsY6TkWfxCpK+OV2VwAo3zJYRjjaeNIMSVwzAE59UeE4BctsBrpmQOIfIRQE4V//+l6Bo7AzbFRChUv63vsApdkcsyRPe1qvoKlIll4waPgzctpO2gwwhc9JYb4r47SvGAcMBAYZhw+XQht+GRTC8kcLbwp6Ko08tLwsGKkwhx7amwXBr/AMEvt0HAPN2Hvta3u4apxUTJVa5ZQGeRhoKpFKp2KkQuEx8tj0L2+qW64IqPwqPmWFgXL00UeX40xNvf7VX/1VQwnfaqutysCDTnmxOwYbw22TTTYpMyoMO6OtltFQ9LbbbrtyORUqSsyqaOTZn3jqqacWLP7v//2/i71Y3EZ++W3juu+YqFdP05bPuNMO3HTTTY2vuZsZopA7KGdVLLtzyQp4OBlvyy23LCep/fznPy9HPzPcKVXVDUFA30+HcB1ySM9gMDCqT6GP0GsMcJr5oH8wNOhCiUMPyQmjDBGDrQZ26VCUb/996NuAK4OC8k+3oU/kwppntOhynt2jxPvP4bWdl8K4xPP9OksADag6tXWPPW6rv4jrGuTCR+glffobfZQOSIZbl5IWLD7+8Z5BlrCMG/oYg4nBQo/MO3Lk6k+DzpqTXckhTTqWFTZ0UPSiy9HbpMHYoePNgIue4s6xL8a5qbQVBClA55xzTqnIm2++eXO/WVBACUxhNsPCEHAClgLWzuAgkYLgv2eFgTWvkkSBzztWs5kBFa2/wCr8CpYZjzjp8U8B94ymcC4WLyfck5/c23cifccGixPevFcxL7mkt9cEDXtQMmLQzwua4irADCzpqCCpoKYJLcfyXziFG30NC1oKNoOErJ/6VK+xYKSZqRLOzBPjhayhGzlzD0+mLF/zmttiiT+0Dzigl0cFhPqzPBBII0BBsVflsMMOa3TAFG3f1th7772LUr4qzxZ0wRUeRp596d2SVx+We/e7310MFhj+8Ic/bHwV3IeuYrR0SWeW4zjm1sbySU/AUtYWk/Krr2O8GgyA1azLrr/2zRXfXpGnPs622mqrzTzfK7qOyEfLvx74wAeWAZ2LLrqoHC4Er+pGIECXoCeYEaEXmC0xku/j19FlKNH0jfe+t9f/0xfMlOyzTy+McHQjMyvRbyTJ34UuvYOu4n/e0ZvoSfFr/+fnHT/PLum2B+fwZDn7fvv19D8f3LalwAyNGRLLrtDg6F/Rc3o+t/1NGkm3/Z+BRn8iH3/36Hqo4MPeX8v26a4GgrnQwkPkDN38N3BtewY5XfTFf//3Hh1GF2PJ3meHKDnx9WUv6xl/vRRW+q/+w1Hx2lPtkvZ13ADBklg3/dzzz9XDr3fCkFG4j3/844WwjWkzYbDIQMaFmQKKtQJhWVMymxLP2qd8s9wZNimAKouZDMq5GQ+FM/EUYEaAwmvGIgUlcftBm/Q//qLgi8PAUqhVIIVOIVbRba5XWVnECucopzCbEjUKYdYGPWng1bSiY5f9JwOcGDCWf4UX4VjjCrq0jYz4TgxDEG7/8A+9ac43vKH3MUozPGi15cADnFn56LWd2R90haluuSFASfGBu89//vPN8ccfX5aD6Yh9JO2pT31qs/rqq5e6O+vK1nIDaAxhuJg1Xn/99Zt3vetdZQnQ17/+9bKvxZGwlo3BMZuvx5BbEK/JrKPYcccdy+xb/mO+v39InxD/3KcRtE2jS/x+vuZCI3FzHyUHY/bh9vTd+tHkWa9DZoL012YJLQXTDtSBiuE57MTENddcsxxxDLdNN920zLzMej4Pl2g5v0l/r2+3ZzjLzulQ3tEhzIzQr6wQsRSfvkU3cNFDpnXompF4//t7A730IgOu6OHDOwcKMZoYKHQX+p8ZHsvoDeZaAnbwwT2dz2wEZxkVQ8VnJOyDoQsZ6KX37bJLzzATrq3v+M9QsAXAShQzKi4Dsy98Ye+dZVx0OnTwnj3V4ua/FSkGzBkrZqMs6XfoEd733LOXpvf0pw9/uKeT+fQFnGFID8MHvKM70sFchx/eW6UDexf91wA8vPplwdMKdHSVffbZpxx0Yy/tm9/85tI+aYuHtcdL/jik0IiAIKfh899yMJaQRtsoo+eZcMCXCdZROhJYxvnAocKrUOTKKABlXWbh38ZyMywMA4XUHgtKN8tY5vMzXch4YAmrcNY5tq31Ngh4UZC89zzItQuKMAylHXfsbdoyJcnhWVpO/7KBvh1nEE15pVDjmQFENjyg4cKTAm8KVgV2apo0WPx4UJEYPMqDJWBmffg973lNs/XWvYpoTaZKbHOZzWkaqSwLQ99lCdu73nVb2aWj8jGmBh0wMEie6tcJAfX0wgsvLJ3u7373u3Iq0Ite9KJyWMaqOjPQCaghkSgnLiOuBmRe8pKXlFmXz3zmM+XMeMvrNK6rksESKMiddj5KWu4J465fEM41rRNHfJf+RP8zKI1xdNt00k+Ni9P/PjTwMY6GsC5OPVoIDrYUb84eLYOLXbBeCLLOB4+WhTJKTz755HJQgfaz7vEbgSxdw8yA5UZ0GLoKxZ8+oa6401ty+Z8LWTpL/yUe5bvt3/7vvXfSdplhoB/xtwfX0nYbzi1pp9sYdH7zm5fRpN8wUuhK9Di6EDr4slnerIT9JeIxbOiV9BYDtKn30oqj81hVYinXf/xHT/fCk4Fu4RkJr3pVT48UzwmsPjYeh7bPZ5BReBi63vOenr75jnf0DCsrXxhGDCHyMUYsLTOgDA/xySENS9ukQ3cljyV1wpt9MaDv23r4XclOW2QQxVJ1B4GkX2BvDGunlljjOsilgUbEpl2jjvyMQLz+9a9f+qGXQXFXuB+FXKF1xcnodsGKf+4qkfcuU78UeAWGRSyjFd61126a887rZbgN5Qo3Jd3JXoMMCH54Qc+GdJVXgR7lUqkV7Db/iZPKnv/D7ni3PA8dMzJmjIwqqEzu6NggZ9ZEhfXfgQDbbNPjmd+xx/aMNZXT6RRmlsI/LFQ0FQNWRgGMBjBmsvaSzBou2KHfdoxAhiLjkDHV/74dtj53RkAdtRxMnbVR/NnPfnZZClZHVqeDNA0mw+TJT35yc/nll5eP7mkvx20MnC6llR86bb2PAltCpMO4//3vP3Q0Xl+gXxCvixMXhrmC9bS0lOnwPm3chCdLBuTiN+iOZwrs1VdfXfo+m7SVja68D0pjvv3I5Shj7QCDxUk8s8zvfMs/Lb273OUupdwbiLVfSV1P+aq4DUCTopzv31G6zaQwAug02gYKtDCeY2TkHcOBbmWA2ACzWQbKt0Fmg550LXEY3HQHS8rpIpY40WfQpEOgFx3Fve1HJ4pf2GeoGHimxxikttrGs3j2sliW5dlMKp2HkWAvDZ2OTsXhi0taueMl/vw4cjDq6Dx4Jg/Zg4P9wPaWeM/xb9PDPz9X+5nhsddePd7xb+bE/h/0LAEzOM/w2mGHZattxA+N8NdLdaX8ar/33HPPpZ9JUdf0CcMmUTC5xBKRYU5kjbQKbMQRQc8qr4beNRMO+F0zQCFSGBVWzwppmx6FnP8rXtETNe8GpcfPzAzDY9NNlxW8cSCF5rhwo97LCxuqGFNxjBFX6JspsjQsjr+KwJmOdIAAl/B51/Pt/UpHIxWjTZjgBjsu8Xv/er8q5HOfu+ydMNUtFwTUU049NRo8M/V0uUi7/IjCL21dZqeC7fJLdeVQJtd3v/vd5vTTTy9tvOMmtfk6lX5HEebftVzpVyiD6Hc9sQq/6CR/+nmc5D8aZlcmkYXB4qhrM23S9dHkx5rRn2GHTx9DZKjEAJ1hdlc6a8qBZWH2J914441l0GdVre/zAraBSvoOBZ4+QMnX9/jMAcPDYDjjgJFw1lk9pdqArj0sBkUp70b+GSTCGcykzFsOJQ4dgUFjpYcwlHJLrhhFnLSkTWH3nHv8GEzxi8DoGJyl92ZvTN5JT3vnbtDazIQBbCtO6HTkMXOBR87sy4Yb9mSRjnTNmDAa6EgGi8nH4Gk7/mjjGU4xIoRBg/OO899z+4p8/Cw3Qx9ODBXy4Z9s6OLXf2HJEOx61Ff6r4+0aqe0ry7OV++164PcEp3GIKeiqsDpEIRD2HF/jBjO8cZGJRa0CzC5y9g8dxFM3LnE75KmONJUQEc5YWJgJE7Ct9+N4t+7/veD/EI39wGKT17Ve0WgIrByEdDeO/72ggsuKMtgGCODDBbh9AN534Xr9CmhMaxzGkVb55Y+algfNiq+d+KjEz5GhU+nqu9jsLlm3THGzJpZbmHpRRecZ13G+eYPVk5StKzWLLUyUt0YBCjM9qr4bp0l9pRmyr0rsyyWo/tP36TcM1gsg7f3mNJt/4sZFwaCPbcUcDMtZggMJjNmKNtmDRhKdA55Y6WHFR+cmQppiEf5Fc6qkuyd5WfGw9J3e3wtZx+ml9hzYoWMVStO3GLk4PuDH+ylIT2fmfDe3mMzTNIiFyPEsiyym+mQbrscSRPPjCKGnkFxRpp4vq9n1gdNs0q+7wczS9Rg5VAAdytZxGEcws1Seyet0cfbeqC8MPNieRt5LQVrv+8ht1J+1S0fau5vgw0Osj0GuakW4yKcs+gRfOELX1hOzRlEeMH69SvjC1aQEYyPknHUuxEk66uKQEVg4SKgPbf0ba211ipLiBgBVcFdlp/w8UX0V7ziFaWDdTzwsE51WayV90QZMIt1ww03lG+MmDWY1unvXcqBC01X5PbM5X07TPtd0k38/BeeQy/PiZe0GZNJL/HG3UMjNMeFz3vhzUbByvHVlCmG6kLZsxQ5VuidUm4pl9kPjsLMqFA2KNwGt80yWC5uuboZmSijDADLwRgHlltF90hc9OLvXS7x0RGPEWNmh1EgPcvAGAKMHLMowljdIbz4eKHwW41iFiJp9rjv/eLLRbk3E8JgYOCQzSqUDFZIRxjpujOQrNYxg2LGSJroSJOhwVCAA+MifFrZwt+mfenYc0JmS9PgEOOC8cThl1FkdseyMLMmDBf7dSzFz57kXugeLmaELN+/tb7m1cq+q6cHHXRQGRiwd8znFtT3UW4qg0UCpph9n0Aj8jes6eoqAhWBikBFYMEiQFFz2Z/oqu5/IwCf9keT/3eI2fHRT7scZ26WxbJv3xQhw6ROfGvJfY/Ix93MPJh9o8RvttlmRYm3oV8aPkJrpQX64lHyw0Pb2ODHEOHCS+5to0V8n07wEdPnPve5ZZlWO84oGZJG6OY+Kk7eCWuJYvYmmXE0y8KvugEIUIDNCmRPCGWdIh6DhPLpOZf/LuVQXKP/Zjwo/pTwlE8GgcOBGBrZN9JOnuFgj+0zn9lT7MUXh/FkHw3l3lJ4hoEZl3zQUhoUegYOg8DsR9IMfeXTUjWnjKHh0CGGSJaP2fDe76TDMPENOrLCwAyI2RFGy+Me11u2xZ+BwZjyDAs4xMggl7AMLTM2HOMHT2ahGCY+hwET8clhhueYY3pL0d7+9l56wR9tFyzh43mGnLbAMmRtisGVHXbYYX4NFtaPEbiXvvSlpcGx/qy6ikBFoCJQEVjYCETRoyxSHjPSNY3Ct7ARGM19Gx8hM/I/q/jg91cUlYYOc6epZgkoEjEa0DjllFOaddZZpwxW+s8IYsA4Pj2zEDFEDGgeeeSRzbnnnluMFieKGtg86aSTisHTxkucBzzgAc1OO+1U9gPBVLoONnAsu6OY+TEa4siFRsqo2Q9+7fz5xje+UeJtvfXW5d5OM3SG3dFloLhbTsdoS5rD4ixa/yjDTlA1A5FviFDevXOnbOfyn1ERI8HsS05opYDHkGFk2AvCz6xDwgdoij6Dg+t/lzC5U/7tJ4mzBMteXsaBtNHi8EapR488DiAyM+JULrLFCAidUXfyWnZmuZb9Ov7DwywHo4MhxtCwab7fIIMPA/Dzn+8ZGowh6Tv9LLNYjCb8t2U3M7P77j3Dr82rtO1tcbJrO/wo/lfQO3V72223LYcEOZFzkpnMqWZYVGKno+SDShKsriJQEagIVAQWLgJR+JwoRUmzHMxMS23fl+UpjIy4G/WnaG+yySbl5K1plOFl1JbvU/LTiW+cfNR3T+rEZzT48CxjwzG/9q4yJhgrNqSjabkZXQAG3nEUfLM5L3vZy8ryqlNPPbUcW8q4sYT8cUaQb90/5LtG8EQLDemiw1jxscvTTjutHHIQ3iOX/75K/6pXvWqpkuPdpZde2nz0ox8tH3ndbbfdSj4JO00eCR9+rr/++pEnFhVBFvuPGRKzLBRwMx2cshCDxX+Kcv4rh1GcKe+MFgaE2Y44+1cYDb4nZykjw4FLPPc880c7Lv7te56FYSy4xGEIW1plj4o9I2aI8K7eMJrwxOARv00jaeXen77/jli2F8UMi9kWfoylXXftGXYMsfAROu5kPeKI3kZ/e1LEpWebUXLUsc9KwMRnJaJ/480sIIPRbE38pclgIWP82mmt5Gf10uEl6m7qaAY+hrE2lcGCSJv4MKLVvyJQEagIVAQWDgI6is997nPNcccdVz6W98lPfrIouelIFo4ky4dT/Z5TwijElHIbs12z6vDL+OSmMVjEc6Svj0OT78ADDyzl4GuOwy+HFv2p+G+33XZlY3pOTRPPN4t8bJHSb5bCaT/S5pQjfk4ZZfw4tMAyEEewZ5YErj7SesIJJ5R9JNa0+0irGSJOWF/G3m+//ZoNNtig0Oev7FqmftlllzV77LFHKceJUyJO8YPPtsGyEA5XmEK8+Q1KGZY3lktRoBkf++7bU7qjxMd48Q03G9aj/L/udb0N9pZpmUEws2CGw6wKA4Jhw5AR3kfAGRAUdTMSw4wHcZS3GEXDwkHBu8xK4PujH22aQw7p+ZPL6V9Pe9ro9NAhJ77xR1aGiA313/hGz4hj9Nj0zjhioKCd5Vl4zQwSnhl+DBIb5B1gkOVoeDVLtNtuvZkW370x88KY8U5cBp6TbCN/chp/0oavcDPmUvexZTBknJvKYNEwOCXFyI2K7UNUo45FHpd4fV8RqAhUBCoCKx8B7bmP5Dn+tn6v43/nB3wo207bosQuhNMxu86wkO8Zz3hGMdAcLrD77rsX44BRwsg477zzykdU9f3/9m//VmZcvvnNbzbbb799MXYYHmZohM1yLnFd9AfG0Pnnn190h6c//ellloZuYTbGrM7+++9fjIajjjqqzLDYIyMuY8bpXa997WvLx1vlEn8Gko+5brTRRoUXecXl/r9zc7iPODHwzCBVg2U4VkU53njj3rInijHcDzxw2RKoYVGFc9lrYt8Hw+Gww3qnfNmUbmbBaWE+k0A5d+IW48WmfUuh+l3oMX6Ey36T/nD9/ynwvumy33635Rk9rl/574/vPyPFd1bsIzHLsd12PUPFhyvtMbG535IsRpjN/vvv35MdbQbJVlv14pmhsszN5zAYIgyU7G3BD7kZhQxEPAvL338zQ7695wOV/fty5MsJJ/S+gWe2aIaMFnXXrL5ZVYMZk/Q7UxksCJvC/djHPlYaide97nVLp3gH5WX1qwhUBCoCFYHZRoCSRul75jOfWZbaGPUyQt1F4ZttSbtzB4v11luv+ad/+qeiJPteB8xm0VEEXF1mWMhpZsVoJ8NEmTCzwVBgVKBryZfywTAR3nIvhm6+nyBde1iUI0YeJ54lW+jaxG9JHee9L11TWBg3dAqGM8Nm/fXXb77yla+UPTHC+u7Nzjvv3DzykY8s9MKPfMBHrkK44w8a/TMseK9uAAJR7Pvrgf+jMEs8M5SONvafop44/ttQz/kqu4vjn7g9n2W/FHfKv5mJhBsWdlmsngIv3TbPk8QLDTNCT3xi02y+eY//xLX3Jc8Mk513Toxl/t67GFl77rksfvYC5X1immHy4XIutJ2S9s533tav92/ZLyzzMe9+mstCrfAn9fdd73pXGdhYe+21yzLScUfUT2WwqMwIGlnRSGiQqqsIVAQqAhWBhY+AjdT3uMc9lip+2vvqliFAqXZS2HwoxsuoLr8nG+LD66R5STk3q2CJlfiO+LVEzMb7KO4wYKDYMM+YMUr66Ec/uugE0rHy4mlPe1oxPGy2j3MiEAOEcsLgQZ9zEpi9sUZYHSfMUWacQqY8/vVf/3WRg85hwBQ/jBr6h7QcBBRFZ1I5SyIDfsSPIWqGKHtzBgStXkFgUDsxyC/hc58kTMJOcu83nCaJI0z4yH3SeAknXte4bRp5HnYflo7ZmgXo1DWzmAYsXJPU3aksDiMP9ZSwBVgyKssVgYpARWAEApRRI9wu7byjXblJOpERZFepV7CxEZszw2JGYZYd/sxUyNsYG+P4Fc5RxT/5yU+K0SD/GRKWhlHgGQlO7zLbYRblpz/9aZlhecpTnjKyrKBjmZlZmxe96EXF4LnooouKAaKsMQycMEaBwYM0bNK/4oorSllkHKFhw7+lY1deeWUxeizNY9zMl2tjxUDN7M180a90KgIVgR4C6tYLXvCCMkCyxhprTDQBMpXBosEwCufiMhJRM6AiUBGoCFQEFiYCUdIcB2tk3ZKfV77ylWXUWptfndUavU33xxxzTFnWtMsuu5ST1GYRHzy57n3ve5e9JBT6SZV64Szp8iE3BgrHSLO3xB6R6667rmFoOK7YTIuZF7MbOYBAuvbOfPGLXyz+Zmscicyf3uBUMTMn4Y3B4dmMiQ+XHn/88SX+mWee2XzrW98qRzNb0RH6KauWhQnPKJtPPQR9xpO72Z3M3NQ6UBGoCMw/AgY6OPXNclH3UW4qg2UUofquIlARqAhUBBYmAhRViqjToCiWjpusS36X5aWOlCLuuF17N5ySBbP5VJaXpTb3JwZClq9RwCc1WMhjeZcRT6eioeO6733vW5Z5mXlx/fCHPyzlhJLBCGmfymVfiiVj7sKKzylPjB5GjlkVxxrbF2QGR7rCr7vuumWpGEPnZz/7WcHafpd8zFE+iHf55ZeXmUCzgfPp0G8bLG255jOdSqsiUBG47Qy+dmJeDRYV2cY556NrYIxw1I9H1mJXEagItBHQ6LiiqOTeDtP1uU17GN12ozcsTNf0V9V42nPKIgXUDIuRZX7V9RBQjiyLsoSB8q/fWxH4pLwnH/AxrkwnjJkLblqDxcyCo4c5slpfbgaE8m62xUycjfP2j1gmZ0O+jfeWbQnP8DCrIk5OKivEGgcaPbgYQ4ceemjZm2ImJ/Kgb38Lfi0FM9tnBJaRwzAJFowZ+1+GGSvyJXkT2kl/3F0aMVjwX2dYxiFW31cEuiGgrTB4oT4bJFP3h9XppDByhqXd8XuWgDWrpsU1CBqlarAEynqvCCx8BFLnc293+PFrS5n3uXunnXBpI9r+g+LxC93cE25QXGHQ9i5KScInvnue22Ha9NrPib9Y78Fyq622ajbffPOC6ySzKzCeFsfkS/s+LY2VkU94pGxT0rkVZdDBifGgHOvM3VOmg1vu/biYYeGmMVhCo03TEcT2rkqfoeAbKP6bkbM0zp6XD37wg81ee+1VDBRGSmZN0GnTQt8MiT0oDCGykFGddnf5totBUcsS7WWBdYwIyg0DyZex++mizS8YDXof+YbdpZ+lKXVJ2DCUqn9FYO4IqGsf+chHSpuy4YYbLm1jRlFeonIOcoilEdFYpBKzhBgqGi+NUnUVgYrAqoGAOq+uW/Lizun81XVtQfwibZQDym1GItGgVPjWgg2/r3jFK8qRpYnjnnjuaWfESRuTMFE4Qt9/6+otW3I6kSNXrWHHLzoujoLnRCL+ZoGN3IaWu/9oxq9Eqj+3WQImL+DTj1HyK3D1v4//sHviuytPLmVrWtemMy0PSSs0/B9HQ1iXcOqEe/6H3vK4py5R0s2AMRYs2VLflOG2ct6WwXMMFnnZX3dH8SquOi8NMyfqmm+h2IT+vOc9r2yMVwct1WK40Ae8cwKYNM2wmJ2w3wVGHJp4+PSnP132hnzgAx9ojj766ObDH/5w2VxvL8vBBx/cnH766c2+++5bNuaLo2wwXnzI1KwLt9lmm5V6TfZ+Z3bw9a9/ffFOPvWHGfYfr3iEuXQZLO22Y1i86l8RqAhMj4D6aRZYH669UN9TB4f1CUt06oOciCK5a/A4z6ZtNJwqskatuopARWDVQED9puy/+93vbi644IKiDFmL/jd/8zfNGWecUU70UefTsKRT32233ZonOov+1q/VOpqUMvKGN7yhbOAVPnGClMGODHhcddVVDQXGyCuDBF0KTNJ6whOeUEZyKUVpj9I2WUvv6+OWqvDj3I3ecr7eLm1OA4kmpcuJRdX1EICpi4EJR8/2MAxT+IJ98J4WR/FclEP9T/JnUjr443Ifp4z30088NNq8DEtffOHUDadYMRTgo4yOc/1pC99Of1x8YZVlJ3LZiI6ej1fusMMO5WOJ6pBN6Tp9ZVuexVluxZkVwTulYBInDccZv/rVry68+igjv8jihDTfQ8l/NLfddtuyPIzBIbwPSTJg1lxzzXKimoFOxsmznvWs5tnPfnbh9VWvelVZXsaI0cbsueeeS8tc0iOP+r/pppsuxc07sg5yo94NCt/vx1iBF53H6pFJ8rifRv1fEagIjEdAXT3ggANKH6DecdrZPA+isGRYhdRQ6gisUWWcRFloN7YSrK4iUBFYNRBQt11GFv/5n/+57GWwyZifUVNLNKxdp7BpWBxD6uvTMTx08paMMlYookccccTSpSFoaE8oxU4hcmTpc57znNK2UAze/va3F6XKaUQUtC233LKv7jr2AAAgAElEQVTE1caIa0RXfN9kaDubdt/3vveVMMK5KGeOPtXwUaQySopWjJbadrVR7HUUxx57bFlTLD/f+c53lja/rQCLAV95yz+zarelNP6fcuISX/8zbV4oe8qC/MWH8jjIodu+hEkZQSOyUH4H0WjHFd6RvJYwSNfX1n3YsB+f8BGZ3Nthkm54SfhBd3HDr7u4nM3oBx54YDFALFNTB/BiD4m6q67C1mwDIyV1LidtDUqr36/Nv3f5n+f2/8SVl5YVcvhlnMRl1sN/cV2MLN9rccU/4UM/d3mEZsLFP+Hn444+Y0X7hDf1YFC5mI+0Ko2KQEWg1xbon13aVXXQc7vNbOO0ZFTFTyRhXBpM56AbheOMwmgcq6sIVARWHQQ0Gv1XpKNoWruuDTDa7H++o2DJBgPGiK9RVstXGDgUKUouY+ass84qS0UoWZQB7Yq03ClWTv/x/5xzzimjqKaMH/WoRxU/PHgXlzbJQSDWzUehs4TFCUeUWstJKG/CuihwWdIaOvXeQ4Chl7Y9eLkPcnk/6N04v8Rt38fF8T5lkkKprOng0KDMuvc7fkb22/ss0VBeyOpZuRR/EA3xLXHKN0D8F0c5RYPTRw5KO+8c/5sTrvgxxvONk0JgxI++lQEiTc49z8o6HHxEkSH1pS99qSzPskTLDIw9HpRusyHqqVlM76Zxw+QaRCNhcx8Upt9v0rAJl3s/nfn6D1vL2K6++uqSZ/CrriJQEVg+CKhv2iZtGV2AocKp58Pq+uChqSH8UQAuvvji5stf/nIhuOuuu5b1tEOCV++KQEVggSGgEbEsi+GhAaGcUdr4a1goeJdddln5PoJZVyf4WDZmZNLyLJuSd9ppp2Is+BbDcccdV9apmqk1I2MpjfcUKkpiHOWTUiVtBgaF0Pp5yp6vYA9z2iTxGEOeObR+9atfFX7RiWGkEXQ867SK27C0VxV/uFC87Q0wCCVfY+TNmozy2NfOP/WpTxVjWbkc1rkpXw4ReNnLXlbKgLDiH3bYYWXTt//D4qPpsgfKkkf4MD7sm1I38p2RYfgIL/03vvGN5SOLwknLZnMzgviIgT2IhvhmT6Qn3iAX/t0ZL9/5znfKHhAzHb5TYjkWRwln4A2jM4j2YvSDDwNQ26GdUg+Gla3FiE+VuSIwnwho/4488siyisug0lOf+tTS74xKYyqDReVlEVFMNKiUlOoqAhWBVQeBKGr9d7MWJ510Uqn7DAD13+wKg8CshQ6egsS4McPCqGF82M9CAUCPAsZQoQxT2CgI6HAMI6cNmZlhBHGWgUlL+H4nbkZmLB/bYostCj3+Rs99dI7hohGkeHB4kB6awvlfXQ8BWJj1MvsUnGYVH+Xql7/8Zcn/UfmIf8p6Ww7PRtCVSXHj2mHafvq7vFO27eF0oIOPH45Lm8GiDLadOiPtlP/2u/azNM2wGCAY5YRzKde5C+/ZgIPZIbOWjHqzO7NqiI6ScUW908YpV9oiBxvAP/iuKB5qOhWBxYKAunXiiScWO0K/b/n2ODeVwaJRVJF33333UpFNPVdXEagIrFoIWPtO0XennMVRsixn8W0EylCWtxjNpbz5PgNlTDthTT3lztXu9C05ssnWjAt/pw8ZBWfgUBgcY8qgMLtC0bK+Hb1BTnh7VWxIjmLIiKEUio8ngyvtmRy0zLAYue6yf2IQH6uSXzuvZk0uvMnLxz3ucWUPiXyO3yBevTP7l/KTsC95yUtKJ6l8oOF9u4yElvCMbHcXZwbquc99brPNNtuU//FPnNwTx8hhwrjjx/4XabtGOXsozC468GKQSxp4t3TMgIGLkaKfxivD3b4w9VKdQJO84WkQ3cXqx1DRDmlDzBTDquK0WEtDlXt5I6BuaUsNymgXB7XB/TxMbbAgrCHkMnLZT7T+rwhUBBYuAgwTipxL580xUOxJMaPCCLG0yuZfJ3vZZ2L02UxHZl291z4YQbHUKN+vMDpuTwoDg2FiZsZyFqeSWXJjw779J2ZJspE4Cmc/okaLhaFU4hmv4lkyZE8L5Q3PbcVDI2lfA3mqMtJDlOIMO3uTzHLJN3kpf2YBo/Anj13Kkg3kMTZG8akTJENbDifakdeVPSxocO1w/ic+HpR3y66UXTN6MYb64/RQ7f2GbvwYFpaZTeLQJSPnOfXAHV3lmnGiDjDiPPMzMyAPYaUOwIvBYlmYk8NCZxIeFksY+Ws5mJkz7QPczBSPytvFgk2VsyKwPBBQt5wOqB3WzmqX1MNRbiqDBSENZRrhWplHQVvfVQQWHgIaDLMgTgnTgFB2zEao64wSBolO3aBF9qQIY7bCshPHCGe9PMXOIR0+NMtAiJOGE8KcIqShMgtilsbHoxgzjm9ldFAsKWAUr36HH+2QEWyXMGZcvvrVr5Zlqy9/+cvLaKl0H/vYx5aw9t5ZDmSEPW1YP93F+l+emK2CkY3ajpKNsr6yMdGhMUDf+973FoPUqJyyoXzicdCSwWE8KzcJT2b/J6GBB8bc5z//+WKwmKXz5Xtxp3F4nmagT7riRFZ3hpJjuS2jkFeWZKp//byQTd108IUjhu2fiYHmXXU9BJQD7Ye2QdvF+DNDVduIWkIqAssPAW2QQQH1j6Mv5HlYqlMZLCo1JYViwhmtMWJUXUWgIrDqIKBO77PPPmVJmOUoGhYXhYii6CNuZlBOOeWUpR99896opI++GRXWVji9yHItm5ZjsFDA7IUxiikOBcx3nfi7GDi+rB3jJUoY5SEj6kE6ioa0zNzsv//+xZh605veVAwfszeMJR+x1G696EUvanbcccdEr/cWAvLByLx8cdAB3OXPrDhLCBm28jlH565I3mDBeGZQK4ftk7+WJx/yRVr2FpnZZKQwwBld8sj7UflkWSfl234wJ+/52KN6Wt0yBLQjloPlY7P22ZnBG4Xrstj1qSJQEeiCgH47+/noB9o57dkoN5XBQqE4++yzyxnwCL/1rW8tozejEqjvKgIVgYWBgI5bHddRO9LTSHAMBhLwN2JrU/zee+9dDACde5w2QcNjFNfyIqPRe+21V1H0xEWf4kk5MDLMzyWe0RUnEH7hC18oipl9MhTopGsvi/j2zSQeXv33rZhDDz20KGZGvsMzw8tyNP8ZWng1oiM9tNCpbtkyKIblC17wgoJLMJwFfOSVS34zFvJ/RfKmrFh6xbjmlKEVUX4YJgxt6THapel5Eies+Oos491AgDpmZmhF8T8Jnys7DMXJIKzlftoHe3Oz4X5l81bTrwisqghox//f//t/ZZDSLDCdYlzbNpXBgpgKrQH0PM3U9qoKepWrIrCqIKABsSfFyUhGkxke/Dh3RoUREUvCKP/WfFtCoT3gzGKIa/O9vSRve9vbyiwNP++yRMwzxS+NEyXU91nMhmi4tt9++xIvCqG0zbxQKoywo21JGv4cL0uRPfjggwt9sz/2xAhjhsfyGetkP/vZzxYjyQizUWczRIyrpFEEWOQ/UYaDSe6LHJal4sMjmOS+9OVyepDOXL4HIj4FnLFluZ+9Yjm+epaM0uUE30RktSNmkrUtZrEc/FGxmQi6Gqgi0BkBbZPlrAZVMpA4jtjUBovp6Fe/+tWl4R71fYRxCdf3FYGKwGwhoAFhjFhCwrgwIstQsJmX0WAz/CWXXFKMDV+9t8zEB+sYGQwIpxExYuwxyIZko5c2K1OWzIZwm266admzQimIIcSosaeFMqUBw0ucZ4bRZz7zmRIebXss7KnxjQ00XNagm72xB4YxZFbG3hhOm4UP3+CwSd/SsCxTSzqL/W72yyVfTM9z7XxY7PhQaB2TzFk6Z9/IinBzyQNx1RNLySjlVkhYUmf2kSE0F9orQvblmUbaDaenacvMqpg9NhgDl8WMzfLEvdKuCEBA/fItR7qGNioDmKPQmcpgkYATgVxJcBTx+q4iUBFYOAhoMMw82MRulsIRn/lqNkXWCWEMCp26toCBwc/FqLGkiEtH746mTaxGeNuuHYaiYBMxBYJ/3iW8/0Y+/+Vf/iVetwnjfeIytszeCN/fAFoKY9Yn9HNfSnSRPsCOYUmhtU/EaJeOpN9wXKTwFLHN4qkPZgFh9bznPa/sZ1kII/GWktl74zKocMIJJ5QT+cyMLuY6oNw7qEOe+vCsmRWDL7XcL+aaXmVfUQhoe3w+gVMXrbTQzo5yUxksiLKGNNicEcp6ksYoeOu7isDCQUADYuaCY6j4kCDH36yEfSWMgBgCOnYzri5hXIPcqHeh37730wjd3Pvf57+Nsrvsskv5OyjNcfFDZzHeYWMJ3fHHH1+m6Z///OcvRhhGysyIt3RRH7jddtuNDDtrL82AUsbNkJLBIIN9Lfrv1OdZ43l580OPYag4PMRsk1mo7O9Z3mlX+hWBikBTbAl2hWucsQKvqQwWFVxD5zQNHZxGu73ptmZARaAisHARGKTkj5Jm2vCjaM313SzxMldZVkZ8+FHYzK5Q3rLBe2XwMotpUuotgWYQ61gZ9DBbCA6fBhd9pNUeFqf0WcrpgIpJl2IsBDmn4ZGCZImqvW2Wo/oGlFle+9sWSr5OI28NWxGYNQS0ow7ZsYfMyo4ckDOKz5EGi0odl+df/vKX5WNwGnAdXDVYglC9VwQqAhWBhYdAFDRL98yWadsnWeqkT0jcSaVOP9K+d6WRNLvwIa54k/CRMJY9Pv3pTy/J2r8yLd/hd2Xc8co4oRQ43thFWX/pS19a8tv7hSTPXDCkKFl+YmmcJXLK+jbbbFOWtS4WDOaCX41bEZgvBI477rgycKDvsbc1blibvoR1M8yp2CKq3Cqyu82GTtpRyes3WIYhV/0rAhWBisDCQUD7Tgk3Eh+Fbhj36ReiyA8LN8zfTH3SsLxqnJIovL4n6fkvXv7nPiy9Uf7iojcJDWFy1Dejbhzfo9Jd0e/wimd994UXXlhmWCgLZllswl9o8nTFTx4qe1n+6FCRLbbYohiikxjpXdOt8SoCFYH/jYDPG2hTzWxqh7VDo/qEJSrvIJeKnXvC+eiUD0Zavz6X4xYHpVn9KgIVgYpARWDFIpA2/vrrr29clFt7HnQern4nPJc+of/9uP/ioZF0xyn+CU+hzFK1dvxx6Q17Pw0NPFg65GhtfFge5ujvQfgMS29l+8PZ6W8777xz+R6LAxYOOuigsrzN3o1VfbO5/KYUWSXyiU98opwaqJzvscce5cjzhZSXK7ss1fQrAnNFQH3713/917IkDK0MGGhrh/UJS4YZHancjnI06ubi+McNI5r39V4RqAhUBCoCs4+Adp0SZ9TdzPnhhx++dDahzb1wTlZqGw/t9+Oe06+YMaEgG10bpyhSMp0kl6N47bMRD42ufOBzUlmE04n6GOp73vOeMgK477773mYJwzi5Z+U9rK0Xp6Tvs88+zbXXXluO+n7d615XTv+E56rYrycPzago4/KSTvPa1762GGxRlmYlnyofFYFVHYEMoKibnJkV7eyoPmHkHpZ2w+VZx8GAyfcU0oGs6sBW+SoCFYGKwKqMgPbdkjAf8jJz4H+7/R8k+7j3k8SZhAYl2xG8DCodWpTqxM19UHqT+o2i4Z3L4J59IDpWneqoOJOmu6LDhed11lmnHEN+yCGHNKeffnpz6KGHNi984QuLMZNZrBXN2/JMT7nxDZ1jjz32/2fvvqOvK6r78Z+s9ayV5Gvi0tgwosGuCErvHaRJryJKFQUjiII9RtGVEJJIYlQkikoTqQpIUxAERBFEeJDeBERFohRFwX/y+63XkP15znO5/fO5fc9a555zz5kz5T1z9uw9e8+esicUYXennXYqJnLqmyERSASGi4Bv0r5pQdO70fD29KVKmJcRfssNInvttVfZZG641czcEoFEIBFIBBYSAYzsOuusUzb8HDcvYcrmqGtijEXDDPJnDv33f//3RTPDq5R7kxiUm9C3ww47VL/4xS/K4vPvfe97ReNl/x1mUiEUTmL96mU2e+tgzmdzyLPPPrt64oknise0HXfcsQjp9X5VfzevE4FEYHAI+C5PPfXUorG3bYI9WTppOnsSWBSdduXnP/95GTx8+BkSgUQgEUgEJheBYLzNuttw0/84JrdWC1tyeNgwmdMZYdLxUX5aogMOOKBojkxCXnrppcX0btttt50aTUvM4nLlfNZZZ1WPP/54tcEGG1T77rtv0drBIUMikAiMBgETJb7JVVZZpezz1qkUPQksZiIsuLepmA/9b//2bzuln88TgUQgEUgEJgABJr8OdD7MZMaBoTMTh/FkxuOsbMOeFY8yMAcTmC8owzjg00/XinLzzrP77rsXpuHiiy+uLrzwwurJJ5+sttpqq+JYIEzfIn4/eY3iHf3EYYF97Dtj409e0tTXPjqT3H6jwDTzTAQWEgE0hVlm7MPSDU3vSWChrrHvSu69spDNlmklAolAIjA6BIIZ/8lPflI2BrbA3Sz7uKxlwHhaf/D1r3+9MNObbLJJ9YY3vGEpBzCDRg9G9913X3XVVVcVRjj27ehkwjDocs03feWnNdpzzz2LxuWiiy4qazx4Q9tll12qFVdcsWhgJqme2opgaRd7JifajLDL5NE6nVe+8pUprMy34+T7icA8ESCg7LrrriWV+GbR+nahJ4ElZi0iwZyhCCTynAgkAonAZCNw/fXXl/UMFt7bIDG0LONQK6bIZv+drR8hsAw7WO9x/vnnF2bYBps2kpyGYBzn1IDmQdtfcMEF1Y9//OPq4YcfrjbddNPKWo/QKI3zmB/8CeGEVkVb3XbbbaXsBPBtttmm4r6Z8DVpGqNp6GdZh0SgjkBMlLnn2tEp9CywmHm54447ygdv0OA1JUMikAgkAonAZCPAPMhGXuElbFxqE4MZhpTJWvwfdvlgY8zDEI8bRvPFAhPP3TETDeczzjijuuuuu6oHHnigHNtvv30RFAks8B83hl+Z9A9CJS2RXezxKoRKmiKC1/Oe97yxK/d82y3fTwQmFQHf7P33319oOkcvNL2d6EpPAosMbr/99uq4444rKtUPfOADKbBMam/Jck8tApgKAXPHHt2+GWH334kgTC0ofVQsGGT4OdC/cZ5h7qOK5RV9wsFr1BZbbFFmoO1RkX1lCaKw4CXsoIMOKjeZzU0bPupjY8mNNtqorFX93Oc+V3aEx/wzF2S+seGGGxZhbRzoie/RQYC03QKtEEHr7rvvLlownoc++tGPlrpw2T1t7bWkd+ZVIjB5CPh2jzjiiPLtmgg65JBDOmr1exJYQCKTUc5yTV6zZIkTgeEhYFDGTNlcjytP+ytgLlZfffWyUdo0MtwLjW4wQuictRNMkZiYEGDMrMNz2oJ+oc/QsuhDydwt3cLwYBbFZCrCNGKkH5jtfMUrXlHZHPOkk04q3rXMhBJgLr/88rJ/y+tf//oi2AY9CSziHBgt9Nm3KTj7Hh3WFn3ta18ra1WYDCrDZpttVh144IFFqzKN3+tC45rpJQLDRsA3jEfxzfIUFt92u3L0NPJSG6+11lrVa1/72kIUuHnMkAgkAuODAAbCbMXOO+9c9kvigvyTn/xksUPfcssti4lEzJ4PmrkYH1S6L0kwQYgo+3fuXn/4wx8WzQqXvxYnT5sZrIHCEdo4dJ7won9kH3mq7+gXvNnoFwJ8Yl1H971rMmJGmxPO3vWud5U9S3wHN954Y7V48eJixrH++usXj1vWhNhAmjexWBuy0P0m+mecaTsxOISoG264obrkkkuK+ZfJBIKU9Vdrrrlm7rEyGd0tSzmjCOBVPvWpTxUNKc0uetop9CSwIEQItUMIwtYpk3yeCCQCw0EAEWBrzxbd4uTTTz+9uummm6rTTjutuuaaa6p3vOMdxbQFk4HBED/DkkV/mKHf/OY31bXXXludcMIJ1aOPPlrwXHfddYsQyEPiNGKGGSSYYUpp6OxTYWY6afySr8PazW984xtlgCW4MhGb1qDd0QfHyiuvXCYp0Q90xLqW8847r/rWt75VNDE2fCMo0M7hDWho6pMizfpQ/Z6+1xjiHkGRyZc935h9ERi1AzM1dM1z+dIIEVSsVSFo+UbreTSmn/8TgURgtAj4PjkviW/dd+57bhd6ElgkbBYuNowkFSFMGRKBRGB8EEAIzFasuuqqRaNiBpJJ089+9rPqyCOPrLhkNbBz78m2exoZ8F5aA11DLDFDbPUt2iWwYNgxa5tvvnnRLE87I0SjpK8QZvfaa6+pNH3rpV/U4+ojv/vd7wqzzGWuGf5ZCegJOkFoJ6Rdd9115bBWxCL3L3zhC6XPWDNC42J/Ngv3Y6NNAnBMjqA1IUyEQIFJccA4rvEYzDHtnfLrX/+6aFCYfjn+53/+p6Qnj+WWW65olO2vYm8VdE+6kfastFHWMxGYRATIE777br/ZngQWxOSee+6prrzyypKBzaVyT5ZJ7CZZ5mlHIBgD7kpt9ErbghnFiHP3yZyCm08D/bR5POqnbTFBV1xxRXX22WdXzOjgtt566xVbeExaMEL9pD0p7xDOzI4Hg9mp3DHQdIo3Dc8NqC9+8YuLls3aJkz5rDDFUU/fgO+CJsOeJgTcW265pdASwgvtHNfYaA/hngABMyaUTMZMADik40yIwVOYLCAE1s+EFd+hg3tlz6T7/Oc/v5h78f7FNN0+MQQjaXXL9ExDf8w6JAKTjoBv/9xzzy0ObdAVEyK+8XahrcBiQIoQsx9mOGSCQKyyyiopsARAeU4ExhCBmNlEDJhNGOQJLnfeeWexR19ppZXGsNTDL5IZXQKLRYA0U/ZtWG211QrjNe2MkPrpJ2uvvXbRJEE/mNSFbon6mCLtfoSehUijsV6dygEPGgQMuDDtfaIRn/iv3pgKLkj1F98Ks0kCCwGGNuShhx4qmhHCxq233jrXxt4L3OIa7g7MS/3smqkXbd8KK6xQFs+/4AUvKFphmuEQgoLBkW6GRCARmBwEfOOnnHJK0VYba60762SxtcjMRmOQkBBExOwGgmBmiSTE9aUZErMdGRKBRGC8EQgmgwkFRtyAb48FDBiGIAf7qsyYo2toHKGOcIfGzQo2aL4DrUf31TuOeu8Wx3MhxoleMPIOjB2YTeNPs3zqeYorT+1hpl585Yz8nXspQ6TtvW7qUs9HfMKdsgj95Bv5T+o56uysPQgS9jihoSPwO5jPMbEkzPzqV78qZ/fi+P3vf19MyzEoNLwOJuZxTYNlLZ41Me7T2DjChFXeUY5JxTHLnQjMMgK+XzTD2rSXv/zlBQr0NcYENxq/8T978sknl6hRaugFMUdYzHQEgeYphd2Z/92u7K8lm5eJQCIwYgQQBYvLEQMmQBmeYr4RTnQtFgzPCi5ovYOzAeY3+gVNQsyCN+IQE1itnjfGr/+PcSXGkG6w1l+1zfe///0iqPDWxhTZfWVw9BOUJQSndmnU8SHow8esPy1Du/f6KdM0vRP40l5qb7yDA+1x1o8If/pAHAQg18FzNDIs04RP1iURmGUE0AebuxJQjLsmKAQ0odV3/2f/+7//21ZgYUsai+uDcAfI7RKOOHlOBBKB8UPAt9yKKIxfaYdTolnFRL0x/8cff3wxFzTL/R//8R9l9ryRIRcXs+m+QabXPuR9QoLZd2sZCMyNeTS2tnciX2f5GnsMdN6VTj9BWphnabWri3jwufrqq6tjjz225Pv+97+/zA56N0N7BOAnNJ7rb0U/irNn9et63LxOBBKByUcg6Kqzw7jgbMKi1ZiwqB1RiGfOEkC0DRIGLPcMNv0OFpMPd9YgEZhcBOLbHmYNEKNuwyjKN4o8u8Vj0PG0DSGCVyYDhwCPVpi432pQaVdW7xlHIm1ptMoj0onnzIEi1NOI5/Gsl3O9HK3eEwc+NAK8gxkDXWfoDoFonzh391bGSgQSgWlHIIQU9Qz+IGhys7r/2f8XsRqeum1QYCJgxo2qFqG+6qqryq6yEj344IOLl46GV/NvIpAIJAJzCAQtaUFq5uI1XmBm+2GKG9PJ/+0R0C4Oaw3Qe5NQ1jk1EybEC61Ev5NVmP3QsBBCumFko4zOEX8hNSyd6iJfwgpvcq6t22C2FGVpj3A+TQQSgUQgEagjQFj52Mc+VtayvfrVry6bMtN0kzVajfttvYTVE3eNUNOuWDgnQQNGhkQgEUgEWiEQNMPiW+vh/O8Ugglk08opQDPGuVMa+bx7BAJvDlU4ZvA/ju5TGVxMfcZYw/uUQU6/ICwMM8DDAvDINzAbZhkyr0QgEUgEpgUBdJ23UhNBXOl3wxv0JLCQfl7zmtdU++yzT8GMn/UMiUAikAi0QgARevDBB8v6CDupd0OUghnccsstq/32268winGvVT55f/4IEApCaxHOGMYBd5p+DgGOOOKIMhtnU8tNNtmkq740f1SeSkG/hY3F/64JLp20MguVd6aTCCQCicC0IWAikmdOGnseS8kXnULnGLUUDF42bHIIrdQ2tVfyMhFIBGYYAcwdxx02mOPuFFFyNGOEQ5hhMoQ5XLx4cfEuZGY7w+AQgDuhAN68YBFWuL/uZgAZXKmWpKx8NPv29WBKRsMffWVJrMFeyU/+Nk2m5dlss82KJ7Vm/XiwJcnUE4FEIBGYfATQzn333XeOlhv3O9H1ngSWyYcoa5AIJALDRgAzjBDZ7G2ttdYqLmmbMXriiHvHHXcUj0z1BXnDLvOs5Qd76xPPOeec4q6XdmscvUB2GtAG1W7ytWnyGWecUYRpe/WkhcGg0M50E4FEYBYQqPMBrjvR954EFszEAw88UGZLJW6n+9w8cha6VdYxEZg/AtajbLTRRtUaa6zRUsOCxlx88cXVjTfe2DTO/EuRKTRDAD23t8nqq69e3Ninu96lUYKP9T0bb7xx0bDYKNG9DIlAIpAIJAK9I0A4odWnWbF1CrOwTjS1J4HFjOftt99enXzyySVhnlJSYOm9ofKNRGDWEECIHO32vCCsiJOL7IfbOwLzDTfcsExCaSPrM9zP8BQCsHjZy15WWT8j2HU98cnekQgkAolAfwgY7x+uR00AACAASURBVL/0pS+VdYE2A37HO95R9mBpl1pPAgtGgj252SXX3I9lSAQSgURgIRBIBnAhUOw/DRowLuxTYGyOoQ3N7G4vwChDIpAIJAKJQH8IGO+ffPLJctCydKPV70lgkSAzMNKQwBVZhkQgEUgEEoHJR4AG3cCBGcecpwC5dJuaEeQMQqCB6maAXTqF/JcIJAKJQCIAAePMpz/96bJuBS3l5GVB17DIBKEOd445y5QdLxFIBBKByUbAIIEZP+uss6rvf//7xZ74E5/4RAottWaF0U9+8pPqxBNPLELLu971rmqFFVZIoaWGUV4mAolAItALAkxrQ0hZcC9hEjbDxMWkYJfiEF56KWTGTQQSgUQgERgfBNB2u7jbyItpGAEmwxIE4MN8wZ5CxkDXGRKBRCARSAT6RwAtRVtp8507hZ5MwmLR/RVXXFHUOW9605uq5ZZbrlMe+TwRSAQSgURgjBGgLWfqi8Yz9W21V84YV2GgRTOgvvSlL6323HPPIsy9+MUvTpO5gSKeiScCicA0I2BS7JJLLikTQLY8WGmllTpqrBe1m0mLZyQf145f/OIXxe2oAW7NNddMgWWae1TWLRFIBKYegVirwuX0BhtsUBjxmPFqNuvlXowJ/YAT70cakX+7tMQJO+eIH+nEONXu/WbP4v0oR7M49Xt/+7d/WzbUdM/4F+Wox8nrRCARSAQSgc4IoLvHHXdc9fjjj1errbZa9frXv77Q+Hb0eNEf//jHlimHkPKnP/2pLMY0+0YSMrAxBXOdIRFIBBKBRGDyEcCAo/GxsLwVQ25AES9Mg3utuXGFvXKML63yiXTlR1jZYostSp4vetGL5kyy5lMO6fdSF3GVlUOCXL8ZrZPnRCARSAR6RwAtXXvttYvAYg8wtNw951aho4YFkTawSMg1EzDqcC6NbfaSIRFIBBKBRGByEUDXHffff3/RoLtefvnli5CA7jcG94wJ/QbvRp4xtrRLS1xjzdve9rbyHmHBPSHO7d5v96zbuihnrPFhLrfyyitXz3nOc1LL0g7cfJYIJAKJQAsE0HH7Wj3xxBOFjsZY025sWfSMZzyjRXLV3CzaX/zFX8xt6BIDRKrEW8KWDxKBRCARmCgEDBKXX355demll5a9WI488sgyKdVMk0Cz4j7GvZ9gBu0Pf/hD0dIbW2Kg6iUt4xAtjXf7LYc0aJO6qYsyW3B/2mmnlXztxxJ7svRS7oybCCQCiUAiUBXabfN5Y0/Qc9ftXOovauVLPgQTAwKCLh6i/eijj1a/+c1vCt5U86llya6XCCQCicBkI4DOh/crAwYhAM1vFFiMCzEmeOa61yAN78a40imNGIucI3/vRDlajWGdyiWt2HemUxryYlVg42TvMInuVO5O+c/S88Y2jLaMMyzqcQLb+tl14+G9iDNLeGZdE4FJR4Bw8vDDDxe5wnjD67BvOcaGZvXraYqMwMIX/fHHH18SPeyww4pqvFnCeS8RSAQSgURg/BGIQWLXXXettt566yKotJvlihoNk1HEzBp/DHKEi2Hmrb7ysyjU/jTKYv+AYZchcJ+kc10IcR2zqTRsP//5z6vf/va3ZRL0scceK2cTop4RDGHMxXYcTPBe8pKXVLRyISw7R8j2CCTynAiMPwJowQc+8IHyvaOtBx98cMdtUnoSWBAEmVjV79oAkiERSAQSgURg8hGgLccoou1xjEOtjDm//OUvq0MOOaTYOx900EEVl/rBDA+rjIS4MAODT4anI6BNQjDRbrR2jzzySDGn04Z33HFH2evnvvvuqzjzifhSql/7X++DcU1Y4V76la98ZTle+MIXVg7CDa1XzM5G/KeXMO8kAonAOCDgG0UbTFA4/O8UehJYEIMVV1yxOvzww0viL3vZyzqln88TgUQgEUgEJgABDKZJKAPHOG0IjJFVLoszTZZhgt0bdoBPeEYjvHQyIxt2+UaVX7SFM3M5gojjrrvuqr75zW9W1113XRXeSPEQcHMwAwnBwv24dpZWHHCPa+nefPPN1Y033lgmT9WZkG2Lhe233744BWK654j0xZFmhkQgERgvBHbcccdCKywvQQM6hZ4FlmWWWaZyCN1k0KkA+TwRSAQSgURgdAhgBjGFt9xyS3XvvfcWW+INN9ywMHxJ459qFxj97Gc/K44JYLX55psXb5mzLrRE3yFI8KKm//z4xz+ufvrTnxaPc4RLtun2sOHgZ9llly1mXTyN2hbBJqWEC5oTRwga3gvB58knnyxurAms8uDNzkFjE7OzV155ZXXNNddUGB/mJfZ14CqVGZk0QyAa3VeWOScCiUAdAd+kjXjREMFkR1zX49WvexJYvBgEynXMiNQTzOtEIBFIBBKByUIAXb/sssuqb33rW2XNwLrrrlsElsmqxeBKC58HHnigOuecc4qWhaUBpntWQ/ABmAy4MPWya/XixYuLoMG8ED7MtV7xildUr3nNa8rZepTgG0LrEWdY1q/lESGuneOw/uXuu++ubrvttqLN+dWvflU57rzzzur888+vVllllWqTTTapXvWqVxWBKTQukX+knedEIBGYDAR6Elio5S2UQyB89AjC85///MmoaZYyEUgEEoFEoCkCZrte/vKXV+uvv36ZCQ/mrmnkGbxpvDPWwQeTPst7sIRp3EMPPVTdeuut1cUXXzxnokWTYq+21772tdUKK6xQNB5MtmiimgkK7rUK9WeuCSr1e9rjec97XtGmMBUkONHs4E9oeq699tpSrpVWWqnadNNNi9BEq9ONQ4lWZcr7iUAisDAIoCO0orSp1qCZ2Oik0e9JYEEwzGiceOKJJWE+lFNgWZjGy1QSgUQgERgFAsEEYsZXXXXVufUFoyjLuOYJIwLdfvvtV4pIgxC4jWuZF7pcxn9MBo9ehIGrr766aFSYaRHgttxyy+p1r3tdwcn/cP28UDg1phP/CUOEkGc/+9lFKLHtgvUzN910U/Xtb3+7uuqqqwrfwlTMztomWrUf5qgTg7TQGGZ6iUAisASBE044oZh10lhbE9/pe+xJYEEgnvnMZxaCJGH2pxkSgUQgEUgEJhuBoO11RjwYwsmu2cKUHhbWQmCMBf9nDR8WFkyuzjvvvLLBqGszo8yurHmybsQ6lWA6holPtIf2oeWxznbllVcunsRsiHr99ddXF110UVmwr7zbbLNN0c7EewvTSzKVRCAR6AUBEyBh4tnNez0JLAjRq1/96urtb397STu1K91AnHESgUQgERhfBGLAYFZjETNzMO570fthMp3ji1BVNAuwoU2AF+sCE3bBnI9z2edbNoIKs43bb7+9Ou200wrzbwE8k6/tttuunAkI4VlulH0m8qZ1IXwTpKxhueGGG4qgFZ7LmLbvscceZVZXf5915wnz7SP5fiLQKwK+1fe85z3FA6SJjm6+wZ4FFjMqjgyJQCKQCCQC04GAma4zzzyz+u53v1vo+6c//emiUQgGcDpq2X8tCCnWR3zpS18qzPt73/veytqIaQ/qTVihpfja175W3XPPPUUweeMb31jttNNOZU8Umqdx7CfKpGy8hREw2ciffvrpFY9iHEzwNLb33ntX66yzTgrn096Rs35jh4DJHiakQtAZkyPtQk8Ci0EtXI8hBiSibqSidgXIZ4lAIpAIJAKjRQA9//3vf1/9+te/nttrZLQlWpK7ssVhvHE97CBPe7A8/PDD5YyJn/aAeTDe87hFULOXCquKnXfeuSKwWDMyCc4ZtB2XyaxD3vWudxWnAGeffXYRvv71X/+13FMfdXFkSAQSgcEjQEhBY5zjulOuPX2dEjfLZCEbIrDrrruWWYtOmeTzRCARSAQSgfFGYPXVVy+b8Nk3Y1SCQSuEzMZhOk2ajYpJxvC++93vLmWw2/ooBKdW+Czk/WAgCGjf+MY3qmOPPbYwFjQUzMFt0jhpnra0FZM1mpa3vvWtZS8YQhjTsKOPPrrs8/KmN71pTtMyrW27kP0k00oE5oMAWn7uueeWCSDf5RprrNHRxHYR4tQsBNGKZ/GfBw471xpAtthii3ic50QgEUgEEoEJRABzhp5jRAkt8b/Z2BD3Yjzot7rxfqTXLh3l4XXqiCOOKDP+Ngesh27SqMeP6yiD/92kQbuw8cYbl9fhNa1MLUbCGhXuik866aQivK611lrV/vvvP7fmY1LrrtwEXmtbLM7/whe+UCZh1ZOgvtFGG5VzWo7EV5LnRGBwCJxyyill3STvlJx2oKt1utyY86J2qu1Q11AL+9CdEW1eNnz0BpEMiUAikAgkAtOBAGbV0Y4h97wbBr8VIsYVaTgbf7phfo03NBwRIo12g1vEbXWOd2OcaxUv7iuzMM3MrDoyDeQK2PYFzMB426JZIihqh0kP+rZDfzrssMMqZmEsR6zRoYUhnIW3vG765qTjkeVPBEaFgAkyNIbGGu1xhLzRrEyLggg3exiDkrN4Pl4fuV1rfdjTTLib4ZH3EoFEIBGYNgSCvltQzUQGU2qvilZmYTEutBs72mEU70e+82EKI412+bV75v1maUSZPBPUNfb3wOzykMWTWsRrl8ekPFNHntAsSj/55JOrRx55pGjcrPtYdtllC5M/KXXpppza8cUvfnF1yCGHFE3LjTfeWDRK3l133XWLF7hpat9uMMk4icCwEPD9HX744WXSqj5pFDS5WTkW8aLRLAQR98ESTtis1u81eyfvJQKJQCKQCEwmAldccUV1ySWXlL22zHyh+QaVejAGWNvgvnGhn2BwkgbBqBsPUzGAxfgTE2W0M677nfWPunSTBmaeMHf88ceXGUAz8xadT0uABTwXL15c7Mo5X9AH9tprr7LeIzCflvqqB95GvWxYp56ENPu1sKvXtm94wxsmbq3ONLVP1mX6EQj5Ag2nWUGHjCuN404gsajdDEL9mWtE+7e//W31wAMPlI/dzr/p4jigzHMikAgkApOLABrviMEi/jerUbtnzeI33ov349z4vP7fIGbmn2tdgg5Gsr7oXRrzDZ3S8Nwahxe+8IWFse9G0JpvmYb5vrH9l7/8ZXXhhRdWd9xxR9kc+s1vfnOxpuhXIBxm+eeTFwbJTtu77LJL8QJ38803l00mtbV1Lr6HTv1jPvnnu4nALCKArpsYQXtMjv3VX/1VgcG31up768kgVcKI2amnnlo+4gMPPDAFllnsaVnnRCARmCoEDBCbbrppYdwMHpi4VoPGsCtuYPvd735Xxh2LwXkLW2655ea1jqbXOsCClywLz5UHIzsu+PRal8b46vPYY48VgZBDHdoFrouZfxNWpqWejfWO/+qnzxNatt1227J25+qrry7151jomc985tRjEFjkOREYFgLozjHHHFMcfNjc9S1veUvHZSY9CSwyMNNlJsZH/uSTTw6rbplPIpAIJAKJwAAQQMsdNth7yUteMnbMmXGHuQDt/uOPP14GOPeGGeCDcXVMU4AjrdVPfvKTYgr1pz/9qXj/5GL0//2//zd2fWGQ2Ftov95661V33nln2brhrLPOKo4GYDFOAvwgMci0E4FhIYD2cHbByQfTTKbCnUxPexJYJGYx5sc//vFCyMxyZUgEEoFEIBGYbAQMHgYMBxMYtD4Emcmu2cKUHj4sDOAjwGcaTIXUyWaY9lbjVICHrC233LJoWbT/rIXnPve5lf1YHnzwwbKe5YILLqiWX375IqhOu2ncrLV11ne0CKCfHF5YO8eBSTffV08Ciwye97znlWO0Vc3cE4FEYJQIYOCEOLcqC4ZInE7xmr0f70mjUwjmKs6d4ufzJQjAGcbMgW6//fYys77ddtv1vah+ScrTcwUj5tAXXXRREVp22GGHslh70vsbZoF3rGuvvbaM65tvvnkxfQuBdXpasHNNtKV6E1DsfH/vvfcW985bb711cUDQDUPVOZeMkQgkAhAgT9j3SEBfadE7jfU9CSyRaMwysfv0gWdIBBKB2UAgmNtHH320+E8PgaRV7cU3c4sxsvagl8DklPmpdQvtGEPPMBPPeMYzyv4JSZN6QXlJ3B/96EfV+eefXz3rWc8qs8wwbYf7kjdn4+qhhx4qLn/15fXXX78s/J/kmvs2fcdnn312YRisWXnd6143p12b5Lr1W3b9HSPFkoRjB6Zyp512WsEFvyPkN9EvuvleIrAEgZAn4o7/nUJPAgvm5Be/+EV10003lY+W28MXvOAFnfLI54lAIjAlCCAqjuOOO664wLWmTYhBPM5RXXHRDUwAtS9b8HbB+7HomzfCgw8+eC7t+ntRjriHyaYVePvb3x638twjAtaw2G2YtxbtlWFpBGyaTFAxE2jT5Ma+vnTs8f4X3+Utt9xStGo8YpntZEEx622v/tqaE4r777+/gtGtt95aWcvi2SS3+3j3yizdLCGABpkQQE95G+Z1uNO31bPA4sM99thjy4dLWEmBZZa6WNZ11hEIghLuzGPNQ5iKhtlExEOUBAM9LzzLLLNMSwi947A2DuN83333zZmS1dOTpllu2hczxJEH70YRr2Um+eBpCMBM+2yzzTYV8xfXjgxLEIARDcQrX/nKchM+k9zXTCL4dk4//fTCMLz+9a+v1lxzzWz3/2ty7Us4pXXkTvuUU04p7Y/u5bex5LvIq0SgXwTQoH/5l38pi+4pPz7ykY90nNDsSWBBoM2S8oPvo502jyn9Ap/vJQKzhIBv38JUXptsNMjLEDevGF6z9EyyGgd1/w32nXYHR2N4qnrb295WPBKGMAJf1w758eTzzW9+s7i75c1oq622Knbnk8xEjroPRZsFhnEedbnGJX94BCZxHpey9VoOzIJNEmkPeMcirNCsTXq9esWhVXw4hNcwLo55M3Kss846rV7J+4lAItAjAi9+8YuLaTmNZje0pyeBJRakxSypTDIkAonA7CAQRIUJCb/pTLy+853vFAECA7TCCisU4aXZOpJ4tx1a4khT+o2BsEJ9fNttt5VFwsxTCUE77bRTtf3225e1F93k0ZjurP8PQdBeJ9wG05KFaVDi+VTvgBF8mCm6JlRjaCcVHwLLD3/4wzKxYH+ZlVZaqVxPan0W+huGAwHezK+1LBwucEzAi1qGRCARmD8CeIR99923ODGh/AjrjHYp9ySw+IgtbHUIMSPXLoN8lggkAtOFADqA2Jgd2XXXXQsD993vfre64oorCtHZfffdyzNx+mGAvNP4HgaLGRjNikWwP/7xjwsdotXZcccdixvWpEf99zNM+GWXXVaZTcaIv//97y+CY2M79J9D/29Gf3DWxqMq091331197WtfK0LzAQccULxJ9V+r0b2prZlyLl68uLTxuuuuO9HC16CQ1M8wUhtuuGERWG6++ebS9vATRtUPB1XfTDcRGDYCrLUE35TJyPi2WpWjJ0PlSJT3Hkd4C2uVeN5PBBKB6UTAYE0gWXbZZSsCysYbb1wIDrevJ5xwQpmNJmQsREB3pPXzn/+8pH3VVVeVvAkqDmZmypKhfwRgbIEx18YY2XGj7dHfzMKNQmiBDw0LgdlsO03UJIb4lkwu8HqGIV955ZVz8rFFY+prtCzM5ayZI9AvFF1rkWXeTgRmBgH0KI5uKt2ThsWHajA799xzC4Hbc889y0K0bjLKOIlAIjBdCGAiMZAvetGLqj322KNUzpqWK6+8sqwzee9731s0H/1qWiSImNGsMP/6/Oc/X91www2Fedh2220rh43eUrMy/34FQ3twvPa1r63+/M//vCvtirYZxiyzPDh3+dznPleEYm3u3jDyDmTlxeXvBz/4wcKwWnw/zPyjHPM9azNrwLgy9l0xvXRMYl3mi0U378PF+jxm8Nb7mJChkcotHbpBL+MkAq0RIE984QtfqP70pz+Vta/WoXaaeGwrsCBuEVybdTMrwxWZAY45RoZEIBGYXQQM6IQW5mF77bVXmYX+wQ9+UH3ve98rTNChhx7atwYEzUHU0Jyjjz660B17udjUbeeddy6uZVNYmX/f04aO8ILlelC41scUJfdffu2CshCieI+LsNCz3J3KoYzW9XBnLChTp3JHWcfprJ6Efw4zXG+yySbVX/7lXw6svcep7v2URRtz6oHmMAn7n//5n+pXv/pVWcPUT3r5TiKQCDyFABrOlPz3v/998QpqwqyjwEK6aRUk6DATIxBYeAHaZZddSsJmHjIkAonAbCNgUMfAmQX/0Ic+VH36058urkC///3vF6bo8MMPL6YnvWhaMFNmgh977LHqk5/8ZGEWrK3gnWy//fYrm1BOIsM4rj0F3kHrndu1lecRv5/6GEcc2k8b99OOkb+yOPoNyhFptUsj4ohPQDfDPolCi3pguo3p6hB7i7Sr+yw/C9rGO9gxxxxTcHv44YfLBM0s45J1TwTmiwD6yZ36H//4x+plL3tZGQfQ8nZjQksNC8LmqA8mMrC5C3U4ot1JGppvhfL9RCARmAwE0An0gFDxzne+sxSanTxty3/9139Ve++9d9cL8REtjOE999xTmAQzm2aBt9xyy+rNb35zzggvcJcIWm8Ni9njGEiaCS3iDjtEnlFOfc3hf3186rVckW4374mL0b/99ttLnhaLhmlaN++PUxz1sMCVKVgnN+PjVO5RlUUfo1kzIWOC9ze/+c2oipL5JgJTg4Bx5uMf/3iZBIiJo06VW0TV3iwg0BLxsXIzajbGvV6IfLN0814ikAhMJwLBPBrYmYIJXKfStKAh3CBb7+I64jYigb6YYSGsfPWrXy1rViwMtus0F4iT7Eq2sa7j9J+QaG2iwwacJ5100pwWoV5O7YNpI8yYtGrVjvV36tfeN66Y4a9rKupxGq+V7Yknnqhuuumm8h43s/qYoBz6Uz+h27qIpwz65Gc/+9nSPz/xiU/MmYf1k/eo3lEXJmHwZy3Ra/uNqtyjzhdzxeyVw4UHH3ww+aBRN0jmPxUIoD/ot7EgvISF9rpZBVtqWESuEzPXiDZ1KILnv4EDM5EhEUgEEgEIoAuYSPuj0LTQjFiIH2tauEG2FqEZs4u+EFbMYp988snFdbE1K9bKWdRPWME4ZBgMAmbbMbHark77W+XWTZzGdxvfafzfGN9/TLY1F0wDmQ8cfPDB1Xbbbdcsat/32pUjnhnrXvWqV5WBldeoSQyw5O2KwMIMo9/vSTqBS/0aJo3/FxInaQuR90Km3S4t+fk2brzxxhRY2gGVzxKBLhHwLfP8adw3zj/rWc/q+GZbgaXxbTNjPGWceuqphdAddNBBZaO4xnj5PxFIBGYXAYM7RsgsOE+CZlAuvvjiIrQgTu6ZrSS0REC8zLDceuuthb7YZ8Vi1x122KFsDImYDZtJibJN+znaa4MNNqhe85rXFM2KWa5xwVvf0G8c+ohzMK7Dahv9mSk0IVzeNIX9MvvDKnNjPspN4GPSBEffYD9tLJ06/nEtrcZn/aTfWO74L21tH2nGOZ4P8qyttTlBD35wHKdvZJB1z7QTgUEg4Fs+/vjji/Ycbd1tt92W4gma5bmEY2j2tOFeEAiCyygGjYbi5N9EIBEYUwTQCpoWjjloVdCL2FzSfcTJjGUwfcyMaFZiU0jCill03sDM+Ee8Ma3uxBdLe9m93b46rscR70ZmeNig06pYwymMCh8Y2APNObSU0V7OjnaBpuoPf/hDiRIez9rFrz8L/B944IHiDZCmlEbU3iTrr79+mWDwHTOdUw5e53zrgnfRAEeUMc6e1YP/8HWI4/CefXBoa1dcccXSDvF+vBtx6/cjz8gj4kTa8W6ns/doIAV78Dz66KNdzQh3SjefJwKzioBvyr5W6JHxvpvQk8CC+CAW73nPewoRMUOTIRFIBBKBZgggSCG02FwSk2Afg+985zuF6fr7v//7wgRgJu67776ybsLGhczICDn8stOseC/D4BEwEeXQbmaPMyyNgH4KHwFGjmEHZTDA27+Am2Umag7XBJh2jLh3uRAlZAiYhF7r4P2f/vSnxUSPebh8aUNp5phLrbrqqmWdB2GIwCLE921NWqx/Eh8vQdjx7YujLM4CYQgNCCGBZuNHP/pRcW2+/PLLFw1RveyuHepfpxccDJxyyinFNbq07TPERTHtbzusSiEaftAlgcBIaImy1svR8Er+TQQSgRYI+G4OO+yw8i0zt61bXLR4pepJYJGB2U6HUCcMrTLI+4lAIjC7CKAZCBFNC3foZjyZh1mIj3EitBj8MWAYHrPY22+/fbX11lvnPitD6jYYL+1CA3b99ddXz3jGM4rpUzvnCEMq2thkA6PbbrutOv/888sAqy+/4hWv6Jnhn2+FlIPQdM011xSzJN8LoR7zv+GGGxZG3z0TBcG8B0PtXd8a5l9o5XCnWRm9G+vLaBcIKrQ18mJehom/++67i9kcoeT5z39+yUe/EuSr3IQQQgTTTwKP95gixuSn+DQ4+qHyy9dBa3PhhReWGVlrcAgP6uWQrjiEpJ122qlaaaWV5jQ7V111VVlru8UWWxS8OAE566yziubWZpCBTbM61++JF0I8HJiEybPb9+tp5XUikAg8NenDrbHgW/IdB71ohU9PAotE8gNtBWXeTwQSgWYIoBmEFkyJ9SsGe4vwL7/88jJbjIFavHhxYZQJKjvuuGOZWc0JkWZoDuaegQITSftlVnv//ffvasZrMKVpn6rBbdhBnr/+9a8rrrr114022mhei9bnU35lUQaCg4MTHKYV2g4TTrOhfBh3Qkn9O6oLLL2swYj+8e1vf7v0CwIFwUJ6hA6bSdOawEgcWg1Ck3v77LNPYUTCaYEFtnfddVeBwDXTUFqiYFpCuAmBhYBz+umnFxpBQ2IdEYEp6sVUTN255ZYeeuOQHlfoyqGu6uD6ggsuKJhxS92LUB4CC4EMDcuQCCQC/SPgG41v2LfaSViRU08CCwnITAdiJbP11luvzJz2X+R8MxFIBGYBgSBOTDHe+973FkJlRp85iYCZsWbFfi2YjiBks4DNONQR3tavYHLNmod50TiULcpgUAum1iy38Ui56wOdfuYItrwoNwAAIABJREFUDYN34x3xXEdwHSZKkUar9z2nNdhss81KvoQ6QoMy1EP0c/m7jvzEa4xbf69+7V2HEGl4VxloM+Qb5RVHHvB45JFHykarhBdMuUXitBerr756mSzgZY+AI64QDHj50+FHfoQf6UmfWRahSD+RP6GBK2z7+NijhpbUHkyEERMVBBTl5p4a5urjPYdrdODzn/980dpI85//+Z9LP6SFsa6NgPL1r3+9CIxHH3109b73va/wHrwMffnLXy4alwMOOGApIRJ2Ycalev5LW6jj16Hqc48DL+VnlqfsGRKBRKA/BHz3JsnQNFp9Vhidxv2eBBYfOWJ1wgknFILKrXHudt9fY+VbicCsIYBhwIhhnDAXCBaTDbOc1qtY54LB6ES0Zg23QddXu8CcOQ2vbK7HtQ0wiUyCaDr0nzpzD6foYxjrqIN3mCuFC83A031MtHjByHqf8LzCCiuUQVRc+dAmyDfWZdx7771l7YX49eA/5wUW54fQYdxkwkVz0E1gcr3aaquVcimjw+apDz30UCmLdSTKXQ8Rr86I/+xnPytlxPDTJqy77rqlDBhu8XsxCYOP8Z4AAQ+aE4KPsshTeszkvvnNb5Z0PYNrmKcpK6GEJlXwvnfE43XLmpUjjjhirkrW12BkaFeYu1kbgzYwe2MC9+53v7u8L/1tt922HIQamEtX0BbRPu7BjAYIvdHGyhfP5zJucSFeCCzKTPDKkAgkAv0j4Jv86Ec/WmgSeuc6aHarVHsSWCTGThQxd43xyJAIJAKJQLcIBIOAuTj88MPLDGx4BAtzjm7TyngLi4C2ifaRcv16YXPqL7VgcDHgIag0DnD+Yyxp/yN4z7qpb3zjG4XZjvvOntXr6X3M9D/8wz8UgcVzjK4F38cee2x5373It/6u9Nxn0kggD+ZZ/GOOOaYITPW8W10zj8KgR9kIBEyiaCwIC/43Ciyt0nLfO4899lipg3dDmIg6tHu3/ox2JgQOTP95551XFuArCxxoXWihfMeEK+XHI8DB8zXXXLM68MADCw6XXXZZuUeIZB5K8AjX5UzMXNPEhiaLwCm9a6+9tngTZPsuTYdZWiZa0peO9qfVIZQI3qMRueGGG4rpGGFSOZWrlxB4wZAwlSERSAT6R8C3a6LCt/vCF75wjqa2S7FngcVshw2nhFh83y6DfJYIJAKJQB0BhAqzgLlg346hwAy4n2E0CGgDs+cYW7PpzMPGpU30C4fyOJSVCQHBQj9yL4Lr0JbEPWcMLCEA8x5BOpjPSNt974sbs+lxD4MrP4y4d5g2NvOyFe839mXjpjS6CfJvDBb4Y+SVn8CB+a4zzZGfcxxhZkG7orxMw7gOP/vss0ta3Qo9cBKXOTjNkj0T1F16+oln2mHllVcuxbaehXaHBsc33qxscY82ipWGOm+88cYlXUKRxfHagEXHlVdeWQSOZz/72dWb3vSmYm7G9Ixgp63hQANF64b5ISTRFDprK84BOPkg8MnPAvwQjhpxbvUfBoE3YY1QliERSAT6RwANsAkwmkZ72s0EQk8CiwwkHDOhQXT6L3K+mQgkArOIQJ12uK7/n0U8RlnnYNwxfBhFM9Pvf//7C8M4Du2iDMEgY9TNljPN4l4fU1sXUKIv1e8RIqy3WGONNYqwE1irN+bfQBnxvY8hjcm4+E/YYUp15plnFgadtytlaBxko6zK5VoQZ7/99utaK+JdZfa+w/sYcAvIMc3WqnAHqjxCxFMHTDrtZSxkt0idUEF4MXYzS5O+d9W92yA+YY1ZmLS8aw3agw8+WMzNbrrppiKQea7sPKqts846pTyRh0XxTMasd4lF67BWVqZa2hVvYXNqApq6rLLKKkXLIn1mWNwgiyuOvV/URTsK3qF5IZREezIp02YEH1o3poLwUcZeQ+AlT/0xQyKQCPSPALoVyo+YEDDB0C70JLBIFMEzCyeYuUEEMyQCiUAi0A8CiFaG0SOgHTCkGDuzz8EEjr5kTzHkBIh99923zKQbgzCdzAgwvI7GUO9XrglhYSIUcdURI04gaEyj/j7mlqZAGcwGOsz2y79RYIm04/04Gyt7CfGed1xrE0HeUWdMuWf+Y9I5TGBioVyEABqdiCMeZoAQgOEW1L3bdvbO6173uvK+fiLId9NNNy2L7JnLaRcaHJoV8ZW5EdfyYsMPDQthhVbGehZCBm+B3lVmGDvUgcDGPIwgJo8QPGif7rjjjrm6y4Lmh+mZtUc2qg2vadIR1D2uG4rU9G8ILOrXTLvW9KW8mQgkAi0RQDN8h77jmGRoGblXL2GIhU2jzjnnnPKhM+dAODIkAolAIpAITC4CGDcb6jFdwig6emHmBllz5cCcmr3HmBvgHJhZz7opZ6s48X6r51EvAyqNChMGeZsZDCY64rQ7d0q/3buexfvOymKikADBPMuaDAchhVAW5RI33lNm1wSvECKCAe8mb0w6sy0aFekQBpQjBClaH2uE1l577TktkPUp+hONjKDtOHZw/9JLLy3pSAvzb9HtueeeW4QVmiRrZaXvUDeCmPJyha7eHHQQGj1XN2ZfhBP9RJruEX5oZJiR8VyGIdJnPIu0xe0meCfwkoc6dftuN+lnnERg1hAw+fKZz3ymaE5pR2mtOwktbTUsPtIIrn2g1LnUsT54syIZEoFEIBFIBCYXgWC8CASYXv/R904hxoRO8erPY0ypnyP/erz6dT1ulMu9+v1OadTTi+tu04h8MMhhKhbliLSGdVZPwsNHPvKRou0goNCauKdMnjfDwj31qAssNCy9hHrahAHmWzRH0iGw0Iq4x/SL4wEbwVrPYq0LrYiyYvbrQZkIEcqOr7A25c1vfnOJgqERxLF2xtobi/Dloy0Ek6ie0/qYrSXIRdsQMDgKYBJm08m4rx5Mw7ioDmGqJNbhJ/AKDUuH6Pk4EUgEOiCAPoSWxXccwXUzOraIKrVVQEgcPnwJICBmOuyVQBJiG5shEUgEEoFEYLIRqA8OZs/bBeOAcSEYynZxmz2Ld+VTZ4KbxY17xh+Hd4Mxd+39fsshbWkoRzdpxCBq7Ou23FH+hTqrOwHFAvdgwLtNW5kJXCE0cEmsTt2GqDN+gPkWjVOYnR155JFlAtOmkRa12wOGqRfvaoQMa4822WSTglu0ZZxtfHndddcVt8g0Nscdd1xJQzrWwpxxxhlFMPKflicW8p944onF+5t0aGloUjxXTkEZjjrqqKetHfJcGgSPboM8MFYCoUgbBB7dppHxEoFEYAkCvh/r0KxnM1GGFjtCk7kk5pKrP3vyySdbUiwvI2qIATWyjxZhlxG1s3u9Es0lWedVIpAIJAKJwKgRqDOOZqrRdqZGYVrUWL4YA/ql/cYVC6gx/mHC05hH/b/4ZspPPvnkwjSutdZaxcQH0yiNfsshDzP03u+UhjKY/ac1MP5ZwM/zVqf36vUYh2tagg984ANFgLCXic1au2XcY/yHhRC4wcMz9x1xP+Jbk2IjS/ulfPWrXy37sdhPRTueeuqpRTvDDXQIYcpIGNHm7hOygueQtmuBoBkaFvf0hbowGf3aWYizuPWjPOzwo0zcaX/lK18p+9l87GMfK9qkDq/l40QgEWiBgO+RcOI7DroR33GLV6pFrYiVxGJgIpjErEx89BKUeIZEIBFIBBKByUbAgMF0xjoC5jaEAzS/kSFH/zFvhJlgDnupeYwrBirvN8ujMT1Mqfi8UnG9bK2CNQ+f/OQnSxqxJqPxvU7/lcURk2+t4keZmSV98YtfLAOsTQ67dVPcKt1R3NeeNB/cAN93331zTHw3ZWnHTHjW2FekCVv57b///iUv3ufqgRcwId531icOOuigEl+azdL1jniOVkFajoUI+oDNQ5m8LbPMMguW7kKULdNIBCYRgfjWfcO+rxBc2ilC2q5hqX/srg0cbFXNwvlP/WqWK0MikAgkAonA5CKAnluPYIEzmt6KSazXsD4+1O+3u258p/F/q3cNaA6ClYGNAOP/MIIywoMZkXU+xsFJXnRNgMAUMOsaBobRxs6t8vOsHg/e4sa9YbRzuzz0O2tzTPDSrI1LudqVOZ8lAuOMgG/KJADFiO+KOWin76qtwNJYWQSEl7Djjz++EHA70fK+kSERSAQGj4Dvr34MPsfMYVAIIMz1Y1D5dJuusvDOZO8Mmg8MbafBo9u0Fype9H0DncP/YQVY8E714Q9/uOTLi9W44dMNFsoc7qAx4LRltAaDrkukH+dOZRWv27id0prvc/0MTrybEVRTYJkvovl+IvCUiSYvYdaw8DbMbb2xp11o/7ThTQSE+oa3D9edEm94Pf8mAonAPBAwcLLrNjPKjSemLcNkIoCOWhTMPS46OkrmLPLGhFsg7X8ck4nuYEptLSfmXuhGAzWYUswvVe1Kk6bP2YARLYlJx+gH88thut4OIZmXM9YlzCXjG5mummZtEoHhI8DbIG/DtL7dhJ4FFv6SeQlD3Ay4GRKBRGA4CBBQ7rrrrrK+AKPhfzIZw8F+oXLBAGkzAgtG8dBDD53zOLRQefSbDo+RZpIx42Hqm/1rCZrw4dZfGzJfaLX+c8kb43elPWlYCF5MMb73ve9Vyy+//Fhq1MYBPW3NBPGSSy4p9JbQmhqWcWiZLMOkI4AW7bHHHuX7MonSzSRQTwKLBC00jMWGOZhNepfJ8k8SAgZPuzbbTZqmxffYzUc+SXWc9rJqQ4JmaMcwwdZGjDIoE+bVovZrrrmmCCuHHHJIEaqSxj/VMtrLTuo2R7SGZc899yxufS0qn6SgPWkIVl111bLofvHixUUIcy/D0xHwbTz22GPFqxoBdaWVVipalvwuno5V3kkEekHAN7T55puXV3xn6GqMi63S6UlgicHWWUCs88NtBW3eTwQWFgHfndk+H7aZvn322acsAl7YXDK1QSEQ9PPiiy8uM9vDXDjeTZ2YvfzgBz8oDFnQ+G7em5U4PJRdf/31ZcH/NttsM7HVNm7vsssu1UUXXVR2lr/nnnuKxmjShK9hNIDv4M4776yYrjAHs9dL8j3DQD7zmAUEfF8x1sS5Xb17ElhIP2Z3DWpmdt/4xjdWL3nJS9qln88SgURggREwScCkaMUVVyx7Fyxw8pncgBBAP2ky0NBxYw71KaZBhCgLi1Nzt3QngI/NzXbbbbfShsyhJ3GyTpkdzJp4hKM1Mp7THGR4OgK+2csvv7xMFFlvxrokv42n45R3EoFeESCgfP/73y/flsmA17zmNR2/rZ4EFhnYldYmUD5aRG7cBRZl7qRm6hXoaYkfg9ckDrzT0gbzqUe033zSyHeHh0C017h9b8qDntvMb+211y7C1Dh6CRteSz09JxgZ66z/MKaYMBi3dnx6qVvf0d6rr756deutt5bd6Hfaaae5XeInuV6ta9zbE23sYIL7wx/+sLxsz5gUVnrDMWMnAq0Q8H0de+yxZdG9b+vVr351q6hz93sSWLxl11nuHX24o7a9nqtFiwuAmNFkJ55Cy9NB4ikmvN7kIPV0fPJOIjArCPj+MeEOYRzpgTI1HsNqH/nSitU1Y+OIUbd4GL/tNG+DUDvRW3xvAeyoPdZ1W/5hxGN6++1vf7us8YGLdT/19h9GGTKPRGBaEcCfkyd8W7T6/ncKPQksPlaSUOxOO84fr8ojOFw3HnnkkWWmpBMYs/TcYGvjz/e9733Vsssum4R4lho/65oI1BBAKx3WaPCCRbvCzSSmdhyYcuUwscIkS9lMQpksG2bZTHg98cQTBSNY8WqjTMo2iUG5X/WqV5W9d84777zK4vuNNtqoeP6c1DotZDtob9Yk1iy5tmaJh9TEZiFRzrRmGQHyw2c/+9k5QQVd7xR6ElgMEKQhBHuYg0WnSjR7rowElmuvvbb6yU9+UsqcxOYppGCDCFtI+OMf/7haZpllUmBp1onyXiIwIwigCUx9L7vssrLP1lFHHTU2Zk/GGmsHPve5z5X1BA899FD1vOc9b6jMI3xsmvyVr3yl2Fzzovb6179+YnsHTDEM2223XVnDYl0VL3G77757uT/u4/sggdfWrDJ8D9zHE0533HHHmcdlkJhn2rOHABpDnhB8c0InoaUngQWT+/vf/77MMsnMwj3eisYxAMCeAldccUUpo9kkM3QZnuoUDzzwQNnT48orr6w22WSTsWFOsn0SgURgNAjQIHDhKsQAMpqSLJ1rMM8Gt4033niufJ0Gt6VTmd8/Zagf80tt9G8HptbkrLPOOtX5559fXFozE2NLbnIv4oy+tMMtAT6HxzyTnb6JrbbaqgjI0f7DLU3mlghMJwLGGOON783kSZgjt6ttW4GlPmi5dnDxR4WMoLF5JQiMWwCAwey2226rbr755jJDwm/+GmusMbNEuN5GNE+0Tp///OcLPhZeGqiEWR2k6vjkdSIwiwigj2Hq1I25r/GgV3pRH1Ng3E0a8Y68gpFG4x3DCJH/csstV731rW8t+TKn7bXuwyhrL3kovwlH3j6vu+66si/L1VdfXSYiee2Z9Pr1gkXE1aeYRprI+9WvflWcLGy55ZY5oRcA5TkRWCAEfGunnXZaUSxwaIIOdbKCWtSK6CPS9UM8jK4FejfccEORiPgkH8eg3LQr5557bpkh4S7tta99bS4orDUWQZOZxX333VdU3yuvvPLcAvxatLxMBBKBKUcgBIE3vOENxVW26rqHjjaODzEmuO/olamNNOPcmH4zqOt5upanI/LvJo126UZZmsWJe+IQ5p7znOeUvENwiueTeqa14q6Xh7gzzzyz7Ohu/dIGG2xQ/eVf/mXP7TupOCi3NmYKxs1zuDLGRBFOuxHgJ7nuWfZEYNgI+N4uvPDC6vHHHy8OLWjPaVna0fNFTLwag4QEZy//8Y9/LJIPrQVi9pa3vKWy66sPedyCMiun2RELCXkf2HrrrcvGWJ2kt3Gry6DKg/g+61nPqrbYYovih59tNhMxA1cS5kGhnukmAuONANppHxaTPUIIBvVSixN0FHPXa/C+w+RXHJFXq7SMQY8++mjxaCVPky32jIlF0NLrVXCKvLwXG3i2SkP6QuRjsX2YL7R6J9If97Py//Vf/3Uxtbv33nuLi2NMhD1aXvrSl5bxYNLr2G0b4BuYgvEMhn8gtHFEgNeZFQy6xSrjJQLzRcA3ZW0YgcXkuU2x3UOPW4VFseilWQQDhZcxseLFbAxChmD7kMcxGAjNkACCdmXdddedG2THsbzDLlPMDjIB0ZZMwuy+/Y53vGPYRcn8EoFEYMQIYMQdt9xyS1lkjN6jmeh9M0YtGPhmz7qpinEFcxjjSqd0xCVEMdMhuFhbYA+Rww8/fN4Mdbd1Ueaf//znJW/0MzxqdSp7N3iMMo7yawcCCk9YPGPdeOON1TnnnFPM3zASk17HbvDVDwgprDKMh8ZFDglCuzILGHSDU8ZJBBYKAXTU/k8xYRQTA+2+tUXUvq2CgcKiMwkRUHzUCLfQLtFW6Q36fpSPFxkeT5SR73R2uuNY3kHj0S59eNA+MQVDoC+55JJq2223LS6OE6t2yOWzRGD6EEA77Tp80UUXFd/41PMxgDTWlvAQwkbjs27+G1ccXBTTVnSiN+LG5JhrrpcJLspgXGo36dapPN3WxbjHHNr6TRNiFqazNpiWoC1sBE2rcNZZZ5XxUx05ZNFGsJ7WoE+xIrFBJCc9+tRmm21WzMjh0ql/TisuWa9EYNAI4M3RF+OP71Dw/bX65haFer+xYBKImXgvu5agBWl2fxWYENn4ZVxCCCxc9XLZayBj9tSq8uNS7lGVwyCEMLNd1q4/+tGPxmr/hVHhkvkmArOGANppoDCAxARP0P06FuK53+xZPV67a8x/PQ3X7ULEjzjK4BDmU45e6iKuCZ4XvehFxXTBIDtNwfjONIxWwd5lJrD+8z//s1Rx8803n+MFpqnO6qJdzfAS1L/4xS8WTZ6JO3yD9m7FH00bDlmfRGDYCPj2fvvb3xYliIkB447Qjqa39RLWWAEDR3iX8iH/4z/+Y7Xaaqs1RhvZf+Vj42yzJ/Zw1q4YYDoNiCMr8Igz1obcWppFM3N4zTXXFMzaad1GXOTMPhFIBBYYgRgg9t5774o3RRMZjqSbS4BGK2mjY+8V+EwbM6u9mYDtsssu1SOPPFLWgB5zzDGFkVh77bWLlku9pyUEv8B8/Mtf/nIRXphCbr/99sW5wrS177S0W9ZjOhAgsLzzne8sSzfIER/5yEc6ast72qZXBlTzNu1ykIrGKdAAWWh/xx13lHKyj8uBt3ULIcjwYbusXbmsJrRo5wyJQCIwOwgELUAHaKb9T4FlSfuHUGfMc0wjPuqo7a37POCAA4pjA+Z3Rx99dMXd8R/+8IcyGzrp44PyE1ascb3qqquqz3zmM+WaSdw+++xT1vMk37Ck7+dVIjAIBHyHtJh/9Vd/VczCfJOdQk8aFh/xiiuuWB166KFlMOOXfhxCEFB2qNauMG/iRWaabIwHgXMMwrRQ3D7zFsYUgLSrIyXDMgjUM81EYPwQQEPRTxpqdP6Zz3xm+f6TBjzVVoEPzYPwN3/zN1Pr9pcwZv3K/vvvX/33f/93ccZA07LbbrtV6623XpmsJNhMYt/QjiY2H3zwwbJexT4Q+v0qq6xS7bXXXnOe5yaxbuNHVbJEiUBrBNAZGn0mmd0qQHoSWGTADz1i7YMep4+adMYt4z333FPKxRa3mwWdreGcjSfaEE60UbzD2JeFa0eC6Ti172y0RtYyERg+Apg49NPav5tuuqmYABlIxk2DPnxkluQIo5/97GdlR3iL7nfdddfC3E4jjVQnQivzN0LLCSecUMaGk046qaxftb4jPIWKOwkYaD8HJwvGN66bTW7SGnHMQ1gxyZmalSV9Pq8SgUEigG5YHyf4NtFV53ahJ4ElEjVDITMDmg981MFga82KXe3NnPDTb8ZkEgjpqLGTvzakDofb/fffXzYGZRYQnnnGoYxZhkQgERgcAmi7DYGtZbNH0+67717Mg5KGPoU5fHgJ40nNjKB1f1wBT2vQ7saF8LL5zW9+s7iV1j+4d7Y+lGtpmvhx4AE6tYP2s+ccT2CEFdYE+Bf12GGHHapXvvKVU2nm1wmXfJ4IjBoB32a3oWeB5a677ipEG0Ez0/KSl7yk27wGFo/Awn88ImTGZM0115zzdDOwTKckYe1Ic8ZDEHX/cccdV9YBrbPOOlM7gzglTZfVSAQWDAF0gCkoe2JON5j8jFtQxvoxzPLJ9+/+7u+KIGfCbhacuahzmIfRQDCxvuCCC4omjhdOmw3bCf65z31uEVrE9c64BIwQ3iBMwOw1dumllxaBa5lllilrNwmergld41T2ccEwy5EIDAoB36d9jygbXvCCF5QJkE7fYE+jkg+fyRCihTjxmjJqgUWlVZiwYtE414wrrLBC0Q50qvygGmLS0oWT2SYmABgWQinzMGr/cWRcJg3fLG8iMM4I+P7Rc7PpTEFdowfjQj+VI8oSZ3jWrweNr7yMdQZWY86smBurtzHABorMhp2t++DYhvtjVg2EFt61wtXzMNulVbtrI4f1KbRi1mYyd/Sf6deb3/zmYoVhvBs3QatVnfJ+IjBNCJhMsKUG5xdkCVY+Js7bhZ4EFh82N7g2l0KUrGUZZQiipMKY7Mcee6y4ZLQ/jLJm6A4BbQkvA/LOO+9cnXjiiXN4xnql7lLKWIlAIjCpCBgs6oup0ddxYD6VgRMATKYZcnQeXRo2jZdfmMkOO+9R9in4O+y5RgtPaDv99NPLvl3XXntt2XhYuxx44IHlGW0FfOI950EHfVXABIVWxc71X/jCF4rTAJYX+jabeYIXHkFbRhkHXb5MPxFIBJZGwLdnTTyNPjPkbkxLexJYJEh7waOUYBZu1AFxinUXCCpJzeCWoTcEDDBmm2hZ4EjDQghkJtJNR+ott4ydCCQC44JATPwQBDB2vnf7cYwLU64caBJHABa7Cwa7YdMlayCskYQXkzD0cpaCdrC5Gx5g2WWXLfudnXHGGUVzYS8TWpf111+/2njjjYs5cWhcor0GjRVegJe722+/vSyo57L4oYceKv0YX2AyLsY3dRmGIDXoOmf6icCkIuAbPOqoowo9jYmDmHhoVaeeBBaJSDjMhEb9wSNQBhHmYDyE2dyKPeqoy9UK7HG/jwFgj2zxPY9BNgl1/exnP3vci57lSwQSgXkgYKCgWY1F965jBnoeyS7YqwY3E2TGnhCwmCgPKxhrbEhsTxImyB//+MeLzfWwhaZh1bddPtrCjOiGG25Y1oueffbZZSE7EzGL8/Uhk5obbbRRMb8ypphF1X7wCuZEHvWxun4d+TcyMNH2ztpfWzzxxBNFMGHyddlllxXTcB6H9BWL6d/0pjdVW221VenP8k9hJdDNcyIwWgTCBCy+58bvvbF0PQksEjODwQRLQLRCRd6Y8DD+G0Qs/qMNUA42cEzWmhG+YZRnkvOAGULOHzatCkwNAGaoUmCZ5JbNsicCnRFA2zGUZsUxl50Gjs4pDiYGOuVQvmEKLGqDAaa9xyTPoqASLQp/9XfAhKneZpttVta2XnnllXPCgzGEForQ8LrXva4IL8Znfcx4XRdgjD1xRPsa3+OI9oY9HoR7Yo52brnlljJOcVVMOygNWiAaQgITx0DMTkJQiTrkORFIBEaPgG/Wtx20pFOJehJYDBCIkBkVhGHvvfcuu+J2ymQQz1XSLApPJYgVN7wWjI5SgBpEPYeZpoECfmH2R7XOyQJ7XwOT5xkSgURg+hBAz5nzWMeGocRMjsv3jtZzJfzLX/6yCAsmymKx9LBaAhY2Uzz44IMLE82l8bjgMywMWuVjbCAgvO1tbyvaDBNdt956axmX7V1DM3XdddeV1wkPvI05wn7dLKs+52z8kR7BRJsTTOKgSfntb39bBBV9ITbxxOyYVMMDaBeL6o1hzAj1a88zJAKJwHghYDLi1FNPLRMQnHlw3tHpW13kpVYhnhkwYqaDCRY/7BI20zEcNO94AAAgAElEQVSKEOX53e9+V33ve98rnj+ooLmdzDA/BBB49tmIv30Z2Caz+zUg5QA9P2zz7URgHBGI79osuO/efwc662gMcT/Gh8bnnf7H+87SiPxbvScO5vRLX/pShebzXogmcb2OXi1UOVrlH/ct9McYK698Mywx6cIPOCzIp6VnLma9z49+9KOiBdF+ZlOtk7K5s4nPZn2rE6ZwJ6wSRmhr7AOjXfRd2xnIWxxHp37VKa98nggkAoNDwPfPex+6YI3ZpptuWmhIjAvNcl5kFqNVMBB42WyH4L/B4i1veUuZgcPYjiIoE+2KxfZXX311makhsCBeGeaHACIPR7OJhBTrWAwwZsNykJ4ftvl2IjDOCKDvaL0z5rMVwxfjgnM/wXsONNz40yqfSJtm30QZWoTxNWNv5t7Ghd7ttxzSj3fjHHk2Oxt3HKFt7lTuZmlM+z2YhLBAi7L99tsXz1wETYfNN+OgLeFm2EF7Eoc+QdPCNLF+GJeshyGUxJmJnoOGJvJVhmybae9pWb9JR8D3ypzUd++bFtDhkDea1W9ROyYUcRbECWLAOwizgZhRaZbooO8pF6JGzUxdjLm2fkWZMswPAYTegBw2x3zYW4DP3I6ZSIZEIBGYLgSCEScQMANlmrPNNtvMMeaNtTWoxJjQ+Kzb/8FUxrjS7j3lE1++hBwh1q+4L41+gzS7SUMZWBZw4ytw7Y8h926GpRGASeBiTDae2B8NXsbqGL8JMJgVlhqxLsUZw2KsIYTEQYCxNoVwEuaK9Xwiv6VLkv8SgURgXBHwzZrQQNPRYYdQ/64by76oHRMagwmCE/HqiTYmNoz/MbgidHy/s2deZZVVilo4idb8WyA6S+DKHpnZHXeiVPGJ8fwxzhQSgXFDAF3HjF944YWFpm677baF0WwmDIgbjGg/9SBsoCMxrnSiKcogbj14J+43PqvHa3dtLOm2LspsXw9esDDU1kowScrQGYFoX2eYC6E5if+RSv1/vBfPnOv36tf1OHmdCCQC44+A7xcNJ1v47kNwiQmJZjVY1Oqjl0D9mWtEm2cOs3D+02pQzQ4zKJdyEFbYyPJAYoFdhoVFQEeyeFH72s34u9/9brXHHnuUDlbvFwuba6aWCCQCo0DAN21dALfwZrF9/+41fuudGMpuyx7pNsuj2zQiXqQV//s5d0oDHtavGPMMrLDq9E4/5Zj2dxoxa/w/7fXP+iUCicBTCJgssqwDPTWBEesDPW1FF5aetuqAJEEB8/rFL36xDGgf/vCHhy6wqCSbVzOBZvnsE8JErVUFO1QpH7dAALY8NxAIb7vttrI4arvttkstSwu88nYiMKkIoJ0YcjuA27PCNbOwpKlLWhQWHBIst9xy5SZTpcRnCT55lQgkAolALwjg5T/ykY+URfcmgg477LA5S65W6fRk/BsDGWLNphRTO8wQaiMLLrnbtVBnr732epq5wDDLNK15GYyp5nbfffdie8x++84775yzM5zWeme9Fg4BBMnhu3XUr1vlEnHj3Cpe3l94BNB1aw3C9DMZ8qUxNt5ZR+EY9ti3dEnyXyKQCCQCk42A8cVadAdlCPmiU+hJwyJBnlksnBN4jhpmwMRYZH/66aeXbJkspfeqwbSAzmRQ5jISznYxPv7446ujjjoqBcT/g1x/jDBrzF297oGBc+DguQW0FtbqQ9YZWHfm++Xtp9kMfrxDg0pFnLPYdWQHf61tDB7oPKFFe0R7Dj738c/B2hV9U9CHY13n+Jc8S5gIJAKJwHghYGz56Ec/WkzCTJQtuMAiA4TaIXSTwUJBZPA0Q3vXXXcV95YYHn74+11wuVDlmvZ04LvWWmtVP/jBD8qOwnYW5uRgmG0/jhibEcCMP/roo8Wend3/LPTF+A5t2Mo9KZrgcJ8bbGsgYvZ58eLF1THHHFN9/OMfL2abXJDbl4FpITfkES/aVxo2nDvvvPOqjTfeuOyr4DvPMFgEok15BLT3Evq+//77F4Zc22aoSv+2dtOmyWyuufZnLtvYhxOrRCARSAQSgc4IGFvsp2X8EdDVuG71dk8aFomYgTNTKpiFGxZDQVjBJGKclcHaFRtF5YDaqmkX5r4BebXVViv779jsC1Pzhje8YY5RXZhcJisVH5U+yKvS+eefXz66LbbYongNIshNc59UdwfGTV/wHRLUHn/88bJpHGHkZS97WbnH09yqq65aTGh8vwiSb9i1oy70wky6nschjnsRGnGtP5tPnHh3ls+wxJBzZmLx4z777DMUDYJ8G9u1VTuIVz9axRvEfeU0OWENJ02LyYoMiUAikAgkAv0jgJb2Mgb0JLBgOO64446y+zlmwwJNG0kOI2BeHnrooTLLb9DidpPAlGGwCGhnOG+55ZZlsDYDy72n/Xi6ZTQGW8LRpM7cyZoee9Q428GZ62euTqdd04LA6Bf26nnPe95TZuR57DvttNPKhAItCy9Kr3jFK4r7V0Iv2iF410EoEfShuuBSj+Ob914wqeJFn4t0QqhpjBPP41wy+78f6TTmWX8+i9fwYO6r3ZjitXMtGfjAtpegjeKdervEvXZpRfvqS9EPoi+0e2+hnsnLgnsbnem7s07/FgrXTCcRSARmEwFj91lnnVXMxPFN66+/fkeNdU8CC1i5Nf72t79dBg0ajmEILAY0kpj9QJiisIk3uMbANZvNPZxaG6jhvPLKKxePcISViy++uHrb2942NO3acGrafS76I6aFzT+G2o7NvNbBabfddiuahlnom/oGBtLB/TXNCuHtD3/4Q3GN61ulhSHsslEVYGfX8gsuuKBMQLhHg6d/BePqDNvLL7+8bNYHax6a1l133blZf8Tul7/8ZXXVVVeV3c+lY2O6N77xjYXh9pxzjnvuuacIkT/96U/LrLgy0wIRqlw7RhWUEV2jrYOhEBh0W6Ze49fTrb/rOjaLhYlyOVxHvLjWNvXyeh5xWp19Dxy1CNpTHxGXZi7aIN6tl9E1nDzbc889K+3oHeZY0hxWUEZCij4mzML3PSxsM59EIBGYPQTQ9DPOOKPQczyA8T3GlVZo9CSwINpcCNsF2TWb9UEHlXJgCpngWPS49dZb50aRgwb+/9LXzgZnQuLmm29efe1rXytaBW0QTN+QijKW2cDHAnFMJyYck8ecBl6dPr6xrFCfhcKEYiQF/cU3S2BhMmdig8DiHiHjyiuvLPtZ0MAQKk444YSixSPwiENbZXICAbNBH82qDfswvGussUbJ4+677y57A4Umx3t2ahd3xx13LOnxJGgGh5MQezURqghBNEEEbm2k/UYRlBde//Ef/1Hq1VgOzyN45mh0coIWOupx4x3n+n1tUl9nRQiQv34boR6/sTxMf3nHko62FphIua6/1+qa1jHKL28CSwgtkVf93ShTnK2r0V6bbbZZERz8V5ZhhmgHeUaZh5l/5pUIJAKJwLQggIauuOKKZYmJsb8bet6TwCJBCccOvzFrOkgADWIGODO3mB321UzRZokZHCS+3abNRATuGFAewyy+J7DOejv46Mz+07RYA3DJJZcU7cC73vWuYl7jm5lG5sZ3iVmNmXjOMLi+JpwQIoT4duuMKMaXAMGRA6bTojvmdQQJdEVcfQqdoUXF5GJsYWjzUkJOXMt7ww03LBotZeHm/KSTTipCztprr13Swih7J2Zv0KwTTzyxuvfeewst6bb/DyIeYeGHP/xhSbpTH/GcwFaPp8/BoJvgPdg7O+Ds3RA+pOFetFXEi7S1CSzdj7jKH/EjXquz9yJ/76Dp8u/2fd+RiQFpaHNlUf9hBeU0aWYcUnZOI+obnQ2rHJlPIpAIJALTgIAx4R3veEcZg4xtAxFYDBoOIQavQYJnoGCCYPYUo4xpxih3U7lBlmuW0tbOGBYznBhNJoHXXHNN8dI2665n9UOMtplf3q2YKDGZI+C9853vLLPaw/hOht0fMZuYbV699A3mRNaVEUYwlc0CHMJ0zLooTKdZfwv3aV1CQ+MZIcOifXHM7DMB0ucefvjhIuDwUEbbQqARRzvQxtAAE5yomCM/G6CiWRjNv/u7vyuCUjgOaVbOYd0LZl0547qbvBv7k3cb7zVLx6AAK8E7wfBH3vAhwMAy6Gukq00Joto64lu3FNfN8qvfk/eLXvSiuVsWrWvLusDUCgd5hHAjTyHKNZfggC+UwQa6n/vc50pZPvShDxWHEgPONpNPBBKBRGAqETDGMLON0DiBFvfr5540LAYXs2phRoCRGLQvennyTmVGX8CItGKI6hVbyOvGQXmYg2Vj3lGvbssQ73cbP9JvPOtcmB2upK3XwKgSIv2f5QBXTBxm7N3vfndZJ3H99ddXF110UTGZ+cAHPlCYcvjNtw3GCWd9gTZFna1rY2Zl9pmg0S7AIbCAR2DClCsEFvca4/iPoD3yyCPl+yfUhNldpKEdXBNmxBW8F/c9c40x/81vftOumEN5RgDg8tlMvXK2C8peN8H0XcPL4ZmjEbO470xgcLgWvE+zRWhx7aB5YooH26OPPnqphffovMkJwQSSvJy9100gMMZYgaYzJ9MOaHmUqVU62tIuyCEgdZtnq/T6ua+Myg0z45+yZ0gEEoFEIBHoD4GYIIvxpxua2pPAIkF7KZx88sllkDnkkEOKSUd/xe38looYFDHHFnuzd2N+E7OEnVNYEiMGufrgGPciVv1Z3HMWz6CpLLHLcau49ffmey1fg6S8MVqOMMMIzUarckTdlFm7YRhaxe2mnN6Vv5lubo15iyNEEiAxQrMcYIMZw1B+8IMfrP793/+9uu6668qeI1/5yleqt771rcVcaT74jxu+GFZ11q9oV2iYaEBoS5rtsRLl1xf1zcbjBS94QWGUMbJCPI9r34F+RkixbgOjHmso6mnDWFrBHLfCvJ5+vD/Ms3Jh1pm+MWXzbXUKjXUh8KhHN6HxXe/UTfekY+3V9ttvX+grrVRdAIo8xFNu5e2WDjfmTUhyTxsFHYv0m50JCSHYhFaoWbxB3lNe+0/927/9W8Hc4nv4ZEgEEoFEIBHoHQFjyT/90z+VNSz4Sh4YO42Di9pJNXXmIq5jlgmxbvdu78Vf+g2VkX7YDRuodtpppzK4Lx2z9T9pYPaZkoXffAMkMxKeihziGIzibGDEQDBVcV8ZDJiXXXZZcdl68MEHl/c9q4cY3N2DkfzEkQ4hg+Bg5lKDuDZTrBz+x+JTNv3Ka62OOMokHlfCmGHmNphCs9EWwKuL8lKruRainbzrYPcPQ50hyui+8nlXno11qderfi0ehnGXXXapjjjiiMrCZ2WhXZj1wRs2DswycxGLqW2S+J3vfKe0w+67715Mx7pl8uq4j/s1xtN+KzQsvhPfD7NN/awe/NcXLcbnXVCfjf5tMoIJGG2N79KCefd8H4QT7qOZezG/Y86F2WaiYzG9vPR761LMwq+33npzAks9/3G8jn7j3E/o973GvKSDxsBSiHS1WbN2bHa/Mc343+79xmfxTv0ceTnrH400zv9+Qj3dbtJAK/Vb2Mw6vesH73wnEUgEEoE6AsZw47vJSDTYeI8ut6LHizDIzUK85ByzWhhxTENIQuHisdn7870nX4w+N5ZMbOSLMY6Z027Sl4bZ2FNPPbUw1xgkwGy11VZF+Lj//vvnBBNxYWEgMsuI6XEPcLQJX//618tMsoXVQI0gjgGMbT5zGM8IOAQLZid27CZ8mHG3EBhTgMk/88wzy27JysT1qyBP755zzjlFyJK3/2y9aXZsmsncRXrSUFaCx/vf//6St/g0UQSe0MRgIsWhGVM2TKFZcWkRgFZaaaWuMVVP+GPKrQW46aabilkYJqdbLQu8hDiXPxP2A+dm5Q98MOwHHnhgiaPdY03LzjvvXBhu7SbuJAflj0N99CsmYqecckpZx+Mb87xeV//13cWLF5d+pB/Ch1cw30bMoqMzvjl9lLkUT2L6mjVBmEbfjG8FrldccUUR2LUHwX755ZcvWp4oW5xhHdf18yS3wUKVHR7wgzu64Rzfs2f1IF70f+fG5/W4za7jfe/KB83tlIY43hP0H2XUr6Ic8axZfu3uRVnE6ZSG58ZBeaOj6PE0Tj60wyufJQKJQCKwkAhssskmZQISb4+eO9qNCYsQ/mYhCLjBxIFIi0twwKz67xhUUHCzseF332wrZr/T4BblUf6oA00GBgcoGBz31YWmwBoMacqPJsbiX4ORewYos8EEHgt5eRjCVAVmBlzCAIHK/g/MO2Aijk3GCA8WYRMKNAIGy8LkaBiDr30ixGNWQxiQt30ipCl9s800Geqg/CRSDB7zBGXE/EVQLzPM3jUL7b+ZakIPl9D+G2S9R9tDyOqlDb2n7hhy+2ZwNWt9EbMwZesmqDuNUmiRunln3OLAUR3MDLiuBxjBlNbroIMOKusC9DmOCtSd0ELQn1RmJ+rne4SBvi7oF/qwPVdoTfRd9fRdxOJ5tEPf9p+ZJ/y8x6OauNIm/HpHfye0+D4EWDIHFV8835RvxcJ/Qo97TNF4kPIdwVob6JvS8lwgJPnmY6a83JzxH30YXnDULoSVHXbYofRReNdDxHW/F9pRTyOutUm0Z9xrdm6M479DWSKNZu91uhd16SYN+BgDTC55j4Zbf45+1SmvfJ4IJAKJQCKwBAE0fL/99iu8AvrqCFrciq4uaqWxQJQxHV7EXAWDJdFBhxhICBAGUMwMBpkZSKuKdFsmaTsEaakj0x3mJBh7s7cYeXGYH3zrW98q/5n0eM4NKyZIuPnmm8u7PGdtsMEGBSPvGcgJLwQcwgizMJoWLlcJHMxa4ChvzJtnhEAYE2wsZg8hhXCCMRSPcEQQIei4xizCxTP5qo/yMZPxXx6EJJoeu7Bj/iyqFZ9kC1ch3i1/OvzIQ73kS2sT64uC4ezweqmzMhEM1WO+7dkpv0E913YYc+WPI/Ly33eFYbaRpLi0BbG5JEGZ8N3IiMX743yO9rIrrX5Tr4NvZ9NNNy3FF49QTDAQR6DRs8bFezx8xfv1NKydgJvArXFjnMDaOdLTzyONOHvOLpbWM96RpjIxLRXcz/AUAnBGB88999yi1bKXjT4cbRc4iQdvNA696hVD73vH+5FGYx6RV5xNHEU+zsol7+gbrcaweL/VuV6XdmlEPJNB8KFlIbDrqxm6QwCG9VD/H21bf97sXv15XicCicDkIxDjtZqg88YWtL3VmNB20X2daLiWoFkmjLr/GHfmQQsdEDOMOTMQgwTmiMvSVpVol7+0mFTZUZM5CUBoA9zHSPof2obQjGAmDUq0BwYlezhgxtjRm4W0Z0RggyGivREvMCJs0AwxkTETLA+H2WWDdPw3SIZmItKDMSFHmV2bhXb4r0wEGIIT0zANKw3aE/kwQ2OyJn1BHbUXLGmKmJFJmzAFV+9bQE94aTdg1/FVTnXAiBKMrJHRH8xuh2aqHr/xWp2s64CPtGAfdW+MO+7/4cxkicZJ/6gHdYKvfvuWt7ylXBPSYnNJGxf2quGqpz/K62gv57hWHtf1bzSexTniNCt7szjS0ofjWZwjncjLOZ7Vz64b3497kUazssziPbjQChMkfZO+8U4hsO4Ur/688Z3G//W4cd1NnIg7iLP8Hca6jTbaqNBl3+6oyzWIui50mr4/wTmO+F/PKzCuY1q/rsfN60QgEZh8BNADPD4+3JiDF+70zbcVWBohkQF78tNPP70kbCZ0oQUWeQhMoQgI/qsIxrDfwAzEjJhBhjAhYDatI2GqE4yRszg8HmHAMfO0CRhxDD7tBIHANWBjQb14QI8Q5lsEG2WnPTn77LOLyZn6ECBoj6TD/MI9s8mxkJ5ZjecwYFJGMFR+8Zh70ZiEzT8BRJ28r8yxAFn9lIlQwasb4cvaI+2lnhgSh/j+9xLUnbZL3eRj7QDM4NQpqEPszk3TdMABB3TFHHVKd1TPtR9GjzDcGOBKCCYg0rTQKMU+LTRp1mTAUbxOH2pj2qP+36q8re4rb7tnUZ/GOI3/I149vW7iNHuvfm/Wr2Fo4oWGlqDtaIfrrOEFC9+5yQc0zHiU+DzVC+DR6jC5Zoxi3s2rnwm3OBsH0E80kNY/zq5NAMYEGJybHbPWB7O+icA0IYBmfPnLXy78IHPyt7/97R15wZ4EFmBhwBBrTFa3s/L9gCwfzLXZeww+Bq+fgNAhfJh5AhaCKWC0mYxYeL/33nsXhhMhNfOPsURg7UtAGFBXXpDqnrakIW3vWMtBkyHQdHAP6mx2nVBAG0I7YtNLwkw9ECpobZh4iUPSxODS8nzjG98omoxtttlmzuxLPZSP0MITFcZCutqEsCU9B2HoS1/6Uim/d5i0ETAMEOqjXMEoq0evgaZEu8CRhkG63QSdVJC3gYkp3SD7UTdlmk8c2KmLo1nwXF+miWOvKR6hJQRlO70aqPtpg2b55b1EoFcE9D0H2sQLYPzvNZ1pjg8T44jJL8H/DEs0J8YBY6s1kyY1jasElZh4M7YZM+qHcQo9DAHZ2VjgbALIZJpJLcILjb6JP/3Tc+9lG2QPTAQmFwG8ILN6Sx5Mzgdv2K5GPQksiATG3Wy/0M2MervMmz0LIkR7YcbPOglaDYu0Mbj9BMQUcUQsXQvqQmDBdLu2gJJQ5Ll8CEs2xSMcCIik9zGbGEzrVpSVYGHmTSAEYNwdCLXF1p5Jj7cuJkHi1IP8EHMaiiintTOf+tSnyhoa+TIjUkZBo4qnLAi5fT+UVVncI/xYK2PgMIMlLuGGZibSUAaLah1w7jVIk0BkUbQ+AIteNWDKqzwGqEkWWLrBTl21oz7Ge5iBXXsQWgi807q5ZDfYZJzRI4CmONA/R9Ax/daRYWm6C49ZZZqjr8RYxVyZcMI0mEMC46mx1nOHYMIGjTcuEkRgp485xDFuObyn/9HKoJHGQU5ljBPRJ62dZIlgAsg47L7njuyr+aUmApODgG/2M5/5TKEBQQ86lb4ngUWiZphilqlT4v0+R3jkRRhAmJgcsXUjYPTK3CKIhB1uiQFklmaPPfYo14gnb1vSp9XA2JvBiQXwiC9AaXnqRBUBllYERJyJFvfCsEF4aUxIjfIQl7vV973vfUUbUSesCLQF2eIj/jYaVGamB/Ldd999S52lKR/E3nPEnAaIwKE8ZrWOO+64cp9AaUEyzQuTtsjP+waDSy+9tKQjzV6DNJTZYntmZuplwb32ytAaAW2g78KKgPLpT3+6rD0ikGtz7dyr0Nc6t3ySCPSGgO/6rLPOKpMqaMYnP/nJQleCdvSW2vTFRnM5QzEZZCxgzsncdpbonj4CBxNs1kQaR0zKGYtM7Okr8CCYmJxhZeBA86zxQ/+MX84OcaVnPIGpcxzWWxpfTOxwFmMsNj5a/yhf2kBjLvfpxm55Sjv76/R9e1mj6UQAXxw8T/CVnXjSngQWxAVhwvQiDJhxhGcQQWVoDgwKtAYGCwSKWVNdWOiUt3IimDY6ZBJmXYngvsP6kK9+9atlfQoiTNOBuHomf5oOICLSBAgzPjzoBNCe0QAhrohmAI+Iu6bSpva66667qiOPPPJpeHkfIbawnznY4YcfXoi4+iLADvVFuM1k0Toh1nE/6kFlrqwIPgHs+OOPLwyxQUEcQfvJD/G3Tibul4dd/MSARbDjUUh6bA8Jlhm6QwDmTOgOPfTQ6mMf+1jRvNHaEcy5vO61TbrLNWMlAp0R4NiDZpZG2LeeYQkCvkvjXpj3Gg9mJaDzDlqPW265pWwOa32p/ybLmCKb5DNJZgKLsGLiD28Atzjg1Yy+GTeFep9jPUCb8ta3vrXkw+TaOMvLJgFGX2V5QHix7orjGMJRY76z0kZZz0Rg0hDwvZMnnJvRhWb16VlgwXhbfI6JNoMf5lDNEp/PPRUw04cYIYbMj9jEEgC6FVgAETM3hBDMe/1deRC6ENkvfvGLxd2pvNwPEL3DvItJF2HFHhFsayOIxzxKvAgawRoYKmsaEIRdHjakDObee4KBzyyV+MoWZfQu4cx/cdTdrFOsqUHkYR+zSvGuNL3DTEv7yD86g0HHoHvRRRfN3Ysyd3sm8CiHgSMGFe2UoXsE9EkCrbbQbtpIe2dIBEaJgLVuJjyYedbp5CjL1Jj3KMuFEecSGx01CRZ0tbGM0/LfGOUwfhEYjFPh1tmEHYsHE1ZcmRNWjDswiTZaKHxYLZg8ZA0Be2W55JJLyiSecZPw5LAH0xZbbFE0LrHWRVssVDmmpV2zHonAOCCAtlx22WVlzDHpYcKh07fak8AiA4wWYoEocds7SIFFHtS9ZlrsYUHLYB+HbteyKC9hg0aAVgKxc09wxnybrSEEcOfJhEseTKoIBIQk5mQ0IEyuLFxHOKVHgEHIpSEe7Q+wpWvtiEPZQxOCmLt2eAehpbERTxmk65n3ldO7ZuKZDFnnQChiNmY2nvBCSLCRnnS909jQ4tAmIfbxTDzCj7JrN/97CcplgRTBTVm4m47N/HpJZ1bjwo8wy9b7hBNOKH2LAG4zSV7eop1mFZ+s92gQ0O/QWi57fdOu0ZVxC8pJsB/FdyJPEzQmkQQYjaIcw2oTYwNNvAlK44gNWo1BrABMhgXtx2g0alIWGpdIT5+Eu0lFJrTWYBo70VOu/a0RZTpuna2+zDqD8D2OfXlY7Zj5JALjigB+iKIAfx2ecPHA7UL7p03eNLNEy4CIIFaDCtJ30ICYycG40wwglmakEa5uAoHFzBgG2ywM8yzeu6SNyBFkSHZcEyN2TLsIEzQ7zmZzbOxoDxV5AtnMOEGG4CIds0uEHNcIPTW5e4QOxJKARegiZEhDHIyrNAwKBmEzVeqq8QglhBTCjNl42iECEeFAYPJFNS9/9ZN31EkZHNKVfqjbvSdf6RG0XIvXbRDfwWzu/PPPLyZxzJiUuZd06vlFmjCd1BB1j3OzekQ9tYm9csIpAgbIjC1zBgNruzSapZv3EoGFRED/Q6+iH8Z5IfOYb1ro9ShCYNF4HkVZBpknWoUeG4dYUnAMYkzUL4yR66yzzh6X2EUAACAASURBVFKm2fAITAZZrsjDOcZ+lg54EOMQ7aBx04TjeeedVywAaH623nrrMlbV3xtkOTPtRCAR6B4BE7X4IvxrN6EngQXRouEwwyFgsgYdSFwIpVkUBAnxxLgTCoKItSoDwkZoUGaaBRoLxA043sd8e05YEAgF6obRJyRYL+KQT/2wFiZm2iJveQVRNKiGxsU96mmCVqQBR/mwz40QzwhDykYz4j2an8ZZRZqt0AhZ6yK9CMohbYv2aVHqOBmMCCzWwgjy6DbEu4QldtwkYir6et7dpiVepEer1W8aveQ3iLjaTNnD3ND/ZkFdaaaYVNjDSL+jWTFLyK2z91u92yy9vJcILCQC+qfD+hUTIGiGCRt9e9z65ajKg4lnCsvZiGv4oPOjKs9Ctn+kpQ/Q/hsfWFGwalBnEyvMrdAqayVNgoXQMMr6y1s5tIO1p8yuObAhaNEMcUqjP1uYjwcITVDUN8+JQCIwOgSML7YAQU+NOZ20K0rak8CCQPjoHUIQrUFWWR7WfdCC2CMFQaLt6ER8gpiFcIUYu3bfETZz0o97rhFnGpm411i3VvcjnudCnOO63f9415nKnTo73ovy1eO4Vh+CjLj1OPIhmMU6m3q+3tNJaKy83/isMY/6f52KsEPtrow0Rv3YccvTIX8mBp/97GeH0o/qdVnIa4O3WUczBQSPelBHB00Zk4ozzjijmB/WhZW6yV793bxOBIaJgH5qUgizR4PNQUidrgyzLOOa17333ludcsopxeb6Pe95T5lQGtey9lou9J2wYoy1/xdHNyZZjLv2KTPJZ7wZNyE2xhN02AQd4YUwaWLIBBGrDII48zFmbJgidciQCCQCo0fAUgjB+IO/dG4XehJYEDXmRGZdEApaBszrIINBE5Fh9oQJN3PCtCuY+nZ5BzETpw5EMMzuu47getSDdGP+9fJFOaPczZ651+x+vBvP4hz3251hZzCjbrf+RbuzE+6H8KufQUU76kv89/dSlnblHOYzmDhCgKf1ayawhLBy8sknVxge2rn999+/eIVLzcowWyzzaoeAvkw1z3TW9+j/OAZOAUYRAg/0yzFtwdhOe86m3JpMdG233XYr5t+sEGL2c1xptXI5CNssJmzI60zLYtxi3k0Ao21pHGOnrS2zPonApCBgvEF70Bdalk6hZ4HFx2/fCB/9YYcdVmZgOmUy3+fyovkwg8Kc5swzzywmV73MTjcS2sb/UcZW9+P5MM7jUIZ6PYOZsZeNEG3RTzl1TIMJBp+d9CQGePjImE74HpjxmR2IEM+ZIZqptD8OM0OedcxWMhfspe9GunlOBAaFABrLqcg222wzN3h0+r71805xFrK88kP/RxHUk2my/WmUw7rEYdZ9UHVGx0xGMS2m7bZmk/UBYcXaTTRr3LQq7bDQJvoy7T838WZwv/zlL5d6cfWvrlz6mywSL0MikAiMBgG0x96FJhLQVhu1d5oEbyuwIMwRXMvALJzZCgljyAYdYlDA4BlMedYyy49ZtLA9w2AR0O4OjAI/+GawDAT9MtwEFu3GprjevwZbi4VLPfDgFMHiebOSzQIBhr37McccU/oqzcoBBxxQbMHr64qavZv3EoFhIoDGOpj8+L4jBO2N/wtxbvzm/e+UT/2dZmYD3aTRrOz1dDulgbnF5IYWtVOZm+U3jveM6SZTPv/5zxdzVdoUdMqaS3RqEpl6bWOc4RCGGZgJNhv18m7JpM/aUPueiTct7TiOfSvLlAi0QwDtscbMOmZWO2h7R4HF7HCzgIBL0EEw8V+CvHHYqRtB6HZlf7P0e72nIlS8GF221jaNQlw7rWXpNZ+MvzQC2p8ZBtMtns2sXWEO1i+hj/ec6wzD0rmO979gbqIu9dKawYMXzctRRx1VhHsDJicIBskUVupo5fW4IBD03TeuDwddbdXH0QXx+gneM5YI0m+WRz1dZZKf4Bxjlmvv9lsOdZaGo1MagY9v29hnwsa5U9nr9Rina/VRZxN/mHnrPDikYa5KAzzJdQuctQ2+gaOAQw45pDr22GOL0GKjaGtezOqmpiXQynMiMFwETIbYhJ0SxLpeAS1G71vR1UXtZlC85BDHgdkyU4wBQwjavbvQVZeXQZR3Ki6O7XBrI0bEqFXlFroMs5ieDmTvHRv8wDkGs/lgEe0V5/mkNYp3YdKs7JgAzBT32P/5n/9ZvKn5VnbZZZdiC56ui0fRWplnJwT0WweNoP2m0NlGZx71NKL/z4f++36832lGTb7ixffmHGOPMns2n3J0m4Z46CBPlQKvVL7tKFcdn0m41oY0K5wrsFpgbo1OhWZlUuvViH30D8IYr5yYIf2c+duhhx5aJuDUdVrq21j//J8I/P/s3Qe8ZUWVL/7qptXRUccA4igIIiKMYEAQAQmSEUeCoEQBARGRAX06PGfeyDjO36fP50fxKYoBURBMZEEEAWklKBlBUIJKEFQymBDo/+db7erefTnxxnPOXXU/++599t6VfrVr1Vq1Vq0aVAT0TSbyJq/QIzRW6DQmzCOEtAoim4HRkc22GMTinsTj2XR1dPmoIIGF1zAepjDRPH9NZMBqVfe8txgBH5ONw9gZ8j7GpTK8p6vdF5dksK/0BzMFvNhZs4K5YUe98847V+ZmvCZ0g13rLN2oIIC2o6f2WGIaZv0Cmj+WtnoP/TeojGcWPsYQ6UYaY/MYi2mMNe6jO8rlEMSN67Hxuv3utS7xns14Tz755KpB5ULX5N2wBXVx3HPPPXVtBzNf5hjWrNi3BJajSNt9q7yHEVq+9rWvVaHF2RoX9fc8QyKQCEw/AsYBB14TbdIX240JHVedNQmXa4kh2gY2h7Us0xXkrxIWBFo0Z9C0UJAXJuXKMLkIwNQBX+s0MA1wR+Cb38Xk5jqcqfkWaVZ+/OMfF+YGzCwMgnawt8kqW+p2HXA4a5ylHjUE9HUmtjSo9njqpY/38s5YnCLO2PPY95q/493mvcm+7pRHPDP20EDAyGL0YQzaGa2yxwoX9SYsrUkkrKBTGIdRDOgvMzATnlwcm3yzpuWEE06ozl9ivBvFumedEoFBRECfw8PbwJ1nQr+7hb6mFTBmZmQwZQgAN8M6/nQG0pcNrOxpwe6Win6LLbYYWUI7ndg28/LxaG87s9900011Me6WW26ZjHcTpL/ZXNKs8PlvDwuaFfaYVJ3MathIB8MzJmr+TAQGAgHfJ0YVXcXQuc61Vks2jfHO/lUWpAu0UMM2CYGmm8VE0+0Gb20qms7V72wwV/WdE1oInXiHU045pa6FZVb++te/fmS1S0t+yfkrERgMBPCXPPiZFF999dXLAQcc0FXT2VHD0qpavMgg3I7p2Om+WYYYWM102aiPdwGLwe+9997ma3k9CQgY3ODKHMx+KTYQS+3K44GFE4GOKY0zjCxcJawwAxs2pubxNcw7swWBpz3taXUSCn1Fax0ZFiNAiLOHlKOdKfXitwfrCp1yWKPErM1earw17rbbbtVr1myhU+rpO6dV4kCGtsnkpw0zWRFkSAQSgelDQJ+LNSy95NqXhsXMG9vd2OEc4Z7ugOAYLHgXYJZm4aBNCJUlB9jJaw0fElzhq905OMhZ18fja5bAbJ3vMjaFfO1rX5ualcdDlXcGGAHMrHVqZrv0d65fhaSpixstXPrDimWBCYlhCmg6hzUWnWPa3/a2t1WahXbNpnZWXxNL1hca42jFTTjxQsqCYzZhMUzfb5Z1tBDQD9/73vfWiQLKj17WkfWlYdGRJUxgYfYSPumnE0ZlCOaQavf3v/99tYOLGaTpLMuo5gVLjDgbXzNx3BhzbgD7JOaLXbHGtwgvAvNee+1V7dtTszKqPWM06xW004a8BpDDDjtskSv70axx/7WCkVn4D33oQxUfptHuDUtAz6+//vq6zo5WwQQUt76E09lG04NusxKhYYIBW/pLL720Mk/D1K7D8v1lOROBsQjoh7z30fSa7O2FDvUlsIzNcKZ+E1jYotoUCvG9+uqre160M1NlHpZ8EWuD280331wX23MDybZ9Ntg499NGBjmCifMLXvCCuksrz0oWrvbS8frJK99NBKYaAX2eCSiHEbSqaR6zJOLoIu2T2XgHbQvMhiFE2c8+++zqwpj2jOOA2TyxgkbziIaHCK+jTMNsCDws7ToM316WMRHohIB+2Dw6vetZXyZhBjHCwZlnnlkz2WmnnaqE1C2TyX4exGbVVVetmh4mOWZHLJ4jyGQYPwIGN4sxaVesyWD6wAxwvK5Dx1+SwY5JgONNCRNDA2Wxsm/Pt5khERg2BEwC0VjzfoWRHcT+rm/NlOmvvM0EHnTQQZWh5VENZsMQMODGyBtuuKFqhd7whjdUL4bKP5vplfozjdtjjz3Khz/84brrNv6GEGMiKkMikAhMHQJ4zXD+wYEXPqobTe1LYEH4fvvb31YvIxLmsnUmAiKLoFgcavHc0UcfXTUC3CwzV8swfgR8RHz0W5xJu8KLDEy7fUjjz3H4Yvr+MHRMKhx+xzF8tckSz3YEfLv6N4ElXBr77f6ghZlyJwyPMIWGybD0d/ScFYLNIU1AMYPCkD/1qU8dyPadzu9NG+Ij1l9//erExySdNT4W4z/jGc+Y9fhMZ1tkXrMPAfIEj8MPPfRQFVbwUt2cmfQlsOjcdsQ1Q4OAW7g2UwGxsYbGZlAGEruLW0yoTDk7Mr5WMbjx2GAmDp7WKSHeaeb0eDx9f/pABL8zJALDjID+bxCJb9vvQfuuZ6o8sAh8tHH0/ZkqTz/fGRM2e0SZgCKQms2M8veTzii+q/0wSbZGsN8YwQ4fASd8xDC07yi2S9Zp9BHQt0wWmFChse5l0X1fAgsit8oqq9RZGnDOJNFTWfnTsjBZ4uUDwcFgm4VLQtP/B29AfuCBB+oCRHbs1mQY3BLL1lgmLq1xybvDhUAw49at2RgYAxf7sQxXTaa2tDT4tBSEOubIM6Xt6aeWzLhvu+226g3LZB6zttzIdkkEactXW2216ljm1ltvrVhx4597aC2JU/5KBCYTAfz7wQcfvMh5CbpqLOoUFk8Rd3przDOMWhxjHk3rTxU2aFAl2cjrZz/7WV0w2q3S01rIIckMZj4YXtfY8TIZgCub8QyJQCIw2gjo+/Zc+vSnP12OOuqo8te//rXr4DETiFjsPhMBPjTPn/3sZytGTGbdG+SAppu95EiB2YXJPCZhaYGwZKvFxOdGG21ULQwIeBbfJx+xJE75KxGYbATQIpqVXrWZfQksOrBZJpoM9p5m42cyEJosdKb1oWWhFfjVr35VVd8zWa5hzFvbMhkww4Rgm4mz+2g6MRjG1swyJwL9I4CeGjgGmaG96667+q/YJMVAC2n0OSLpZms9SVlOKBk0nee3K664opbXOBmbgk4o4RGL7LvnaAIPYe0KwZSQlwLLiDV0VmfgELBthnXx6FQvE0B9mYRZ30CLcdxxx1VzrAMPPLCsscYaMwYCQmN2xACCweYn/7TTTquMtrU2GXpHAHHGDJxyyik1ksHN2iAYZ0gEEoHRRgAd5WCDpxYmMhjyQev7aBSNwUwwkvChnTjggANq/tb3uTfIwXiN8bYmg2nv85///J7sxAe5TlNVNm3JmoCnURYG9qwxYZfrN6cK8Ux3tiPAXPWTn/xk9bTKxJa3vm7rWOa187dvUCDxxNl7fhswMLZm4bi/nelgUGVrapfaiy66qBIaxCaI86ANujONV6v8tbHB7Re/+EUVSO0rAs+04W2F1szfiz7JbEd/zDAcCGg3dFRfcz0oIWgkJtw6B2WLb6xVGeNZu7GjVZzmvbHjSuTffKd5LZ/AyznGoomWQ/w4utXFe1yZo42Y20EXVuBHY46mM6PTtsZEWHfDu4n9bLpmXk4otUUCN9AsSHL/sdn0BWRdpxsBG/AyV9XPghbH+NCqLPOoYlqFiIyQP/jgg5VAuzYD8a//+q81A9eDEAhP1LkOBJq5Gu8D1mFk6I6Atsb8ItQCHHlfG4ZBuXvtRu8N7WUw/fd///ehME0ZvRYYf420nb17MJODFjCyJqGUL0Ir5tYsmHp0Y/IjjbHniCttzHSrPJpxCOXyEs9gZn1BbNrqt2O8QV16SUPeDmONWfdhMAlD0zHeykwQZYmQNL39l4JfWGGFFeosL1MVjJQ2z5AIJAKTjwBa9M53vrP2M30PnUdXm+PP2FzndWLqEXLCSmwkpvN6f/nll6+dupv6ZmxmU/VbxUlomOwLL7ywLh7dfffd6z3EOkN7BLSpGV8fybnnnlvsgrzmmmvWQbl9rHwyEwj4zjmXYGetc2uzmVqEPBP1H5U89TmE2YwuGtqNYZ/qeiuP4yc/+Uk1H1K2N77xjW3LRnhQ5vEyv+L7ftVdXt3q7z15ec9hDLKexPg0kXLAtde6yOvGG28s5513XsXK/l8m7LqVfarbrlP66DonKjZHZN6bY2EntErFh1mYdT7333//Iu21vjHI7dy5Vvk0ERhMBPQpnmhNrMSEFDqPtrfrb/OY/bQKOqlEJGBQcQjuReKt4s3EPZVDjK1jofq2h8gJJ5xQ7Y2TSHdvEQPbt7/97UqgV1555WoONl5mpHtu+cZ4EfCdM1nYaqutqiZRu2UYTgQw3WuvvfbA2MhjyG2ad+qpp1ZBarvttqs0fyz9NC7QDrk/HmErxhXfrrUyBqdutEaceMdZHIeBzm/pjCf0WpcoM4cz3//+92u+66yzTp2Nj3KNJ/+pjmOcVuanP/3pi8zBpjrPYU4ffTWJQBvF8QyhWttnSAQSgclHQH9zjJUtOo0JHRfdSyyCa4MMFbNFaX7bGfm5z31uvDJj5ygnlTfXjfYT4KJzl112Sa8oHVoFMcaomE0yEIeWCsHOMHgIYI5oN/faa68JmcEMXs1mX4nQLO2J6R+EoDyEYa5dmTz1IowE3e2n/GPjjP3dKq1e3mkVr597nfLwTFsZ6zbZZJM6YTcM5lXM++65557aruNxoNKKWXcPHo7m80749dMO8a60m3nF/ak8qwOBRTtbB0t7bXwcK7RPZRky7URgtiCgb9Hqm3hiOWKyvNsEUF+jpQx05C984Qs1YYv4BkFg0cCIDcJiQLGrr7Usl112Wd3BNp7Plg+h13oaELTp5ZdfXmfiXvSiF1VPQT6ayR6Aei1TvtceAW0yKAxu+1Lmk2FDwHelz9Pc2fE7aOmw1WMqywsTnhPRSKEXgW6i5WkKBNJShl6DuNZhYLqZhGEI+g00NPabYbXAEoOzHUJQLN63/tVauuWWW24RHlHmOPeSp3pF3cSLsnN3CvN2ViARJ/KIuPE7nsc57nc6M39ncqvu6ouZGq8Gr1M++SwRmO0I4D3/z//5P+UPf/hD9U75/ve/f3IFFoMa94hMGRCB8RDBqWwkAouZJK6W+VI/8cQTqxZo0Mo5lRj0k7YPxholrqARe2uAzOD3Q+D7yS/fTQQSgcFFQL9vTlYkHViyrWATYaqxQY8JG6wamEgQkJptE+VodQ7GnTWEcmL4Md29ljni25PLukam1gQ1k5WY+FjjyJLhjjvuqDxBTKRYqG6ftttvv72OKdaEcOJi/c+dd95Z7zXLbGy2qzytvvFb3sYkponqH+tlm3HUIw6YiAMnYz6vQ0y5CB2vfe1r+17Hqgzh0EHdlIHlQYZEIBGYXAT0YZMd1uKSK3qhT31pWCTIbIBJijBopkOIF4Kz1lprlTPPPLMSSVoWC3t6AWNym2PwUzOLZFOxm266qQ5q6667bsUvsRr8tssSJgKTjYDZcrNdaKgBREhasBhl+NicGINsoKW5mKpgMgld5qqfid5KK61UBQd5huASbRPnZlmU0foVgTChTXsN4qrrj370o6rhIARg2gkFmAu/OWchvFig7n1jiXKJR2PvHkGJhsYamu9973s1jgnFCDQ0nrvne4t01JmJMuuNr33ta7X84njuUN8wX2T/7h7hgoCljA5pKN/222/fs7dQ6apDCIe80dGwRJ5R7jwnAonAxBHQ39761rfW/opG6HvdQl8CiwQl7BBaEcpuGU71c2WkRqZlQbTmz59f7bJ7AWOqyzZo6RtkLrjggvrBWPuz2mqrDWSbDhpuWZ5EYJQQwJBhkDGJ6AH6Tj2PGRw0Gj9TdBw+zIyPPfbYSi/333//6pykH0Ggn29Gm9BInHXWWVXjQFPBFIsW3NiGyadFCM1Gs53EdWDYBWXsFTfxQsNB+LAGhrbEhtE0FzQOyrHeeutVgYoA94Mf/KCWw8SgDZuVi9aE9sQ3JUiXxsPGpK7hSSPCfDu+M/ds/nzMMcfUdZXqSjBRfvUzXsmPg5idd965plMTL6UKj9L27Ur/hz/8YW2rjTfeuC/HFvKJ/Agsg7DXXNQxz4nAKCGgrwU9UC8TDWhAp9CXwIIQmHGQsBCq6k4ZTOezINpmpLbeeuu6oOfaa6+tMy/8q/dKtKezzDORVwwYMRAZ9LjpNIsWGM5EuTLPRCARmBkE0ATMIMYUw+n3oAW0KdZMKl+UMc6tyjuWnjXf7ZbG2LjMnZhBYWJjj45memPzHxvf807vN+N7z+BNSKCJCG0Ehp7w4jAxt+GGG9bFqmHyZYyLehFYXPcjsCgDgQXOPNkx73rLW95ShQXPCCww4C6ZAEFIUcZLLrmkek2LOkYZ4hx1g9s3v/nN6j5bWZmXy8t7vHt+/etfL7vuums1YbMgl9C06aab1ue0NDzZKc/mm29e6yVdOMc3Kx240djgVRz9BGUKgYUzmn7j95NXvpsIzHYEgj7EuRsefQksCBR178knn1yJBNOwVVddtVse0/oc8UJwaAuYrBmEqZUPPfTQFFj+1hIIOqHzW9/6VsWHMPfyl7888ZnWLzUzSwQGBwGM2pZbblln7814BwM8OCVcWJJYTxADHFrmulUwFngWgkO81zy77pSGdMV3WIvxvve9r77Po40QabXKP+LGs3g3znG/1dk78Z6zMjoIIUy9jHGEibPPPruai9FohEYizKTGo2FRT8y+ycijjjqqbLDBBnUslZ9y4AGMrTQYXP9a22Liy5nWh2kWMy/rIqVFGwO3iCtdk2MhcDBxcxB6mG/vueeeNS35iHvKKaeU448/vkKE19h3332r1iVM4zyQTxMjZo1nnHFG2WabbarDgFb4trsnrRBYCIkpsLRDKu8nAhNDAD078sgja9/Hgxp/9L1OoS+BRUJmHczCGeDMlgxiUDbqaFqWz3/+83Uty69+9auB3+hrurAkrFiQyUbawLDZZptVVTpinSERmCoEMBUR8lsLJGb+HG2B6YzNENHQQQu+H2sorK0wsKFdwWCOLavyMw/CxMcgaIDkkt+svWsBQ+rdeCfSifjMr2ig5SM9azeYatF0uBfYRbw4Sw+DbY2HtJTd/jWXXnppz0ywMSvKKd3oP84OdByjzxsYDYdyYvK33XbbqvkgsCif/B29BOl6l7kWhp1JFsw+9KEP1Tw9txCewEZ4VD6Tgtb0iCc/zMcb3vCGipeNNt0T74Mf/OCi8kR9mJARQrQTM694l7blk5/8ZNXkqKf7NC6EoX/913+t5njuRd0IKTQ31q4Sit71rneNy2RPmtrO2Xfi+1D2DIlAIjD5CJxzzjlVjrDunIfKbqEvgUUnRox23HHH2qFDPd8tk+l+joghOgAwQ8MO10BBiFGH2R4QYYvt4UILFbNdic1s/zKmrv4GfaY0mEwzwMEUTF2OmXI/COj7wXDGdT/xp+NdzDEm/AMf+ECl48FItqJbvi/CBqbXteDb45KfsOE64ns2Ng1xXvrSl5bDDz980ToRTDHNgdl78TsFwsN//Md/VMEBrspusu8///M/q9DVKa5n+ghhR7xmOSNe3FOOKIt8TESpo/Wb42W2MeoXXnhhZdjhsvrqq5cvfvGLi/IhqPCkJQ9CDQGOhj6+G9hZcO+dEPaUm/bEZCdhwn4nBDKClvQsmP/4xz9ehS/pmG393Oc+V+uuXvAQCGfahFkawcRamr333ruar0l/jz32qHTmuOOOq2thtMGgOQeKNsxzIjCbEUDDaGtNQr3gBS/oCYq+BBaEw8xKqMNjIOgpp2l8CcFzUBtTaTN9QvyouN2f7cEgaLYPFna0Zv+buMz2r2Jq6o8oYagsYLWg28yt2RSL7djI53c3Nbj3k6o2cmACzZZjBLUP+j5I7aMsGGGChLIps9CqjMYqnrWcI8Q98dBAwVn8sWnEuxFfHN+wSR7Ms8k6jHY8jzzirHxNuip98ZhHob3dAkZfMJiLG3WNeFFm+VizSQDQn2gqLG6HEccABBj9L+ob8dud5UOooE0iMMlHGv/7f//vKnyo7zrrrFN22GGHOgHIqQ1BDsMR5bTOhTCiPLHWxzP7udhbhSmZyUPXtCeu4fmxj32smpeJL1x11VV1Yo3AgbGJ9HkWkrb0YBpt4Owd34hJ1euuu66ambG0EDzrFtQfXs7KNaimkd3qkc8TgUFHQH897LDDal/T33qhUX0LLM1O37weNHCAgeivv/761dMKwtnLQDFo9Ziq8mg7g5wZKkQ5QyIw2QgEETILy9sR7z5mSGn3MCV2VTcLO8h0ZLIxGdT0DBa0B/a/QBd4w8L4DVLbKAuTrIMPPrjS9jDnCua+iS36j645R3C9zz77VM2D+vo+af0w/WPTiPieCd695ZZbCicuri0M51mxmX7k4+w+pj+eK7sJNDP+oRFpvj/2WvloMEyyCc12UCZpE4gw+oSTV7/61VWTAB91UUZrUQgb0nL0Ery3zDLL1MXw+m0EAgnspGfNinU0yqA/MxEjNEUZPaPFUg7fkOCZa5gRJJRNXOnKD07M2yysJzQrB00PrRSBBc2QhnoR4uRJUzO23aIM7isTBwLixP2oT7uzd0NggW+Oje2QyvuJwMQQ0OejX+p3Ji+60ca+BBaJUclT38qIzbNOPagB0bLpFZWxmbEMSyJgBs3MVQzKSz7NX4nAxBDAdJiVJqx84xvfqAwIAQXjhxHzyCfuwQAAIABJREFU3ZkNTqFlYjhPRmz0HBNpzUKT0Z6MtCcrDWVE03nIwkiGwNKOqfS+I4Jrs+YGR8HZJJbvsFUazfiujXWEA/lasxGMdqQ/9hzCivviy0fZI/+x7zd/G7xDCIh01J3WCM1mmu2w5kia0g4GQPoO9F0wbvcqsEiHBYXF864F9SXEKg+87MMSGMjT5IMJwTDbsvjegndYcwqg7oIz8zLuoW3q3Jww80w93vnOd1bGhbBEe6NdeCKTt6BeHP9YVxNtpkzGdwIRzYv60hJJgye1yL8m0OUfnMSXj/aOOnWJlo8TgUSgTwT0NdpWZ1r9XmSJvgQWCSM2vHYgVO94xzt6yqTPekzK64iUMiJgNo9CgDIsiQB8HP0Q9CVTyF+JwOMR0NccTEW++93vlpNOOqkKLjwZYbbYxzMZ+cpXvlJnuK2hwnz4FjPMDAJoAG00ZhWThjnuRhe0cbd3Jrs28vOdYKaNR3HdSz7iNsur/NKJo1sahAWTX+KZ4Revn292bP6d8ouyGcRpGAgBTKCsFbE2h5Avb0ezTtIUFzZh0tWPwBJlbKZLq6K+vglaDxoOwoH7TNy4ONbPmYnp854rXyt8wozO3i1vfvObK/+gvPKNM1MwHtBoi5ifEaCjXgS52Iwy8FNXZbj++uur4KS+ymENawgsYzGKuGPPytAUWEIoGvte/k4EEoGJIaCv2XOJZtW4w4yzGz2dp3O2C9FxEQTXzgiGAzGS4SCHIFLDUNaZwDEGp5nIO/McXQTQCbOu3/nOd+r6MTOdZqZ32WWXykDwDPTVr361Mh4Ilu/QLGpqWmbmmwg6yTyHl6kI2rFVQPc9a/e8VZzmvYjrbFyJ/JvvNK9jHHKvmXdcez6eIH4/aZj8ooEKQWE8efYaRx7y4kGLJoLw4dxcs9GJfntGYyHAp1+Mok1oLphoWQdCy2FtE8sKM6NM3F7zmtfUvh57pIjHzI6ghQbAVwicuUN2n0cwi/VtLGlzR4KB6xtvvLFqYdSd+RjMrXsTj6lZfAv2YgnmhvCEptC0sACRFw1YWA9EXWpBuvwTF3/j21SHFFi6AJaPE4EJIEATSjuLR9e39VV9L+jG2KTnIS6tQhAYz6h/BQmShA444IDakamkBz0EsYrzoJc3y5cIDCsCaIbDjIm1EDaBYxLGDMSeTc4YLjP5mIwjjjiiMkP2ScJ8EFqaDNmw4jCs5UbfMX3OoWFpRTc9D6FjPHWNuBhD40+rPJrpeicGMHFjzGrea77f63V8r87S7RTiXe9gYpW5W7k7pdftmbQx3QRIfSPy6zVP72HilZvGo4lhL3lj1lkm0G4QVpQDU0HLhB8IpwOEFpqQN77xjXW9CHMxwgYtCS0KIYdWxfekn9so0j4sBDCm5fZesbZN3+cGmhYJjxFmicofa2rUQyC44T0CC2flWHPNNWt9xYFZ4NatvvFcPN+kfJyVJSdRAp08JwKTj8C73/3uOoGBTsS40GlMmIdBaBV0XgOTgEB7zz2ESkfulxi0yiPvJQKJwOgggD4QVnjlw4QQVjA4b3vb2xZtSKi2Zk0tEsZo8AzEtAQzg0lgxoHWBDMyOugMbk20m8HCegPu3zGY1hKg++h8M3hXcB8TOp5gXDEoid9LWytbfA/yFceBcZ5IOdRFGhhxR6egDBaLn3766RWrnXbaqTLWUa5OccfzTLrwCbz7ySfexehjuM1gMuWKNS3dyiO+CQXrY4TQ1Lj2DPZNTZz71j9J39k72pfgIR1rWXxPaINrAod3rC+VDo2L+951P0JcE4jEaQbP4rn7rsd+q83nzbidrpUF3YK9+qSGpRNa+SwRGD8C+istKtqKzhkXnDuNCfPaEeomoZSwwz2JC87ujYcojL+KGTMRSAQGDQF0wWFmMtasMCVhYsSjU2hWglY4Y07Yp9sE7v/+3/9bhRYbv5lp4bnOIrx4f9DqO6rlYY7D9TTm8cADD6xMPBrfDNqZYBljQr9tFN+KeJHG2Dya+bn2PPIZGy/SiOdj43b6HXWJNNul4T3BN23zQsy4zXbjfqc8JvqsXZl6SRezTdjgacsi+hBAeonbKd92z/ASNB1wIfTS0kQw0SmI2zx8a7FGpd13EO9HWu3O7crV7v2x95WbsMJ7mUkVwl67Mo2Nm78TgURgfAjoY/peyBZ+t+vzHafImgTANQnIgjdqXL/tcWIxYIZEIBGYvQggNmZPbahnIb1B30yr3bFpWIIANRHC3ITQ8m//9m/lv//7v8tNN920aK8k3sPMcjZpUDN+Xk8+AjTnFlFjOnvBvZd3xpYy4ow9j32v+Tvebd5rXnd73ny33XWnNDxzYLo32WSTOg6afe8Up10+03lfHyOwhCti/XSqQ2DVSz6BX5x7iTOV78CHUGp/GH0gJ02mEu1Me7YjoL9xlGECzASB8SdoQZzHYtRRYBn7sgwwFXaRxYRYfJcCy1iU8nciMDsQQA/Mitjr4Nxzz62uSpmemMk96KCDqp15K2El0EGUzALzesTjoIX4XB4zD8Ns2WAybcgDrak9awubyFpfoM1SWFwSb/hYm0EAF3yf7QbVJWPO3C9taOLgmmuuqYvkMQbZru3bw4Qsb2MOTkLQHmHQ27l9jfJJIjC4COAf7EvFZNVYb+ISXe0U+hZYzDywPTWoMd/IkAgkArMTAQQHseHBxz4rvAlh6Gzoxja1F6bOO8xHeApy/eUvf7nOuti40G+ErJNN6+xEfnJrjSFzhKAi9WTSlsQYHr5HGA0LPiYDmGVixHnkwohzT5yhNQImXkyYEOwIemZ9sx+0xirvJgITRQD/QKvClNw6NZOfaGyn0JfAYnaGH3iL6XRk9qcZEoFEYPYhgAkirJx//vlVWMEQmcjYfffdq1lRN8LTRAwtIbRwkYp4nXDCCVVoOfrooyud4Uo1hZYmYpN7beBwcAlrvQM6j9HFnCfDthBr+MCGUO4a49+r6dzktlbvqTFp0icx3vqnHeqbXsd6T2l2vMn9un3mmKrSEltbk9//7Gj7rOX0I2B8YYmBlzD+G3e6he5vNFIIxkLiQnbmBjh5mQjMAgSCubVmhWaFRzDuSbkktTcCt6X9mnGhIwQcEyDcm/pNY8NFKjMxMy+EGe8kzZmaj0y7WnB/8cUXVwaXMwQz9In3Qrzhwxzapslm4PfZZ59qNjTI+OgvBE9OL+wMb+8Umk+CTIYlEUBj7PNiQ1vuoNGzXMOyJEb5KxGYTATQThu7CugruqofdgpLuoDp9ObfEjWrivCZrcG0ZEgEEoHZgwDCYq+O+fPn17VsFvRay2bXal6/+hVWmsiZceFZyMJmu94yy/jpT39azcQuueSSvvaSaKab170hYLGxGWaMebeBo7cUR+et+O5poXiR4inMvUEO0Z9YRWAGTADExoqDXO7pLpt25M7YWh9r8FiQ0KANsjA63RhlfonAVCDwhz/8oVpq6H+90NO+NCwGMTtTnnTSSbUz2wzOTESGRCARGG0EEBOHfSsIK8y1mMcY3PfYY4+qWaF5xSSNN2AQzAozxdh0002rGdiXvvSlutP1F7/4xTqrbf+W1LSMF+HO8TbffPM6G29mORdnL4mVb9Oie5sm6wdMhgadoVU+bYn51qeuvPLK2peWXXbZCfXTJZEZ/l/4Gut7mLfSKtqwk7Z30Nt3+JHPGsxmBNDR//f//l9VfOAj3vSmN3WlS30LLNSmZj0xJhapZUgEEoHRRyCEFZsLcl1sXwcD+2677VbNtdh9T0RYaSIoHRvFMQ8zM0xY4f4wzMNocpKhbiI2sWuMGcwx4cxh/I5jYimPTmx4cBFscagwWd/6VCNEuLduBUNgDxn9iFlYMuSLkUdjbArKtDWwSnPIxfjkVSIwFQiYKPjxj39cNSysNrbddts6Sdkpr74EFkTaIr799tuvDmjpcaQTtPksERh+BAgqDgTlwgsvrEIDzYpdtNGBddddty5SnUwGLphlXgi33HLLKpyYicFUcHlMOHrZy16Wayym4PPS1oI2yPB4BAIf52HByNYDhHzrWDAIJgIsxO9lkevjERitO0HbbHhLuONindUIejYs7TtaLZK1mS0I6F/4B0tLmJX3wkP0JbDo0GbhHEIvGcwW8LOeicAoImBA58XDAvsjjzyyehvC7Bx66KGF9y5Mz1TRAfSG0LLFFltU4eQTn/hEZbpoXPbdd986U5yMxcS/Om3sIIha48AjW7iuT6ZtIb7w4WkL029mcM0116xrrAYdH+VjFmZDUEzBVVddVU06bYI527Us2lRbMnG1Ro6DAs49JmraOvEemSkkAqOPgLH7ve99bx171BafoU92Cn0JLJFQJOo86AQ7ypznRCAR6B0BfdvBzbDBnHcki7LZv++///6LhJWp7P/SdmCgN9xww3LffffVctC02LyWsJTefHpv005vausTTzyxnH766ZWRZfaXXpIWIwYfDgmOOOKIuo7rsMMOq1rGxW8M7hXGgDWEvsIkjDbBzCa3zLNZ4CescGWMlqAzMLJhJEwyJAKJwNQj0C//0JfAgmjzRW+mSdDBEb0MiUAiMFoI6Os8d1x22WV1zcqNN95YZ5RtCrnBBhtU84npGtgJJjQtr3/962u+xxxzTLXHR+z23HPPstpqq1XhpV/iN1otNrHaaG8e2pgPWaCd4fEIMEWkmbDmgTA3LEG/oDXgyOKGG26oWpYf/ehHdZPXiXj1G5b6tysnByIW2uNnmLjusMMOde3cdNG1duXK+4nAbEFA3zNxgJ72Mu70JbBQ2fA0wkOQTv3ud7+7biQ5W8DNeiYCswEBBIRm5dJLL60ajZtvvrmssMIKZeedd67ewJhqTbdwID+TI+zv2byedtpptXzuE1qYMNHEZBgfAuj51ltvXdZbb71qftfLRp2EnOn+DsZXu4nHUk+z7+9///trYlxuD1PdlZWXM2tZCC00aTQu66+//qzrN75bNO7aa68tX//61+s174OveMUrhqpNJ/5VZwqJwMwhoA8efvjhdWIULTKO4y06hXmEkFYhOnWcvWdmCeEz2ynhbom3SjfvJQKJwOAioL9bYH/55ZfXzRu5Mec5x+wjzYoZWe8IcR5bGzSiX2ZOWu3Si/SlyXsY97to0SmnnFI1LTz67LLLLtUl73jyjvRn6znaaumll65esKItDChjQ/NZq+dj32/1W7w4jCuRf6t33fNOfBvOETeu241h7dKL+8269JKGb59VgfIS8LqVO/IZhLOy0lQSWPRtB7O/8Irl+TDVZyKYandeDm1662xNLu0tOpLalYkgm3ETgd4R0A+tm7S3Iw+MxnT9D333rFWYRy3aLkTEEFQkwj3i3nvvXYUVxDtDIpAIjAYC+jfGzczjscceWzdSYwajnxNi7ITeaUAPpog2ZqWVVuqZqZMvjc4vf/nLykCgN+1ClBHzxXyJiSqHAMp34IEHVre8OZHSDr3O95kAagcYm5Rq19YxLnhvPCEEDt+a8acbo+ydyEtcv5VNfHHj2XjLIl6ncdBzefjGbHTm+2I+N0xrfAJjfdN+BxgFZp5chR900EGFsDob+o12RDPsJcdahBBKc8wpwWyo/3j6SMZJBKYCATScVoXFhIlIv/XPTuP/PAN/u2BwCCbEexKz6JYdr/vZwdshl/cTgeFDQP/W5828WtiOIUQ87JBNmAimp1PNvEPA+a//+q+ed72X7+23314+97nP1Q3cghHtlI9yYrCjjFdccUUt9wc+8IFO0fJZCwTg7zjnnHOqgwVM3MEHH1zpe6s2967BZbz0X5tFfONKqzyaxWy+I57f8p5oOeThO4qyNPMcey0v/eDUU0+t3xyN3iqrrNK17GPTmcnfcIYd0yd7HnzhC18oF198cfUetuOOO1Yh1Tvd2mMm6zCRvLUh5sjEyw9+8IN6TXibjWZxE8Ex4yYCk4EAOrPJJptUeqpvGhcEtL0dDWorsEggiFcMEu4h8BkSgURgdBGgRTULGTMdQQc61Rht4MXrnnvuqa5xzVjTzvQSIi6Xq4LN+bo58xBH+ma6Bdfhbr3eyH99IYCum3GnrTLbJRg40P5mgLvvIpj8dgNLM06ra/FjXOmWRlNg8a5yOULY8Hw8QV2a5WiXhvfkxaOUzRd921tttVUVmNrFGdT78COQchWuvc8666wqhHFVzizKs27tMah161Qubfjwww9XAY125Xe/+12xbmX77bdfJKh1ip/PEoFEYPIRCHoeKaOzrcadeN4XpZcY145mKGSE6KVZWECZ50RguBEI4rH77ruX7bbbrmeGLBg6C3m5xjVT4l4/QRwHW1YmGvZD6IdxQuTCTWs/+ea7CxGAtUXlmPFYo9gNm37ap1tag/xcPR326aCJMA4yRxzGEHWxB8s+++xTbrnllqpN/fa3v12FN0JLmLqNSvuiRb5rHg+ZuhLU8C277bZb9XyIdmRIBBKB6UVAv6ThNQFm4tFEaTea05fAgqFgGnLyySdX4ma36RRYpreRM7dEYKoQQCwM3jQcMcveS14ID9qA6Igfmple4jbfkT/vVOzpMYfdiNfYuH73E6cZfzZfw4ymgQc2jhVcW4CcWC7+KmCx4oorluWWW67epNWB07AG/ZR593/+53+WD37wg4VzjW9+85u1D9vzaLxaq0HDA21y8IxmvQ6zPrSFh1PrVvI7H7QWy/LMFgRM/Hz84x+vi+5tQv0//+f/rP2xU/37ElgQaP7K11prrUqswxyjUwb5LBFIBIYLAcxZP8wqwtNvnHaIRDrOw8wQtqvfIN+HdzDi/bT/INdpMssGk2Dkhx2f6F/Gc4wCwYX78qOOOqpOPthYMnZ8H8a6hqDCUQJh5TOf+UwVyqy/3W+//YrJVm05jHWbzG8600oEZgoBfU9/5OiFZUUv431fAotZmVe+8pX1UMleMpgpMDLfRCARSAQSgd4RsAbpwQcfrFoy7m6TmVsSOwu2YYQZpoXsdY3WkqkMzi/tS8NA42BD2E9/+tPVggJzb43HZpttVicojfvDFrQRRsgGmfaNu+2222pdmLty7ZwujIetRbO8o4YA+YGGRV9Fi5y7hb4EFok1B7HmdbeM8nkikAgkAonA4CFgoKAlswbpvPPOqzsOf/SjH63meUnjF7YXjK655prK/FoPwYW2Wfphx0f5CSQ8hx1yyCHlmGOOqW7NmU/99re/rUIL06lh0SzFt0xbRFix1wrBZbXVVqt7SfFKlJqVwaNBWaLZiQAT8BBUmJIbhzqFvgUWfujvvvvuSqjt9kttnCERSAQSgURgeBEwaKDtvLwZNLoNHMNb0/GVHD7WaTExIrC4joF2fCkOTixCC40DAeztb397XaPKsY6NWZlTWZxOaIl1bYMopGkLBw2hRfWcCBBYaMGYsO+0005VKEvNyuB8d1mSRMCmkcYakwj6ZrfQl8BCArI/w2mnnVbNwRCyl7zkJd3yyOeJQCKQCCQCA4wA9bz9KHi/wuQZPAaRMZ0pCGHxohe9qG6abIC1AeMo4aMuNC089TCb4iKccx1apU996lPVa9+mm25a957xfQySObj2IET++te/LvPnz6+uuV1z1bzDDjuUjTfeuLZXalZmqvdkvonA4xHQb3ntMwnELHXLLbesNOjxby6+05fAYgbDDNxPf/rTSrDMZmRIBBKBRCARGF4EgvHm1pjpDGZ0kBjSQUAWRrzXWbviOo5BKNtklUGdCKqE1m222aZqVExO2pTVmZkVd+M8yfGW5hsRR4jzZJWlWzqhUXFm8XHhhRfW7RYIWPaQWnXVVeteOdbhcOHcLGu3tPN5IpAITD0C+q59oGhZaEE333zzyRVYzMAY0N7xjndUAkUqypAIJAKJQCIw/AiMZcKnmwkdBgRnAyaYe3vxcG9M02Iz0fPPP7962SK0XH311WWjjTYqa6yxRnWNzA5dmC5szMw67rrrrrovnHVXl19+eXnggQfqvipmapVvlVVWqdrCFFaGoWdlGWcbAuiFjVtpWDh56cW5R18aFhmYfbF2xXUQqtkGdNY3EUgEEoFRQSBmq+3FwZTGxoHMaAwg08WEDjqWMLr11lvrTvfWr9Ay/OM//uNI4qPNHUy/mMFxfczNMcHFxrCXXnppXdtCc0ErZwPp0MxF3Phuxp57bWd4C/FtNs++0e9973uLhJR77723vstkbeutt67mJcoWJmBRhl7zzvcSgURg6hHQL21QbfLBWGNioVvoW2BBBBxCEoJu8ObzRCARSAQGHwGDxg9+8IPqKcz+Wuutt15lWJPGL2w7DLNNk4877ri6XsImkvYQGOWg7TERmP+nP/3p1QyM6QZh4aKLLqqL22Fy7rnn1jUiq6++el24DxuTmrHAXTohgMCr3TfVfCcEFOtmCSTyIVAzR7eonjm6Z5z+rL322tX8i8ZHOUPQbpfPKLdZ1i0RGBYE0Bb9Nfq9dWjGoU6hL4El1LBmmgQL9HLzyE7w5rNEIBFIBAYfAcydRcoYTYNIL7Ndg1+rySth4MMMOhjlyUt9cFNS72D8mYnxJMZj2M4771xdYPPE9Zvf/KbuIM8hD+9cBBXCHAHCvm3MPcKRg8lOz50JFngKeGJW4uyaS+WrrrqqHrfcckt5+OGHFzE2LDukbz8V5l8EpJhI9d1GeQcX1SxZIpAI6Pv2e3JGE9CXbn23L4GFKvySSy6pu8YiDIcddlh59atfncgnAolAIpAIDCkCBgn0fI899ii77rprvU7Gb8nGhJG9SmgRhNAeLPnWaP8iYDgIB4SEt771rdULlwlM60gIL1xjEy7coxU59dRTK1aEjBAqQmDxjYXAQlgJgcWZXbsQ+RF4MDRrrrlmsZeKydI0+xrt7y1rN9oI6Ps2rEUz9OtDDz200opOtZ4nUqtATeNZnMPvPKKx/PLL10HtyU9+cquoeS8RSAQSgURgyBAIwSXMcZzHzng1nxkTxj7vVuUYTyIdY0y3NGLskXbEj7EpfnfLt9XzKINzt7p4R8BAK2+3MrfKb1TuRd1hQRtn/YoF7rvsskvdUZ6wcvvtt9fZUx68mG8RQAgytCcYFGeYE1oIMAQaa6ee9rSn1Wvavmc/+9l1/Yy1QngOnsnsBRPCYgjVUZ5RwTfrkQjMFgTIE4IJiQjtZBLP5yEirUKTmJvxQBQQGDMb+++/f50t4Ys+QyKQCCQCicDwI/DnP/+5/OlPf6oTVRjGdoxgCAudBpZOaBhHQkAw/rTLJ9LA3IbAIE+/xXEdR7zbz1ma4se5U1zvwAfzjVHHTGOwZ2uAf7QbPAgR8OD6+eUvf/kiXGF255131u0Q7rvvvurJi9thh2+NoEJTEutkmJi7ZkYWJiLySeFktn5pWe9RRUC/3nHHHSsdQE+Dlgd9b1XvedS07UIMKqHKRZjYOC+77LKVgPidIRFIBBKBRGB4EQiG/eKLL65rBmjOmfug+8GUNmvnfQzkeOl/MKDit8ujmV/zHfnGeGQibSLlUA+Do3J0q4vB1FqK008/vQ6sdk5/8Ytf3BKfZtln03V8K85xTehYaaWVqntkWMDcMTbE+xE3zvFePI/feU4EEoHhRgDt5tWPnIEmoLFCk96PrWFbgUUCQTRikHDPIBEZuJ+EZCyk+TsRSAQSgeFCAG3ngQlDzuyGwIKJR+ObIcYA9z0fL/0X39FpcIp8m/nIz2+HAS7SiHf7OauLsaxbGt6TL/OmCy64oAo5sY6in/xmw7vxPcR5NtQ565gIJALjQyDGgRhX0HS03f1Wob16pcXbiPv1119f5s+fXwn461//+rr4rsWreSsRSAQSgURgSBDAYPK6RFihYelFkJgupnS68mnXVPJ32ERxt912q0KONRUzXa525c37iUAikAgMOgKElNNOO62ubWO5xWV6O0El6tKXwCIDLgzPOeecmrABjreQDIlAIpAIJALDiQDG20Bh7cGqq65aZ7gILBkWIwAj6yq22WabetP+HymwLMYnrxKBRCAR6AcB8oSNaDnh4IGRp7BJFVgQaP7P7fIr4Wc961n9lC/fTQQSgUQgERhQBHhqiYXkaH0y5IsbChbhjtfdxGcxNnmVCCQCicB4EOAVkCxhAqiX0Nc0moTNwL3kJS+paSPgGRKBRCARSASGFwEzXQ6emx566KGqYQnHKim0LGxX+MDGhoauudoNL1bD2/JZ8kQgEUgEZgYBY8vHPvaxuhax13Gmb4GFG8IIvWYS7+c5EUgEEoFEYPAQsNjx6KOPrjbF1rEcc8wx1Td+0viFbQWfyy67rHziE5+oi+4/8IEPlLXXXrsKd4PXmlmiRCARSAQGGwEKkOb+Kzw2WiffKfQlsCDa7M0eeOCBmibfyc0MO2WUzxKBRCARSAQGEwGCCY0BM1/7YKSg8vh2MlkHHwNrWhc8Hp+8kwgkAolArwjQVJMlwjNYUxnSLo2+BZZrrrmmnHzyyXVA22uvvaqJWLvE834ikAgkAonAcCCw7rrrluc973l1EqoXL2HDUavJKSUBzqbJ++67bzUJ42wmhbrJwTZTSQQSgdmHAIHlhBNOKH/5y1/KcsstV7iKp3XpFPoSWGRgd9o77rijJiyjDIlAIpAIJALDiwDG20DxT//0T3V9omu+8DMsRgBGdnEPRzMwSoFlMT55lQgkAolAPwiQJ84666y6NvBVr3pV2XjjjSdXYEGg7VrLF71g4WGGRCARSAQSgdFAoMmEN69Ho3bjr0VgETOAfse98aeaMROBRCARmL0I7LDDDlXDwvtwL6EvDYtZN6obhxDEu5eM8p1EIBFIBBKBwUPATJfjJz/5Sfn5z39eN47cfvvt6zqNZMoXthc761//+tfl4osvrjbXG264Yd2XJcfAwfues0SJQCIw+Aigndttt10de5Q2xqFOJe9LYJGQTCScM0ydYM1nicDsRSAIDyavF4bXe+IIcZ696M1MzeF+5ZVXljPPPLMuun/jG9/Y0273M1Pa6c8VPrfddls59dRT687Mq6yySl3vM/0lyRyk1vo+AAAgAElEQVQTgUQgERgNBGKDYvT1kUce6Tr+9yWwYCxuv/32cv3111dGxO6UyyyzzGggl7VIBBKBSUEAnfjd735X/vjHP/akheXK8L777utKrCalcJlIWwRs4oWeP/3pT+9J0Gyb0Ag+IHjznmadj4EVVhkSgUQgEUgExodATAIZ/3kbfsYzntE1oY4CiwQjuMaIEFaOPPLIyoi8//3vT4ElAMpzIjBLEQhtK+0rs1G04pBDDqk0ohcNi/f//Oc/VyZZGpHeLIVzRqoNc2ZgW2+9ddWs9OK2V7v10r7NCokjNM/d0oh3m+k0r8dTjmYZ4rpdOSJ/mybzDiYYYNu9X1+Ypf8CK9V3HUf8bnUOHJtn183f4sVv1xkSgURguBFAG8gQtkpZc801y3ve855Fzl48a9Xf55ktahVECFMNEpD3+J93z2CGMWmVYKu08l4ikAiMNgJowYte9KK6vo2tPw+C/dAH9MY+INLgWjfD9CGgnRxPecpTKiOOxjuEOEdpYlyI3/20sTgR39m44hibR6QdZ+94X/CusYhg69r9fssQ6UZZxJdHpxD5PPnJT1409o033075DPOzwFO7RNs+9NBD5dZbby2///3vyz333FPuvffeRWfPCH48r9mstHl+4QtfWDV9+AyH9o5jmDHKsicCicBCBNALfALPww7yhT6OdrSjrXPuuuuuxWqUMUgG4QmCISFExmwowr3sssvWQW5MtPyZCCQCswgBhEdAfO6///56Rjv6DegMoeWpT31qLvjuF7wJvq8NmfDZyAt91wYGjVYDB7tj7TueNlZMecWgZIBqlUezOspDY8ed/qtf/ery3ve+tzK6vpeJlEMevdZFmR9++OGKDcEOg22js25lb9ZjlK6jz8OfAOm7+e1vf7vouOWWW8ovf/nL4owZ8X7EGXsODJ3j2qQo5z68kr7gBS+oHkmf85znVJ6jiX0zzijhm3VJBEYdAWPAJZdcUmUK8oR1gWhqOyUKPOa1ssUNgoIYIUQSCxMBdrwGmRBiRh3UrF8ikAh0RiCYDLOlT3rSkzq/3OVppNXltXw8iQig92j9BRdcUK644opK7/fee+9K89H6ZvBuU9jwrJ82i7wwsYSF+F46pWHsiXK4JkyJ1yxHp/jN8jevlSW0NZF+q3SizJjv0047rTLeO++8cx1gW73fzGMUr+FhNhRvQGvym9/8ppx33nll/vz5dbLCc+2EHhDurInS1niGOODt8K52jMN36Nrkx5133lmFHoKigJmxX8Nmm21WaGAILuzefQuzsR1G8dvKOs0eBPR/E1DNvo8edDK3nReCSCuYJCRR7yAWEgv1jfcRIvczJAKJQCIAgWQchvc7uPHGG8uPfvSjurh8v/32q7S9VXtiJmNcGE9tgyHFxBpbWuXRTDfGIffka8yJcctv6YwnGM8wyOJ3S8N7bK2t4cRAb7PNNos0BuPJexjjwIC2KxzvXHvtteUXv/hF/U3wI0jSiNhgk/WFfdqcmXphQrRb8wgNGTzHHkzHaGwILQ4mZY6rr766HtJ98YtfXJ0grLbaamWFFVao2lnfQ7fvaRixzzInAqOIgLEEHdZn9V3XncaEee06dyQSIHkPwbr55pvLD37wg5rBG97whkWLEOO9PCcCiUAikAgMHwIWPmI6Y52GGowdH4wLcX/ss35qHHGd47pd/Ik+b5du1KN5bveuMiy//PJ13wDjYK8bnbVLb5jua3NCI0HFXj2XXnppueaaa6pnPxYXK6+8ctV4PP/5z6/XzrQfhMCmANFsx+Z1fFMwiWvnyJcmhxYH70HLZY0c4frss88uP/zhDwuBZe21164HgYlQJP1mHsOEd5Y1EZgNCOjfp5xySp2ssG51vfXWW9Rn2/XdvqamEGoL6PjqR4jWWWedFFhmw5eVdUwEEoGRRcDggJ5j+ggtrs1+Z1iMAIwILLQGQjDji98YvSsMhTH/rrvuKpdffnkVDmg4aEOsL7F5JjfPHGUQ4Jh/+W7aCSkQasWItLsnf2nFYnxe2lh4KM+vfvWrKjTR8BBeHMq4/vrr1++Y0NRppnb0WitrlAgMFwJoy7e+9a26hmWttdaq5mGhOW9Xk74EFokgVNThiEzuwdIO1ryfCCQCicDwIICeNxlNJW/FSA5PjSa3pIFPDKijjA1BwUGr8uMf/7icfPLJVathbyVm4DYVXXfddavwRpgIwcD3M9HQxLV5LV1CIu2JMjABe/nLX17Nxq666qq6tsj6K4IMrcuWW25ZNt9880WC5di0JlrOjJ8IJAITR4BZJ2cvJhh6CX0JLGZPZGCmSeDRJ0MikAgkAonAcCMQM+k28MSA8sw0VoAZ7hpOrPQYeDP7N910U9U6mO234HsUGWF1ZYZFUDnjjDOqOZZvgsnGFltsUVZfffVa9/g+YDBdOEQ+hJdnP/vZ1fQMP4IvOeecc+oaLJoWpmM///nPyx577FHX1Gj9iDuxLyFjJwKJwGQggH4cdNBBdWKE44yYDOqUdl8Ciw4fi+YkOhkzKp0Kl88SgURgahDAlDTDbB3M4eCI+se5ic2oXwcG7InPOuusOoP9mc98ZpEHr1Gvfy/1gxEG+Igjjqgesg499NBqPtdL3GF5Rx1pVSxyP/roo6vXOIILd8K77bZbNQHjVRQPEMLKTNQt+qizcigTbYu1NExLjj/++Goidvrpp1cvY1xiE8AJOeJE/Jkoe+aZCCQCCxHQD5mSojsCxx1x3Q6jvgQWiUmUDatgcSYikCERSASGBwH92Iw6ZoTWNPbcGJ4aTF5JYcE1qxkeOPg9Gxka9bY+wD46mEDfx2zFotXXBYtw5Wv8c+3eqAR10eZXXnllOeqoo8pPf/rT+vsVr3hF3feGyUasT1HnQeojvldClBnajTfeuLz0pS8tn//85+uifGZidtPed999yyabbFLrMEhlH5XvJ+uRCEwHAn1JGwgam9Zjjz22Eqx3vetdZY011piOcmYeiUAiMEEEginhnpWnn1NPPbUumN1xxx3rTMdsGsgDCzbvX/nKV6q71p122qkuIrZ4WJhNeKjrm970psrwYfwwgLOp/t26Fiww7x/5yEeqoGLGflTw0Re4K+YBjLBiw0fev5h/6RPWqQy6dkJbRHvQCB188MGVtp100kl1w9EjjzyyCuNbbbXVogmaeL9b2+fzRCARmHwEyBMf/ehH60QZk07jj8mHTqFvgcUs3IMPPlgTpm3JkAgkAsOBAMbEXgbnn39+NZuwXsFeB3aYZQ+OSZ1NwWI/TBrPR7Qs1ifYMJGnIQzbbGFo1NPsOdeSvGD5PVvq3uv3biC1ZsV3IYwSRsbxiy++uDADRA+Yaeyyyy5VI2GB+zDVVTs5tJPNPVdcccWqbbGm5ctf/nLVjHEaQJuaIRFIBGYOAQKL9WYPPfRQNUVFh7rxIH0JLAiBxYZ77rlnJWK9ruyfOUgy50QgESCo2KDJzKmduu2jhDi85jWvKdtvv33VknYjFKOIIqch9pIyI2v9hr0lPvvZz1bBxX2LeWkbZgPz7hsJUyd0PnYbng117+Xbho8+Y8JOCHPoYcYn2pyXra9//evl7rvvrmtBaFVe+cpXVjfFwySsNNtRuQnhXHUTNNWPUMaJACFso402qkKLbz1DIpAITD8C+t7WW29deRPeh3tZXtKXwIIASNghZGef/kbOHBOBfhAwi4ERtYO5wZpGwYC92WabVWb9JS95yazsx8GIEVrsJ4GpIbRcdNFF5Zvf/GZdeExosYh31M2jMK4O9v4WlhNWdthhh54GkH6+xWF+Fz72ILvgggvq2g7rIUzYDavAEm1Ou8gk8vrrr68mVDQrvnmC+jCP79G/rU2zV8xb3/rWSgeZwurf6rfBBhssEsqG+dvMsicCw4gA+rLXXnvVsQc94vDDuVPoS2DplFA+SwQSgcFBIBgSO0TPnz+/rlexU3Xso4ThollANIaV6ZoMtNXdRAxXrcziMKHf+c53yoUXXlht3+09wURs6aWXHmoGrhtWBFsz0DRwdilnNgOX2fxtNDHTn5gVnXDCCZXxJegzoRvWgDkgnH7pS1+qwgobciZUL3vZy0ZKq+j7ReOsOVI/7cixwNe+9rUqmHPVPFu0qMP6rWa5RxeBGF+cjUGTKrBI7LbbbqseRGRA3YrpyZAIJAKDhYDOr69+4xvfqGtWeH+yI/U+++xTmRJalmGeQZ0stNExBy0KEzAL/9i9c+tq92wORrh53W677UbeMQGm7lWvelV1EwuTDEsiQGhlRonZJ9QNazCOowc0Kz/72c/qd42ZVzcOJ0aNLviWaQ15D3vLW95STVCYwXF/jCZat9WLOcqwtneWOxEYVARMmjC1taZMP+wW+tKwINQ33HBDOe644ypRMxuZAks3iPN5IjD9CBBYzjvvvLpexaI23nH++Z//ua5ByxnFx7cHpgajxjSMfTuBjokYTcuZZ55ZhRhek2gdRjGoO5ewBBbMW34jS7YyfDC3YcJAYBlGxh5d4BGMpuiSSy6p7rwJ6euss85Im0fFpARNqskHzgUwS1/96lcLb6f6ewrpS37z+SsRmEoE0CKOPngt1S/f/va3d504mEcIaRXMwnjmLGFSkN8GsmWWWaYS69m4ULcVVnkvERg0BPTZO+64o3rg4JbUxm/MwTDcw8hoTQe+GJbAx0Z0cLIfxb333lt4VEMLRzEEo0ZYswmfegb9j2dR73gWY8LY5/Feu3OkK36k0e17NPaIJ0R8Y5H4guf9liPSkl6Uo1Ma3iPI6UvK263MtWAD9i/qamsCG4RyxME0dMstt6xOBIaxTv1ArH7WtBDOeAQ88cQTyznnnFMnccIEctQx6AevfDcRmGoEaHpNqDrQ4aDvzq3CPLMt7UIkYNGua4d9V0hDhBWeUjIkAonA4CEQzImSmWTg5hPD1YkpG7xaTH+JAh+YmXWFGSzbEdDpL+HU5Yjxx8Q6q78QeDRzhQWBwXvjCTGW2HxRaJVHM11lCvzF9VuYaDkiDWl2q4u8HMpq7BtGxlb57Ttk0bm1WdatmNUkpA5jfZrfSK/X6olv4QkNFly8H3PMMVV7hq+ZLTj0ile+lwhMFQJo6eGHH141vpEHWkzeaBfmdRI6DErcOJqVQKSDaEtMZtm528Ga9xOBmUdAfxWCIYzzzJdssEsApziipIGl86jhqE4GCjPOvMmxJz7ssMMqzW9VVwIDTRRhbjzBuOIgFIX75E7pNNtCvsYs4xGBxxg03nLIU13El26nACOLtbnHJdxYC8b7VCt8OqUzU8+UH17nnntuXZuljQ844IBqAgnDYanHZOCnvoS03XffvZqF3XXXXVWIW3nllQuvgbMJi8nAM9NIBMaDgH5mIlVfFGLSCG1v1wfn6rytDhGCkMW13waaUOFEBuMpbMZJBBKBRCARGAwECCxm3dn126/Hb2Hs2GAsaB5jn/fyezzxxYnQjO+6lzxbvRPptKpn8/3I27gHm5tvvrnaXRMChiVoT+tPCV2sKuy/xOyRsBb1G5a6TLSc6ktAJaBwd6ytmX7CBn8zTO06USwyfiIwUwjoh/ob2qTP6YeC+03627zua4pM4gY0G89J1CJeHnUyJAKJQCKQCAwvAgYF5r7oOk9RtB+uO4VuzzvFHaZn6ukw1vEyZRwcpj1YMAMWtnJvTmjhDe61r31tbeNgEoapPSajrNqT0GIvltNPP71ce+219WxjbA4VumncJqMMmUYiMJsRIKicffbZ1QTMunib1XajR30JLDKweZYFexLmBjEFltn8yWXdE4FEYNgRwLyh5zbQxMi67jZwDHud+y0/jLi9JqgI8HFvGAKBhYvza665pgpbr3vd66orY0z5sNRhKnDWhkxSLLgnyNGcEVzsu5QhEUgEphYB8sTnP//5arFls1p7QHUbd/oSWCRGQKFZQeiWXXbZqa1Rpp4IJAKJQCIwLQig6U0Gtnk9LQUYgkyGDZPQrjB34hlrpZVWqhONuVZj4ceGp+E1zOzu1VdfXS644IK6X4tNZIetrYeg+2QRE4FFCOhf6667bl0nz2V8N2FFxL4FFgQv1OFMBzIkAonA7EMAI+SIQT3OvSDRjNd83/0I/aQXcfI8MQTs5G5/CuZg4dY522ExphZnX3/99fW7twkhpnYYgo1PL7300vLHP/6xvOIVr6jj90QcFQxDnXspY3zbFv1y73zZZZdVLdQvfvGLKsRgoOKdXtLLdxKBRKB3BPQt2y3QtPTqebEvgUUGEnYIvUhEvRc/30wEEoFhQIBgwfWgWVuzkttuu23dm6mXwV3cpmAS9Y17zpFOnONZvOu+e3E/3otzvJfn3hCAo0GDi1depLhz/tjHPlbpfGK6EEP40FDYHZ63rUMOOWQo1jpYb8McTNntJM11b2pXluwXhDcCqMnYwIpg18mD6pIp5K9EIBHoFwFjC+VHjOOceKGzncLCZfmd3mg8k/ADDzxQ3SLeeOONdSFf43FeJgKJwIgjEMwtj1IWq5qdNLAjNg7M3FiiE3EwTzwU2Tn++9//flUFu8f70ne/+91y1VVXle9973vl+OOPL7///e8XETLxY/8Ibtb9dtgYEwNJMyAd+Tri+Yg3xaRWD2aEULPwgfGkZpCJTTsC2lR/pDWz8SkbcXuvzEbPYJ3AN/H6nOc8p67h8u3TSOkH8MuQCCQCU4fAgw8+WBy99re+NCyYgksuuaR84QtfqNqVQw89tKy55ppTV5tMORFIBAYKAQIB4nL00UdXe2+mJvamaM7E77LLLtVtapidEGQuvvjiukEbQUd8TMJnPvOZan601157VQGFdx4zwLwQ2tzO5m7WyUWe4kormOuf/OQnlflimup+aHydHc0yDRSIA1gYeEW7WYzdyRf+ABZ/yosEH7PuH/7wh2teFmu7N8hBP7nnnnuKne3td7PaaquVpZdeOvvFmEZDJ0y6oD3PetazynXXXVc1Us94xjMGvo3HVCV/JgJDg4Bx/X/8j/9R+QGTKQceeGAdzztVoC+BRUIyMROHWLvOkAgkAqOPAOZHfzcbcsQRR1TXt9/4xjfqprLxzIJVwgbzCkyA+yE0mNhwn4bllFNOqfG23HLLykgRYM4444yqJWGOxMRMsJYiNCfOcSgHTS9b8wsvvLAoh3wcnlEzv+td76oMSOQ/+i00/hoGRgS/2Mhx0Jnx8dd2/DFtoBzrVoYBH/2FtuCKK66o5mCE/3TX+/j2D9pBCOUJjjc1XsOs45rtntQej1beSQQmB4GYUGFhYTzvJfQlsOjYfPW/733vq2mz+cyQCCQCo48AQQDzc+SRR9ZB3MZzhBfEBuGxlsWi1S222KIyvb/5zW/qjumYAJqR4447rjJOdha///776zPu0QVpE1qYmIV9fdAaG7thvKQhL+Yt0rj88svLcsstVz772c/WWVHpKAcb9O985zs13abAVG/kv7YIwDsEQtcYcucMCxEIfEzW+a4IL6FBHFSM9BMbImrX5z3veXX/lWzX9q1FGKWFQsus+bn33nur++f2MfJJIpAIjBcBNHWrrbaqk5j2huplvOlLYEHszNKw9xRytma8TZXxEoHhQgDTg/kx60hw+ehHP1oXHSMyGDjPBcKCe4QSJhbvfOc7K734l3/5l2pPb+2bdSoIlQkP79K60MyY3d94443rbAsTLwwEIeVLX/pSXaciTYcdqmkDuEIU5I95dHagU9bWZOgNgcDNzLKd3LXDZpttVjHtZRDpLZfhfotQ/etf/7r86Ec/qt/6pptuWmfjfWuDGqxfIcAbp43bzJ2yPdu3lskSGhaaXR7hbLapbyRm7THLJ4nAeBHQr/bee+9F4zYa2y30LbBIMBLOjtwN3nyeCIwGAgSCzTffvAod1q/svPPOZaONNqqVo2mxSN5EBpMuwsY555xTfv7zn1daQZix4Sxm2D0zvzZpozVBQ+xyy16c4IK2WJsiDUyhZzS6P/vZz8p5551X3SBabG9xLLvziy66qM6C2kfBrDcmjZAjJH3q/duDO3xPO+20Kohq2zSHWYwfxpXAwvyQlsWO6EwPB1lg0YdoJJ/61KdWDYv+kX1icZuOvULj0BuCHScFtL4hzCduY9HK34nAxBBAO4N+6mfG7pj4bJdyXwKLxHjkMROnA6+99tq5eWQ7ZPN+IjBCCOjvcQShCQ0rpshaErukG+wRH+/EII8ZJtBgiGlICCe8gjG/oCnxrjhMMG6//fZy99131/UunknDc3k5MF00N+5jKAg/TNEE9Ehe0srQHwLwxITD1ExztG1/qYzu2/AJT1LGQYvXfZeDHAgsNAUmEZiEqUOG9ghoT44/tDOTVrQlaUl7vPJJIjARBIzVnPagU0zHX/jCF3alUX0JLDJg0nHsscdWYm2Giao5QyKQCIw2AsHsODtCiDCg+02QiM2fMLtNZs595lsEDeZGmCeakR133LHOaEqD3TjtizOTjBVXXLGem/lJM/KFNsbaYn6zohbJfvvb3652+qPdElNTOzivt9561ROW9jPb7F6GhQjAggkjj3a+V0L3oONDsOIlTLmHUWAJ2jKd3yCBBU/DoQeNrzJkSAQSgclHQN+yLYFJMrzB/vvv33WibB41TLsQs5UIn/dIQtTLL3nJSyrjgGHIkAgkAokAIQOTK4wd5P0Ob0XswgkwzMHCXOWf//mfq3kX7S3TsW222WYJe3vx0SI0CCNBA7PWWmtVbY09XaRlAT66RHCimXHO0BsCwXhb9wM7WKP5zq1Cu/ut3m11L9KOcSXyb/Wue9o9vil5G4cIrq7jfru43e73UxffN4Z2rEDeLY+ZeA4X/YvppHYlYPUbpOFotk/8ds91hOY7cW8i52hb7TzZabcrl3x8/9rYt0krzPwv6Fq7eHk/EUgExoeA/kWT6azP6e/oe7s+P89LrUIQK+dICBGJWSad2MxmhkQgEZg9CCAkTSYCbSCEXHvttXWgNzuJofNe8+AFZM8996zvWoNincrrXve6urDe7K80mGLQwBA8pIH2oDnWpJx00klVi8K8ZYMNNqiqZGsKeC00iUKlbCdv5qrKJH6G/hDQBrCGe2gQWg0c0S79pb74be2jXR2uW+Wx+O1S35Gn4CxOpNEtbjOdsdfS6rUu3jPjzv2mb4tDCN/qVAb4NEP0p+a9VtdRL8K/YK0XAb4frKSBiWC6uc4669S+rW/5RtZdd92KAWsLG7puuOGGFQvpN/F0PTZP95oh6hRnz7WtTWR5AnzTm97UUtiKdOPcTFMacXiOXvUa8DXw0sYEPswUISZDIpAITD4C733ve2sfM4kZfbbTmDCv1UykiIKIOrvZUwkKiHRsPtWKWNSX8l8ikAiMJAIGcqZcaIKAwbWAHh2h7WCTymyGedFrXvOaRZoOQoVdts2e0Mzai4WLZPRk3333rczr9ddfXxfyYxgIQNKyroLr4v3226++h3kwY8wc9dWvfnVNK2ZA0as4RhL8KaoUeo85tqCcq2nC3+GHH77IxK+ZrXcxssaFwL2fcUB8bURrIr5xRfxOaShbPJevOA5pRDniebOs3a6VBUPqm1aWdmkEPvYz4bFOvocccsiifTq65TOe5+rMzNHxT//0T9WkS59T33blbOajzDQEgrqJ12sQ13HllVdW7SUHGjZ2Y15mskEftlYtNDhNwYq282tf+1pdVyYNfZ4LdN8Vc8/mu57zyrXrrrtWkxDl9JwG9YQTTqj3tLP8mkH9Ha2wEB9N+uIXv1jrvc8++1Qa0Yzf7jrSDJytqfOtK2cvmLdLN+8nAonA4xHQf9EHfVYfMy446/Pt6NW8Vh3RvWYn9TvuuS84tyIYjy9W3kkEEoFRQECfd8SMI086NB8YhLe//e1VkMDc8OrFixjTLu+blfUeJgTz4eAe+bDDDquMDyaILSsBhD2r38EY0bbE3i8Yy6BFYY4aZUL0MJJmfBG8KOMo4D4ddYCjdsQsGjiEwLpV/vHMud/QjOu63eAU6cb7fsd189wtfqTT6hzpdEvDe4QbDLnvzPVUBu3BJbF+gXEmMLz+9a+v2kcThiGERPmdI0Sf0JaCd/WdXoP4hJEf/vCHZbvttivf//73q2mZfqvuvhNpcqCxwgor1GTdl4czYebd7353XezPXTnNlDqwUdfvhagfhxkEBOXXh3171qJdfPHF1ZGH+ssr4ojnXe7PDzrooKoNqQ//9s9zzj3mz59f12PFt9x8p9O1tOXnrH4ElgyJQCIwNQhEf26mru85WoWOi+6bkVzr/FS11MQI/Jvf/Oa6J0KrhPNeIpAIjA4CCAsmDbOCATnmmGPq5mq77LJLNQkJhg9TxVvYJz/5yeraGFPBjHT33Xcv3kVDuDfGBNGumLX98pe/XDUrNDL2ubDfCwbHQn2CCQEkaFGclUeQ1sc+9rHqDck9ZmXvec97KiMT745OK0xdTWDF9IcpGA1XMImdchwPvmPjjP3dKr9e3mkVb7Luyd9hNhDTjbHmFGIqy+Vb1lf0NX3uggsuKD/+8Y+raRbzShu08orHRJJ2U3tFH1Rv8UNgIUg0n3XCRTyexbguZ/KtH0vb3kmeqTuzTy7OmYjRyhFSlPVtb3tbnXSAiz6rXPIVzyEdfd4EBlqij1tjE9+ae/KhqZW3tW1bbrnlIg2JyQyaVxpXAlzEi/ooG+9eysXM1G/59hOUNyZGTMioW4ZEIBGYfAT0TZpXfcwkzCte8YquNLWjwDK2iDLAYFDtIko2f8uQCCQCswMBNuvMPTAKGDdMRQzuwRChC5io//W//lddIG+W1oJ4TLDgOSHkuc99bmVozKTusMMO1duX55hm5mJml61VidlX8ZohfmMcmS8FY6IccTTfz+v2CMDSgQG2n402jXZtH2tmnmhnB2bUIWCW43vop1TiR9w4t4svT4y6DTUF+EQ52sWZyP2onzyUzdnBzIsgginX/6zheulLX7rIExjthu9f/DAJU9bon72USX60o0w0bdL61re+tQ/hSpUAACAASURBVAog8idgEBpMFDDz/OAHP1jsw0SjgR/AH3iHAw39nHASZXf27nHHHVf3VfKc4EMAkydaQePyqU99qrYnjax30QRBHmiQTWhf9apXLVGnSPv8889fpIWipe33u/B+fPspsPTyteQ7icD4ENBnjzrqqEoj9GeTEPpep9CXwCIhMxdmdxBAUlGGRCARmB0I2DflQx/6UGVA2jFBBny0ATHCSLG/97t5H4PiELbddtt6DsYCE2amVnzxuhEwz7u9MztaZ2K1bLaRlPwetBBMKffXBFkmSr6bsTPtvZZbekx+fD/jTaPXvPp9DwNPWxAz/MrqXgTlpnGwsJ5WwrojAqcF8PqQSQPCQ/SjXtsTnrSUsLVZ6xve8IZaBtfSctCS0KAom3QJRiYl3BefQEVLClcTFeII1113XcU76IJ3CT3qIa70Dj744Krlo33xHmuOb37zmzU++sNEjaYr1pkEHrQzFunTDhGCCD7S7zeIo9zOHCwoU5S/37Ty/UQgEWiPgH7F26cJDlYYJlm6jeV9CSwSW2WVVSrBUIxBI/LtockniUAiMFEEMCcxeHdjBuJ5nCPvsb9b3Q/mqt27ESfPk4OANnVY4G3jTswo87xg3CYnl4mlgkEVCCsf//jHa9l6/RY75WyQ9J0N2rembtZQ0EhEPVvVQ/kFDL71Y7zvWcjOvII5Wb91kxcmncMLDLtJSedLLrmklsNzWhzaJkINQYFgxTlG5GVSk2kooUmZ3BePEOE3rZBvjKkbIcyifGX2vdGieB9vQRgjCEkv0ubWnOaDdsY7nsmb4w+WH/Zlsq6G6fpEA2w7YT/R9DN+IjCbETDOv+td76p9TP+Ocb8TJn0JLBKUcITmddzLcyKQCIweAtHX49xLDdu92+6+ND3r9LyXfPOd/hHAmDHJOfvss+tsfZjcDEJbKAMmF/OOCY+1GcFMTqSM0ug1PuaciZNAM4DpnqqgXPIjFEQ92+UVdVAeDDszSQeti9lLQkEINu3SaN5nzkUAEIz5HFgQXNSdkGDS0kZvBASmYRwR0GrA0SEO4cO7TZ6BOR1BYqeddqqCBo2L34QP5SPAhIDG2QahmdBC8OEVUPCOdW60R9L3jMBEGKK1pYUJ4db7sAl8agJd/nk3sNLG8uj1++iSdD5OBBKBBgJBW9zS79C6pha58eqiy74EFh2Z+hdB04nZt45nQ6pFuedFIpAIDB0CiEuEuA5mJe63Ose78SwYAffjWat04nm/zyKfPPeGACYTs9dk+HqLObVvYRoxuRhYplC+A9+EAS6Y4/GUQBq0Cert6BS8i3mmeTCorr/++nXfn/iGO8UdzzNjLYHgjDPOqBoF+UeQp3pj9O09xDkFMylCBYadBoTw8p3vfKdu2CqtZvxIp9VZ3QiExnamWgKNxkUXXVTXktC20MQRWpiOnXvuufV7oXGJdrFJrLVu8R0xC/VMuWg/brrpphqX+VYIQwSPjTbaqJx88snVQxkhxOJ73sq8w8wt0lcmWhUL8t0jZCuHMjBdE3gLVG4L9AlKBDmYdQtwCgEPbxN16BYvnycCiUB/COhrJjuc9TP0rFvoW2ChkkeMdP4DDzwwBZZuCOfzRGCEEEBczPxeeOGF1WaeCZEF8rEnCrrgHYeAoQhGI7wdYXQwMTFDHemZPd9kk03q/YjnbPaUeQxXptJ3T5AHUxiMmXhmYeNZfSH/9YUAxo4pkXYxgAwKltrc7DnzoPiunAkbnhFoxhOk4dsTv1sa3vX92jTRNacRGOmpwgjTrH5MqKJPycthHyJ9gf23vmQTS8KAdSDeFQgpmHwhGPD6o8s/6dNuEH6M9REIAzZ6tejdhq2EKfnKh1lWk7GnmdBe8CHcCNL1jnU23A4TBtAOC23VR7nFs8CeloUwKh/33SPQSAP26A2BJtqNowjljeAdQfqEXOWLe/FOu7P34OVMQ9WsV7s4eT8RSAT6R0Af44WQFtgExB577LGIfrVLrS9KLwOJ07IgJIh9hkQgEZg9CBjMuVc1042BO/XUU+ueCV/96lfrbC+iY5Dnucs7mJp3vvOdlcHD5NiPxQwu5iRmtrlHP/HEEyuDYYGt++gL5vAtb3lLZUzMtjJT4RrZTAzmRUCPMFYEpgzjQwCW8CbwmbGP34Hx+FKdvFhRjtCCGIccmGXldj/e6SdX8eMb7JaG/DDZmFgh8otzP/l2e1deQtQNY47ptocJUyzaDcIIRt8z70U5nMV3Dia+F1OLKBMcwpRMugJTMPe4KTZxwCU5IcK34hmzLtqR2JNF/zQhIY4Z1GbZmKoRfj7/+c9X5z00Q/KUF4HLQnvlZcVBq8PUjHliCA7ajCCnHOKov/UvYTKm7g7xvUcAD2En6tjpLH35S0P5Y1KlU5x8lggkAv0joK8xC8VH6Pt4i6A57VLrS2BBeMxm/Nd//VclQghFhkQgERh9BIIRMGNKYCGYcEnMuwehwjUChBnBsPz3f/93HfSDEeGGlZtUXn5oZ3gaxKwIhB7mHZgQBOxNb3pTtcFHxHgZMuNL6OHu2KJbs7JCMBcYkzjQKHk6glGqL8/CfwvKwr+o+pyy8C9+tzuL9Vh57G9vL16zGOk1z1LsFrwvxFna/voJzbZ0re2dHd0GuXb5zJk7pxQ8+ZxSXEddopzOC+8u1ujpB0Lk7TyeIO3Ip5lHpC0f/YhgQHA3A0ljEdqvbt+4cpksEPrRsET+UT+/efwiSBAOmInRkvjNvTE6QBNyxBFHlPe///3VS5cJzRASxuKj3ZhrMfXCqHjunhA0hitj+85wX0w4I6zEM5MgaAnBJ9o9sIg0pKes4oVAVzPo4Z98QsOSJmE9AJavJALjREDf32+//erEpgmY6M+dkutLYDETgggGIewlg06Z57NEIBEYDgQwAUws2NQHk3L88cdXO3E70XuOQeBalOeP5mSGeJges8OEFEyEhbNmjQV0BBMU9IVQhCHBoGEgpG0GVbps6PluZwbmvtlQTJRZXvlLSx6HHHJINSEayzANB9oTLyVm+NHyaPlL+Ut5pDxSlipLlSeXJ5e5Ze4ixjxyCWaQIHr9z68vT3rKk8rW229d2+lJc55U5pV5i9IiaEgXk/2U8pTyhPKEx6UX6cZZWf5U/lTjuX5szmO1XOL6HYJCvD9dZ3X5Y/ljWWrOQmyeVJ5Usw7cPP+78ne1/jDyXTLRwtDap8Q3Op7vS53/Wv5aMZDhE//218Qh+gSzr9BARF5jz63w8k70L5YQ+kk/Qf6EI6ZX4q633npVw2JywsSCdSPMrfQ162ZoX9CGZz7zmXWSgQbVwnhYCfCjDWVOznyNBpZW9XOf+1zVmnqf1oWXs//4j/8ou+22W+3L+rjJkGOPPbaagklHvkziAodmvdxT9h133LHSB9e9BmkrL9NUZ0yUerXKp9c0871EIBFojYC+ae8m/S76nnOn0JfAIiEdOYifzoyYZkgEEoHRRkC/Z7++88471xkRHqXs0RDuSC2gpQnh/tQAj9GIgZ7pyK677loX29qV3gwrZogWxnsCAUYwg0pLw6TEDKfZWnautC4YIzO3e+21V93MDnGzOZzZXUKU2dhgWAhFkX9NeBb9w2j/ufy5XFYuK18rXys3lhvLMmWZckA5oDyvLBQSCTBPL08vzyrPqsg8tuCxcslll5TTzzi9/N0qf1dO2faU8nB5uLyjvKNsXDYuV5QrymfLZ8uf5/y5rDlvzfKzpX5W3lTeVLYuW1eGnkDy+/L7KhxJsKk1IDB9uny63FpuXZjf3FJWf+LqZYe5OxRCwp3lzqpxUUZpELIijBVo/CYoKbey3D/n/iXy9LwZJ4QAmBC8nl2eXf6+/H0t311z7irve+L7yh/m/qHsVHYqby5vrtleU64pnyqfKneVu8q/lX8r65R1app3/vbOctYFZ5U/PumP5fkbPn+R4EbgUI+HykM1fuSpHILn/1j+sQqNhKEHy4Pl7HJ2Ob4cX+v6xvLGslHZqL7n/RpvTilPfMITyzPLM8sT5zxxIZ49anPiu2eipR/QZDDdIkz0EsTHrB9wwAGVkSA0uRfp6pcEAiHubbrpppXR55TA5AMhwy7WHAKY4LTmh+YEzeDyWDzp6/cW2m+99dZ1kiHywcy4diagSDNohXv4jsh7bJ0iXqQ19nmn34Q7kyKCSRJa3gyJQCIwNQjo092ElGbOfQksErfg7corr6zEgqoaIcqQCCQCo40A7QU7dQIFEy525YQU5iCYB4M8RsLsK/vxpvcPAz9mCWFyjfnAELViOCyi5yoVrXGYecUwfeUrX6lMjRkZZRGkR/DBlDnHbGirdEe7dRbXDrN7f7m/XFguLMeUY8q95d6yXFmuMvlHl6PLr8uvK5P8jPKMsmvZtbylvKUyww8veLjMfeHc8sR1nlgee/5j5b459xVCzA1zbihPK08rN5ebK6NNmLhh7g1VyDi2HFvWKGuUFcoKVSj6/8r/V+4ud1ehiEARjDthgWZnu7Jd2bHsWO557J5yZbmyClW/Lb8tHykfqWU+sBxYpHldua48tzy3MvC3l9srA/+i8qLyQHmg/Kb8prysvKy8t7y3EDi+NPdL5fpyfRUI5Kl8BDR5EhIIQX8ofyi3lduqtuRfyr+U9cp6VcD4ZflluWfOPVXzRIiBHSGNcHZHuaOmQRBz37f27KWfXV68/YvLVa++qnz2eZ8t/zDnH2p9X1heWFYuK5fvl+9XgYhQqO4EMUIP/I8oR9T6KBth5bRyWtU6vaC8oBCQ1EE+N5WbKhbwWmPuGmW/sl/FOLBc3NKdr/QB/YKwoG/y3KXv9RLEHc9EJBM2G1fCSt/VVyPQjgrSRiccymeNCmcPcd+5Vei3PNJpl1ar9N1TbvTLJAm6Q1hRzgyJQCIwNQiwyKAAsV7M5Ea30FFg0YGbARFiQ/7lL3+5dmSzqymwNBHK60RgNBFAC2hZ2I8zjeHWlamXyQvBzCRBBRNirYprZ+5EzZ7G7C4zEe5hMTdjGQp5MMcIJsFzjMO2225bzcksrqedkTbByfsEHPbw1sV4Jg6BhpeiF77whbU8o9kij6+V2fvLy+XlJ+Un5TvlO5UB3qRsUnYoO1Sh49xybtW4MEdaq6xVXlNeU5lyzPHDcx8uz9/i+WXtTdcu9869t1w578qyYM6CykwTejD9mHnvbvbIZmX+vPnlV3N+VYWD5cvyNR1CAu0HIUi+3hUqw18W1N/uLb1g6bLuw+tWDcLPys8qI4+xx8QrG9O1bco2ZdmybPli+WLVoLy7vLtcWi6tv+XT/KPdIAxtVjargsa/l3+vwsAbyhsK7cW15dqqHSJMiUfwce+Sckmtl/i/Kr8q8JE3zRRTMdqN+8p95bvlu2Xe3Hnleas8r2y10lbljrl3lCfMfUJZu6xdywx3fzQ4G5QNyj5lnyqwEBhPLifXPGmZLioXlZPKSRVT78v3VeVVVUtFgLyqXFW+Wr5aBRYCG80WYahfYSW+DEw+gcXkgb5qkmEqQ/Rn57hulV88i/f047hu9f503WvSE3THBEiGRCARmBoEyBOf+MQnqgYYn/C+972v63g9L8y7xhZJ55Wgc5iBWdiqI1v0ihjyUpIhEUgERh8BdADT841vfKMKGwQTNIA9umAdCa0JQYImBs1gqsUDGOEhgllLNMSMSggm8UwezFe4NRUwMTETKx9xCCgEFvbw8iIwEX6YvNDMiCMPpmPo12wKmOCLy8WVwb6n3FNn+2kIMMrMkOaX+ZUZZg5m/ciPyo+qBuIVc15R/jrnr3Xh+XLzlitPnvPkylRjsjHSmGeaDcKEPH4x9xdVeMGg373g7nLnY3cufDb30YXCyWMLypwFcxYJLI9rg0dLmfPYnLLgsQXlpY+8tOw6Z9eq1cCcH7fUcbUsNy64sdw85+YqMIj/vfK98scFf6zrX2h+HnnskfLogkerMFAFInlKc86C8tjcx+pZ+g6L6hfMXbh25pFHHym0Op+b+7ny2zm/Las8tkp51oJnlTOXOrOcU86pmpJb5txSnrngmWW9R9crvyi/KPOXml+Fhu3nbF9WesJKZam5C82R5NsUnPwmXMCFpoewA0OCCdxoUWhumJi5RzA6vZxetTRLl6Vr/oSqVcuqVQDbsGxYnlqe+jj4er2hj+qT9j3Rd4317k1l0P+EOHfKK96Jc6d3p+MZekFrTMPCmQg6Mihlm476Zx6JwHQioL+FYwvOddAnPAXeod3YPc/DVqEpsIgcgo1FdmzMET7nDIlAIjD6CKATBAXCB6HBQI64IDSEFZMZMSPpvuBM4GgO+hGnnYZFPoSRZkB/bAhHu2OtClel7vFSRCPDDIXLVzRJXlG2Zr7N9Eb1mvZiq7JVNbWiraAt+IfyD1Xr4ZoWIsIN5YZqMsbUitnUsguWLX+9/6/lvofuKxc/6+LywFMeKCssWKGs/ujqVfB42pynlSfPfXLVTtC0rP/o+mXeY/OqmdWCRxeUR+c8Wj1u0cR8b873yvULrm+rGSA8lL8rRd4YdOtWrPP4+8f+fqEwUOaUpR5bqjL+1ZOXdSCPPbHWqyy10HTnsUcfqyZrxilCGe3ITXNuqutIaFAIEgQ062ZoiAgpcxfMrd/NIwseKY/OfbQ8YcETytqPrl1evODF5da5t5Y75txRBTXCxsaPbVz2enSvmueVS11ZHlrwUPnD/X8otz54a/nTMn8qDz35ofKTOT+peQemBJbfld+VE8uJ1fTu6nJ1FUxifYo1P4QRGikmatqAYHleOa9irMxwoKXZtGxa4xKAxqthoWlkBkawt9bLRorG7NnWL6J9up3RMYId+mOCJGhU4tUNuXyeCPSPAF5gn332qdYZJjH9Rs/xAO363LxOMy6YAhElFHbjztTM7o+dIe2/yBkjEUgEhgEBfd2idp677ImCDlgMy+0qQcLeKjz3EFwM9n43hRWESGBPT/Ah6IwlSt5hWmZmM4J7tCdMvpi0YCLQI7bmtCtrrLFGNRczocJzmMW/8pf22PQjzVE9E1isibCeggbFmo51y7p1TclZ5azKRK9f1i9m7q2jwNDTANBULLNgmfLIeY+UG6+/sTy080OlrFjKK8sryxvnvrHCZW2F9Rd/mfOXssZja5S/zP1LuX3u7XUdzHPmPqcKBDQZtAsrzlmxvHzuy9sy2oSNhx97uCy71LLlr0v9tZw2d6EpmHTnzlko4K44d8UqRF0x54paxo3nbFwunXNpLYt2XWreUmXuo3Or9oTGaPm5y5eXl5dXAYipF6Hq+XOfX14595XllnJLFQ44IvDt+CNcCDyEzZuzUNB1VmfmaWvNXas87QmLLQgIEzf/8uZy9xV3l99v/vvyrBc8q5qsSVta8UdzYk2Pxf3K4/dqZbWaJ20VkzmL7Wla5KOdCCjKSzsmHeuPCH5bli2rUKddxyO0WNfFHTK8ePvCjNtoUphtfaNWuss/EzFM3gUTMzS6iVMX0PJxIjBOBPQtpmDkjBBUnGPisVWy8xDwVkFEh0QxHt6LhM3YuB8LXlvFz3uJQCIwOgigAZgd5hL6vrUovP4QPgghBIb58+dXr2G77777EhUPWsLNqo0fYy8XwgXTLQFNIfgQTuyozcOReGiONS8EFFoU5WA2du6559Zy2BeKEKU8hKgvfvGL5W1ve1vdNE85Z1OI2fg4Y3T90UBYK2KNBGYaw+5+M9ByXPGqK8qVL72yPPachRNVPy4/rutUvMs0yboOZmFMpq6Ze025be5tNT0etrwj32DQCUVj84j8aDj+8MgfyhPmPKEKDLQKGPYokutz5pxThSMaC+Ejcz9StQ/1h+1T/ibYyFP8Vcoq5bXltcUi/W+Xb9eyENzcs16F+RvNCY1NlKt+l3MWjnOELWW3rodwdu2ca8vr5ryupiMP28b47u68486q1XvagqeVF8x5QcW0PreOq/ylmt9xUCAPwodnBEfriE4tpxYL/bXH5mXz8vby9voOczBht7JbxYFweWY5s67ZWamsVD2YEXoin/pyD//0B/2I9z7CioX3+lO7Mb+HJEf6FTSGWelyyy1XMWs1qTLSAGTlEoEZQMA47UCbBGO8o1XoaNA6dsBH4M1qnnDCCTXBPffcs87gtEo47yUCicDoIBC0IM4W0dv0ycztt771rbrA3maQFuObmbQQPoKZS3sunHfeeVWwoUUhoDDzCuaJGtg9NMamcZgt2hMq48suu6wyEHbuxjSiPwQUro7ZwGLEwl2yPN1jOkYbM9tCMLXOcY1xpiGwjiKY6OZz/DimerOnblZuftbN5c6/u7N687JoPYQb6zG+Vb5VTZkunHdhdSdsbcsWZYslIGZ6hvGXX+QfZ3kLcW6Wwb34o3WgGXpded0S5WX2ZR1IuxDptns+9v7Dcx4u31zqm7WOhDFunmmdeFKDFWGH0FPDnFLHujWXXrOcvezZdYCNekW6sKJhInBtW7atggnzMIKMdA4qB1WBTzkJgD8vP6/aFmZhe5W9qvcygs6KZcWye9m9Cj2EMWZ94wn6qjUs6667bnWUYy2L9WGpOVgSTTSHZpiwgpbwWsb0vR3TtGTs/JUIJALjQUC/s6cafoBGM7wFdkqro8AyNiKmwqI0M6E6cyyOHfte/k4EEoHRRkD/JzwQRFZeeeW6L8pXv/rVagpGkEArOOVw0KLsvffedTM492lH2NTbhC5mMdmP27sBTbHrfdzHQJx//vnl4IMPrjSHoHLdddfVDSqZpmHKHPvvv3/58Ic/XBkOZSLkbLDBBvXZaLdE99pZw2HRPYaaq99WgWnU7575u7pG5aXlpZXJ5lIX035oObQKIda6EER+M+c3lbl/W3lbZbzHMu5nlDPqvivcK8sznouLWZ+31Lyy8RM3LrvP2b3+Vh73PRfE4ens6+Xr1Rws7vGoFWnVF/8WTz6Hl8PL58rn6vsEBIy/37yMSds9JlnN8MQFTyw7PbpTWWXBKuXzT/h8dUhAUwMr60t49HpPeU+NQqNDw7j8MssvNN2yuP9v9Yk05cGVMeHH2hy/aaSYhxHiCEQEoYhHq8WkzD2CifvKTZjx5xoWTQwjr17O+oV1ZfZBooW84oor6oSCNWAZFiOAcbK+x4QKuvb/t3cnwL4U1f3A5wn6l6gRCBrZQZYnawRlEYhCBMQlJaQMpSm3KFlNKhVLMIsUKC7BKFEDahIJQoQQFtlXCYJssikCIggKIosoKEpc4vb+9Wn8PtvJ73eX+T3eu/fd7ltzZ35nTp8+59s90316GzufemfBr4WGQEPgsUHAiMo555xT6nyfLjClXEflVGFWDouH2VahPh7nYfYibKEh0BBYGAh45k0DNYLh+ys++OYDcj7o6N7b3/728p0mjoOOjX333XdpxW9x/HnnndddcMEFZZtjH5LUiEqjgFwL7wQvLSMv7lk07AvYgt96Yg477LAyEhOas3eT+6ZzcG4yclMiLqB/GvQauxwTDWU9/hrGFqKbisSZ8B0TjWHbBpuO5GvuFpX7PspTfvaU4pDcueqdZSE9x8HHI7fuHl18r/Es7pZLtixrVcg0ImJUQkN93W7dsk5DQ90IzPu695URAnrRw1a/RjEy2pOs0Vi3Y5bF6Hj9Nlpjupl4dvDieNTBOg/OihGIA7oDylbKdjPzsUd6vaZ7TRnp8J0TH700klEH6fhjT66NbvhtatlN3U2daXHSLX8WhP78Z2UXMo4GXdkMR4G+7Je2uNbMsNNaFrid0J1QFtizDY9RK/F9A+ao7qiCIz04TGyzKYEtkm1BPSR4HswH9wx5bmwLblTTupb62Rsie2WKoxPF6NONN95Y1r9p46TDZGWys9nSEJhLCHg/meats1Knp9/ThVk5LBoBFt4aLhU0ElpoCDQEVn4EvEz0RHr284GnrbfeeqmjAAH3N9poo+5973vf0rnycRw4I7/3e79XDrLiYESu6Vu77bbb0pcWumNUiMxR90IbFzf3V8azxq6Gse93WMjtt4b3Gd0ZpfFs22AL542c+Du8O7zsEGb3LL7AXl/dq9vi/i18mr278bk3dmeucma33aLtygiLjzke0x1TGtJPXfLUbuclO3fvXvTubsdux7KjlQa6xrdRBAvLNdQFzozRBU6AazppsPcdFtOofCleQ14DXrAhgDUsRog4QHEc3CPjkUWPdD9Y9GiD38cZfeBSGtKCg2sjF/787ge61M6Ka3+ws+Uw58e0LWlJmxP+4MMPdt9Z7zvdpqttWrCBbYK4PhrJSfTxSSMsptpZyC9907x8rBPdAnt4Wny/X7dft3+3/1JH79ju2O7U7tSiCxukPTR4DnQsahhYUG6UxXPGgZnJczQ03fkUz65gl1xySXl/cVa0cVrbZj7lYNN1PiLgGTv44IPLc6ftoONgujArhyXC0hjIOfR2bgg0BFZeBPK815U5Wugsz+/aIQkidQMpfIlTn/vXiZ9znV5o7fxLBDTE/WnoW/dhepNF3rbV9RFEC9BNleK82OrYwm4jMCd/+eTu4s9f3D3+1x7fbbH9Ft3PVvlZGd3wBXc7b2m8k6sBzcEwguADlRwC3ytxT4Od4yDg09hPgz/nugFOjoa+aWhGfoxcGDHx0UZbEnOUnt49vaxpMYIhDYGz4jstGv+cFU6Oe7lfpy8NDg+ngTMlvfo+ffLnHsfOhyvRjCz5YCWn7s4v39nd8cU7ukde/ki37WrbFkesTo9Mzoo0OG/StckBTMjFywmTHxbW22p5m26bMjLE0RNgJJ7zsgpGRE25uPrqq8sIi5EE09sW+iiLRpLDyNPll19ePm67yy67LN36ub1nllUJbHIaAqMRSDsgz2IW3o/m9n6dRSDUHHI7A0lIT6sFfC00BBoCCwOBvGBGWZsKPueaZ6p4+EbFqeO365kjoMF7Q3dDmc6kwe9Dhb74boqWXn7OwSXdJd0V3RVlrYUv02swr7bNat2G62zYLXrCou6hxz36VXhTroyecCSsYbEOxBqWry/56QbNOwAAIABJREFUemmUcyI4DdZukLFZt1lxZDTOTW3iIMWZIMvUMY5AgulrvjmSDye65zslu3S7lClRRifskGWkwS5bcRDwoXFuLGg3kpF7zu5zCDhUdu0y/YpcU+U4DXh+uuin3S2LbukeXPRgcdjoxLHgdHBYOA0cNc7Hk5c8uVv7yWt3D6z3QPfDx/+wW/fn63arrfKoA0VW0uRkceRMx0MjA40DZlSJ80MnO7aZKvbK7pVlK2q2xEkxsiNw/DLaFLxme/Zc6TzwIcQtt9yy1N0XXXRR+ZaRUZaFHLRnTFU1tdXGIJw626zqWGnvo4VcMprtywsBm/NwUqy1y46hU6U9K4eFYAte//M//7O8BP/sz/6sOSxTodvuNQQaAg2B5YSABvHp3ellKpNGup59a0D04mvQa4xrGFu87gOGvtlyVXdVd8KiE8p6j1c87hWd751o7F+56MoyXWlxt7h7U/emMrrCEeJgnLbktNLQ56j4UOWzu2eXqVscEiMKtgXW6BfoZHRD2q4F10Y7nC1y53CYGmWUhwxp7tntWXg0+j/Xfa44TbYnFsc6kw2WbNCt8bM1ioO09iprF4cAL0fB9sDS5ARZ/M7OV3WvKvGM1nBkkj592Csu2YLpYLaB5nhw1NzfftH23Q6b7NA9tP5DnY/PG+HhfHEyOGnis4/jZk0LhwfmPuB5fHd8cXrgYnSLPPpwJK1TMT3MqAtHCsb4jHrBQB6SPUnQ+Nax6LtJPraaTStMFbNebKE2zrVnvvCFL5QNPExZ9QFaH9asR5Anwb3FbQg0BMYj4Pk75phjyodaTTW3WU89C2NUzFk7LOaZ+eaCh1qCLTQEGgINgYbAikdAQ9goiilJnBTOgFGRunHuOn9GXYxeWIyucb/2Omt36z9j/bLY/tce92vd4kWLS3yjAz44Sb6PTD7xJ0/s7lnlnu5xqzyuOCsa5hrWnAPOhJEWjg3nyIJxa1gE61M4S/cvub9b46drdE9a9UlFF86NaV2v6F5RHCk2ZN2LNDkhHCGjIxrx7CojQktW69b++drd41d5dG2MNIwAsStB/AQOiT+2+gbK/y75327dn67brf641budVtmpOAycDwve6cN5cPZNmc0Xbd6t/uRHP/zIkYGhNTe+Ys/pYJspbdKDOSeMjpwXTgy9OE6+xyJ9DqN84oz4TSaHRXzy2GwkLDyxYciZQ2LxvXUs2267bdkY48wzz+y22mqrMktiukbCkDTnehyjK3Yg/K//+q+y6BcW1vbo6V2oDtxcz7Om38qFgGfwpptuKruNxp+Y7l00K4eFMC88H4DzUDu30BBoCDQEGgIrHgGNaB8+TCNdYzh/fe003E030sgW8PkCfVn4uKjrFj9hcbd4yeLynsfrfvg2/fmmpQFve+JHXYDHld2xslbDVCbTrwT3E49jIr2tfr5V9/2ff7/7f0sedWTIprvpZTt0OyyNlzQ14K0rYZc/vEL0whde9NwvTNW/8HAkOCFkcVroRXchsjgc7ieUuEu6brsl2xWSbY6FNG7dt96l0JZKWVQcx9A5h5EZ3PCjG1XKvSLkF3ZEn9CGnulpi3GjCEYVfHPENuQHHXRQoceOofLnU7x6KhgsrOX53d/93bKGBQ4LCYv5lG9N15ULAU7KW97yljIAYjrYdM4K62flsEjAAj6H4HcLDYGGwNxEQMWrcs5hRLRVyNPnVY1XuNOIyTn0uXTWuB3XWO/rmYawhnPs/dSnPlW+X2PHtr/4i794dLpQbzoSfg186RhBGRfG6YEubTKiAxnjdA+PdOtgKlbuOSeElt+jzniK3b/YFGA6W8jgTNx6263dueeeW5w6O95ZFxLHZVQ6M6VFn5nyD+FTbjUI7Oz30pe+tDgrV155Zfnoqw9Aq8sXQn2urHPKrePx3RUfrZOXFtvDZy4/30PyvcVpCMxVBDxrRn09k4L2Sa7H6fyrtcA4roreHugKjHbZEJijCHhOn/jEJ5ZK+Jvf/GZ31llndd///venfSHMUXOWm1ppvNtcRAPeYlzTaRwrc1BZ2PbW9q4asqb9Tld5rMx49G2DjylE8PHh029961vzDp+8E/bZZ5+ywNyC89NOO63sHsa+hRCU6VtvvbUstPdeNBXs93//98s3oGbSw7sQMGo2NgSWBwLeR545detMOwtmVQt7qRlKvvbaa0tPhOHlNi1seWRtS6MhMDsE9Jbuueee3e23314W2lrcZsGtKSBGSL0kWufDLzFN4/zHP/5xcVJ8nNL2r16kO+ywQ7fddtut1HgpC+uvv36x09ShhdDb/svcn/4KPr6A7pnizD3taU+bPtIc5JCv8veP//iPi4N6//33d8cee2zZ5tg3SGbacJiDpk2pkuc7TucnP/nJ7qtf/WqZAvbXf/3X5QyX9j6cEsJ2syGwTBHwPGqTGPG06YUP3E4XVjnkkEMOHcdEoF4YC9G8yH7yk58UZ+Xoo4/ubr755rIF4EwSGSe/0RsCDYHHBgGV71prrVW+IPu9732v9A7rbPCCsDvQmmuu2ZyWCnoNGl/cve666zrOitEGDbu99tqre+1rX9tpzK2sjRplxeGDeXvssUdZ5zDV7lEqGFg4hgRYq0vUKZOMXKmf6D2JHjO1RTqeGVvf7rTTTt1v/MZvzMvykLz2JXffYrn++uu7e++9tzPaYIrbTOeSD8n3FRlHWbGFqkX2RsiUGc+1ndOe8IQnDC5DK9KmlnZDYD4j4N1rp+Gzzz67tE923XXXaeuEVTkk44KHXOWi19G1niWVuHmwKrSZ7Js8TnajNwQaAo8dAhomGoSbbrpp9+Y3v7k78cQTu0svvbRsafrBD36we8UrXtF5QXBqhjb4Hjvtl5/k9LzqaYbPySefXL5ozkHRm77vvvt21nTACKYrc2CjSsT7Pg3bUfaqC1IfjLo/Ha0fdyiu5IirXhoaZmOLsiKo++ZzgJl3g+f/oYce6o4//vjiuHAeX//615edw1am8i7fTOE75ZRTugsuuKDk38te9rLyfOuMXcjvv/lcjpvu8xsB76ENN9yw7BKmAyidR9aVjQuLvv3tb/9yK5QeV5wVL2gPtZc7B0eFpodmjTXWKKMvvWjtZ0OgITBHEPAMO/7nf/6nu+qqq0qD/I477ijTwsxlf8lLXlKmdU7S0z1HTB2khnfZXXfd1dnm9cILLyw9/0YaXvWqV5WpYN5zC6FBo4w8+OCD5TD6sd5664110DR28asPhgRxORkqrKHlTlwHWY4hQfzUazOR8cgjjxR89MiraE1jIGO+BjZ7L5xxxhmlMW8k9kUvelH5HgL75rtjJl+UUc6KzRJOOumkklV77713t//++5dvrijL8zkP52vZa3o3BDybt9xyS5nZ4J1qSrJ3Dvq49/GiH//4x2Pf9iJ+97vfLS9mgghB84B70L3sF0Jl3opWQ2A+I+C5Tc+5BafnnXded8UVV5Tn2JedfbDJqOnQxuN8xAYmenKsx7Pw2FQ577QXvvCF3Ytf/OLSywwP77eVvUGT97ovfnNqbfNqrZNKZJTtHBq4wGtIUBZ/+MMflvI29LsXKdOpi4boIc5MbVHv2QLXlCL6H3DAAeXL8fO9/uM4csQ4LWxjp/Va++23X7fNNtuUjslRZWAo3ssrXsq0zhlrVi6//PLyvJvi+cpXvrJ00qQNs7x0auk0BBoCv0Qg73DvHO9UvwX17rh3zqrjelEiLBVCHBY7DT388MNFsOkkdiJqoSHQEJi7CHiG0/i2K46RUUOwl112WRkxdX/cC2LuWjW5ZnlB6ln2hWtTwBz52vVCwgQW1jFYu2NTBg3xlJka6dQLGntTVSx1nP41XOPwqFeG4KySows54+qwfrr937UtU8nAJz0OrqmDnBwOF/p8D/LxqU99ahlZYZeRCJ0ZOiptf2xjHSNJ88kxky9mglifwxG75ppriuPl2baFsY2Chpbd+Z7fTf+GwFxCwAwHz2vqA+/ZUfVOdF60ZMxbF1lk23taq6InTG+Mh99cUAm84Q1vKL1MEdbODYGGwNxFwDPt8BzrdLAI35o0i20XYseD95uGZ0ZXNtlkk9I404gb0oieuzk/tWYpF3fffXdxWoysGHEbhQNeDXf3pmrkT5Wi8qfjS3xT7oZgLe8yOjJUj9nYIj3rPewuJZ5pg3HsprJ1Ptxjjx5O7wTOihFH0yR1arzgBS8oIxI6J+XTkLxanhjIJ86WhbycLw6mfDJiZPRUZ4SyO58csOWJX0urIbC8EPDOOfzww0vngrW2Znp4LqdaVzbrbY291G677bYiWKXTQkOgITA/EEiDQwNPY8RIi6BHYyEGL0cNZh+vch0c5nqjbFnnVew1h9iuj7BwtPBLBGBklzCjEcIoZ+6X3PPrim3sYZ9d4pQBC/E///nPl+836diwpstUsdidMjMXLOVwOTgrRghPPfXU0rGqs1VnzBvf+MYyvU3eRf+5oHfToSGwkBHwzNqV0zo6nVgcmOnqnVUOPfTQsdsaE6gHksejMvdbY2eDDTYo2ztuueWWpUdyIYPebG8IzDcENDYcaZjOpcbH8saS7RoxsAguy1uHuZJe7K/Po3RLxQK3ISGjI+KrT6Q325AGqrhD9ZDmbGwJLnluxB+i+2xtXR78scPomtEU61c0JHzHybbH1nrprDRCYVQ2WCwP3aZLQ3myYYRRFZ9c4GiZEmYL6gMPPLDMArEuSzmJndPJbPcbAg2BxxYB7/CvfOUrZXv1zTbbrHzE1buVrzHuOZ3VlDAvBp5QghfAJJVF5LRzQ6Ah0BBoCKwYBFQcDg1TOypxInRGxYmrtcK3EKeEsduX7n1/TD1otMHHI8dVrDVm8+2afRw5U+6sAeEEyHPlwe5xtj7eZZddSjlR/6MLywuLlFc6ao/YSCTfhqO7Bo+1Kr6zorM1TvHy0m++5XfTtyGwIhDwrHrH5Hl29oxONSVsVg4LoySSQHh7CQSNdm4INAQaAvMPARWFxt+RRx5ZpgCZKnjccceVdU1pjMYqvAvRYYGP7/QcccQRZVt/ExN8QHJl7bCTz3FcrG06//zzu0suuaSscTKNctttt+122223Mp3SVDK0qXpGU34mOaecKn92NuM8XnnllWX0x7oV5XbHHXcsu/wtXry4lF/tk34ZnkSHFrch0BBYdgh4ph0C58U7ZyqHZVaT1wmz8PC+++4rjspGG23UPh657PKuSWoINAQaAisEAQ07Xz43NG+TldbI+7/ZYLcsdZ5efR8TXZlDGvrOpoAbVeGgnXPOOWUNq2lXpolZ77LDDjuUKWSmi1kbBycOTMoQGXXo/869NFz8zrU2h52EOCjf+c53ytfqraG9+uqrywYIZHFUnve855VF9aaByZuM/IxLK2m2c0OgIbBiEPCM33PPPaWzzKY/WR84lTazGmHhAX3mM5/pjjnmmPIy8gXtZz/72VPJb/caAg2BhkBDYA4joOJwWKSsp9oUmiy+7zf48C3EERYNZ5vM2PpZ0Di3LiKN8jmcvctENflulMkW4L5HY2TD+hZTCNGsfYHJs571rLLQ3dQxu3NxfjkQypQRGI5EzrAjNwtuM8XL7x/84AdFrnUzpuLZnY2jorNUPnCIONg2iuCscFSsvckoT7/cLhMQmpCGQENgmSHgeT/44IPLs+698epXv7q8H5bZCAtNCdOL4mXjJdRCQ6Ah0BBoCMxfBNK401Otl8u7faE0xGeaazDS8PYFeAE+wW2mMuYzH1vZrHxYv2JK2Ne//vWyNbotkG0N7iONekzxcea0E6zzUa60G7QXODbODs4LR1BHqMNISq45KpwhMzqMrmjckMtB2X333buNN964jHYZ8cruX+TRcyHly3wuU033hoB1kzogdDbovJguzGqERc+H3Tj0cgi2DNSL0kJDoCHQEGgIzF8EVBZ2VtJg1OAzrWdUww/fQhxhkbMa1NnKHz4LucNOOeBsOIyGGP246aabyiidqVvaCUajjNopU0LKU87101I3VlxzTjg6HJ44PRwga1O22GKL0u7ItK9adi2zXTcEGgJzFwGdEBdffHF5r3q28+2vqUZYZuWweJFIJMFLxdFCQ6Ah0BBoCMxPBNL4POuss8raAI3xt7zlLaVB3n+/412IDouGuVEEu2bpuPNdEut9+vjMzxIwTGtlIQd8OHScF4dREVPFOC8cFyMmtknm8LnnmoNsxEV5qw/bJmc9jGvTyozYOPDHUYnjk/MwK1qshkBDYEUg4N3Bn3AWcj2VwzKrRfeE1i/o9qJYEdnc0mwINAQaAssWAZWGqT0WM+vZVnks5BGEPrrwMWpwzTXXlBGDF73oRUsr2j7vQvmt/k8bgBOhvHAqYOXgxChHHBNObqZ7OXP6HNoT4tUHp6TedSzp5LxQ8G12NgRWZgQ8z94b3hWC90Wux9k9K4eFQHueX3bZZeVFs88++5QdRMYJb/SGQEOgIdAQmPsIqDwMyWtgZpelua/18tMQPtZP7LfffqViXWeddZY21pefFnM/JTgJzpyRODJGSoQ0SHIOb7k5YtpYLS887dwQaAjMfwT4E9dff33puLAOzbq06cKUDkv9UiFIAhbanXvuueVltP322zeHZTqE2/2GQEOgITDHEdAwfP7zn192XNLIzG5LU6mtfkiDciq+qe4tCxlTyV+W9yzwtnsam2eCz7JMez7JqstEfT2fbGi6NgQaAo8tAt79733ve8v0ULv8vfWtby0dHFOlumoWxI1iypwy5wzj8oQ4Kio11y00BBoCDYGGwPxFII1KjXC94jqmcoyyyr1JgvrEIS3TgpL+bGSq7OjhPEmYrS3BiO5D9J5E1xa3IdAQaAisLAh4d9tQwzRSI7CZIjpVnbDoBz/4wcg3fioEC+h81MUcU5VMhPqdBXArC4DNjoZAQ6AhsBAR8L63jaxdnVyb/jSuUZ5GvvtDgvjWNej0UocMafjT0SEM1SMypD+dDnjVhRaRc1osCrfOYrp4Q/BpcRoCDYGGwMqOgHrAxhzqAsH7VJ0wrt7BsypnZFTwguag/PCHPyyVipX7Anpe0jmPit9oDYGGQEOgITD3EfBOV3mcd955ZZtJuzIZqudM9J0BvHaDQh86LUqnlxF7nV5T7QgzFXL0JYMe5AwJsSVT4KaSoS60be9xxx1XOu3+/M//fOk2nFPFa/caAg2BhkBD4P8i4N1tlpb6xrtYveC9PqreSexVp3I6ci9nQnlEdktBe8YznlEWaEZYOzcEGgINgYbA/ETATk62neWICN7xeff3Lcq9cff7/PmtDqnj5jr3Z3pOvJxnGm8cHznjQnROpcpRUrG20BBoCDQEGgLDEIg/4V2qzknH01Tv9CkX3dcvcdd6mb785S93Z555Zql0Xv3qV5cPOQ1Tt8VqCDQEGgINgbmCwE477VSmOhl1N+owXajrh+l4c78fp/87fHPpTEeHRfd/8Ad/UJyV9dZbb6wzN5d0b7o0BBoCDYG5iACH5YQTTihbnm+44YadreKnqw+mdFj6RkrAHF4f0DKc4+NPLTQEGgINgYbA/EVAJeF9vtVWW5WviPvNYZmu8pi/Fs9ec1g8/elP73yRWWj4zB7DFqMh0BBoCAQB/sSFF164dJewPffcc+nofnj651k5LCJvuumm3R/90R+VykwvUwsNgYZAQ6AhML8RiJPCcYmjkvP8tmzZaA+LHJHY8AkS7dwQaAg0BGaHAIflJS95SVl0z5fwe7owK4dFr5LdY3w0S7A4poWGQEOgIdAQmL8IqCgcN998c/e1r32tLIT/nd/5nTaKUGUpfCwKtYua3dSs31xjjTVmNHWuEtMuGwINgYZAQ+AXuzvuv//+ZYot3yJrWKYCZ1YOix4lgh2C3rgWGgINgYZAQ2B+I6BBftlll5Wdwuzc4iOS9WjL/LZu2Wjvo8n//u//Xhy7173udWXOta0465BRF3gmhOb3KPooWp/Xb3Jq3tDG8fbpfT3IQgt9Ktl93nGyp5IhTsJUtuCp5YzSL7Tw9vUbFT+8tQ59mt+RXcsYRw9v5EylR19GnzcynIXInoke4Z8Nrzg1f9ILva/fVLziCJFR886WHhni1XJCr2l92e7hmwmvuAmj+EfR8I+ih+Z+rV/ooY3Sr0+bTsZUOke/pNfnnYns6Bzevn7jZNf0yKhp0a2W++QnP9nPgulMNjOZlcMicTuE6YUTNt9882711Vcv1+1fQ6Ah0BBoCMxPBLzbfbzLh7xsM9nC/0XAGpYNNtigu+uuu8o3A2BmhxvfEXBdb1Zg62eHzj10FTgeO7EZqTE7ITMUIkOK+bYLfhU4GdlBhywyfA9GiGzX2SqarHzPAK+NcqTJ+bSFdBoSPlfgXq0HGXiFUbbQAz2B3WSEl2y/0aWnxzQ7zoVXXB+Kw0tXNkqXbuGlN/0EstMxSjf8tR5koEuXjPTSRg/pSC8BnmTgc5AdTPGSnXzB53C/1pm+5IiPV7zIcK5tER8vnlG2kIFfEDdlKY6weMkX+S294KEciINOBl52Sw8uyRey0fvlIOmRX+sR3shIvrCFDOlFP7LR6jykh7jysF8OwitejSmdyWAfXcigX8o6+6Qr4KUL2WwUYgvdyXAIfsOUvOjsOvkiraRH56SXciANeklTGvWzRYajxh8Pu8mKLfQgg+1CnS/kOuoyHVvIkB4d6BxbpEfn4JH0ggdecckVpy6P6MEjmEov+UIPdCG8zmjSFGJL0kOTpvTgwW5y3BeXfu4Ha+np/Lnkkku6XXfdtczaSh6UBKb4t8qhhx566Lj7AT8GM/6qq67q3v/+93eXX3552Yc+08PGyWj0hkBDoCHQEJjbCKhQttxyy26fffbp9t5771K5pKLsa64ecC8VZv/+dL9VYqnoZ1pR9WWqm8ih91A9yJyNLSphTovpcltvvXXB6N577+18k+Wiiy4qu4iZKka3T3ziE93hhx/eXX/99Z3d19ShKu4PfehD3VFHHVUaRs9+9rOL/vfdd1/393//992JJ57Y7bvvvgVbul188cXdwQcf3N1///3dM5/5zE5vJH3f+MY3dqeffnr3jW98o9thhx2KDOn80z/9U/cf//Ef3e67776U93Of+1x30EEHdQ899FC37bbbFp3hduCBB5Zvymg8PetZzyo6f/azn+3e/va3l11AN9tss2IrPaR12GGHdbfffnsZeUvjRHof/ehHS7nh6CoTt956a/dXf/VXnXR9XDN4HHHEEd1HPvKRgtPLXvaywgu7f/u3f+s+/OEPl7Wxa6+9dslmOP3hH/5hkaFMGvGj8wc+8IHuyCOPLI2dXXbZpehMxrvf/e7u4x//eGkA60QVbrzxxmIjDF/60pcWjOh90kknde95z3tK+htvvHHBw1ber3/964tubFi8eHGRcfbZZ3f0Fme//fYr5QzvWWedVdKUp3jJpR+dxTEff9111y36nXzyyYVXu2n77bcvn4FQ9mHxwQ9+sGxi9NznPrekpzP4kEMOKXkII+VN0Nb6u7/7u+7uu+8uZUyHgvTe9KY3deTfeeedHTzo7ltBcDr22GO7nXfeuXQo45Uvb37zm7t77rmnlAONSvS3ve1t3THHHFOulWll94Ybbuje8Y53dKecckpn96a08c4///yin6mje+yxR7Ebv/z753/+58Irvz2PnHrPxdVXX102qogMdstDOL385S8vvA888EDRAR12jmD62te+trvyyitLGV1zzTWLnmSwUXmM3aZpet4+9rGPFZnKjXDbbbd1b33rW5emR65wxhlndO985ztLI1s5kJeerde85jXdBRdcUOg2IcHv2dbm9XzKF+8sjf5PfepTBSfytthii6U6/+mf/ml36qmnlvIPPxidc845JT2N9N/6rd8qnULwP/roo4tsz7L3hPS++93vdu9617tKmfau8YzK22uvvbaUaXbrODEllWzPsveNzbCMjMNffssTI8Lbbbfd0s1ClKG//Mu/7O64445SDjhE9PB8exaVb+8l4Utf+lKhH3/88eU5Zotw6aWXlvfVdddd1+21115FZ3TYe14898o/Pdj1J3/yJ90VV1xRnmNLStiobHmvoD/nOc8pttCDPcp98qkkWP2b1QgLgQq6Qkmg6xYaAg2BhkBDYP4i4F3uSA8YS8ZVGPPXysk0h4dGgwo3+GjgaGQ+/PDDpYdSL6UKVz2pp9Z6F41tPZJo+B955JFCdx9N0Pix+6aGCp44YBru6Hbj1Mgl233pkUkWGXQjQ3xp6ukML53QyRA3dHE5MRooZKBHD3ziobOZHngjQ3p4yIjteOktHh3MvAgeeH2/jS10o7tGCZvIJEMadBCisxE/PGQ76Eq2dMmkB1mxmwx0erjGG3vxuiZDevAXV5AG3cR1PzLCS3c82jvukU2G+/QKHvjch2PSjR4axLUt7A7+SY8+5LIHrzjwl07srvMWrzTxkwFT2MGHPfQIdvTAh1869HOPHmQ7+y1IQ3xyIoON4UWP3eSg45c2OlowfdKTnrRUBtnSx8uuYEqfYE3PyGYTndkVu8WRPp2Dt/zGiw5TeRtMo4f0pOMdJ0Rn6eKhs/vBDZ2MlH96uEcPI0PuRWeykh7d6UE3egTn+tkiA19482zFbufgRDe/6QFfOpAfrN2Pbs5sUE7R8SkjNabu43PEbufgIU70iGz6kRE8ood3G5qyIY649Av+dTmgE3ps4RSZqcVJ1gk00zCrERYK6OXhve64447Fo86Q3EwTbHwNgYZAQ6AhMLcQ8G5Xoah0VKjpjFIZ9UMqrjSs+/en+63SUhmKP59GWGARPJxhpjLXmDBKoRLW6ymo1FXo6sptttlmKZ7oeiD1suqxFBfeGj924FSvBld0jVaV+iabbFKmh0hTHhlJQBcnMpx9K0aPfaZBJa/0FpMR2dLjfNE5PdrSI8Poil5ZTgc7NbY0PNmRnmQ2asTovAxv9JC32SI7eChbeOGkR5UeyoFDg8Xogx506dFDg4oMNsYW6RnJoYeEnFdvAAAagUlEQVSRDenBg42xRU8+Opzdgz/ZaLHFCIXRJr3Ayh8+eNBNeuj46czu5IuGM16NPs5UZOAV5AtemGb7azqTQQ/8mZYE07XWWquUA6NnZOS5UC6MnElPoBu8xCefPLZIT57CCR546EYWPJQD7TW8wYN98tfzHbvZm/KIN2WGbHmbfKEH/eEvzdidfAkvOj2UA3YrM8GDzvIQ1rFRemyHB+wyWhdM2SbNjDCSgZctZLObLdJjS8o0Pch2z/MCDzS/k7cwNVrhOUMnO+UAhmQrj+yWT3QOdnkuyMAbPMjASw9lG6aRQTas5WHsgw0Z8iUyyE4eZoQlz2fyEB5s5iTIK1g7lBv4S9ezrfwr837D2T16wJVsGMlb2NHDiFOwo6N3ChmxRZqeG2nJF7zkksEW5QAv7MhW9uQT/uStdyMsYQHPyJAH9KfrqLBoCY4RAZkSPFnGJkNrdkLHCR4hspEaAg2BhkBDYI4h4J3uMF3BlBKVs+ktoyoOfCoglVF6K2drjgpT5Sa+tIbUIeomFaeKbqgek9oifip7lW4qXnjQz8E2OsbGNKDQHAI8NTo07skIr/jS8Dty0MgQQnOGhUOeOdKIE18cAS0hctCih3yhCzwd5Ap4HbXO6KP00KjS2NIQqmXHbvFCJ5N+sTF6aADr8dWoYUvo0YNetS2RXevHDngoX+i1LUkPzT1yyQhPZLMDLyzwofsdvWOLsxD9ogdeeqCTUT9PSTNYiB/ZrqMzmgYwfg1U/PQMr3PsiC140ft6oNEjMmqdyUCv9ahloHtmyUw5D15JL3o4xz7XoaNxFKIDWdJMfOkJ0cO1e47YIk/hoXzRo7ZFHuJFwy+QmbxFi27yxe+UL3S80SU644kONR5oykfiJ83IcJ+M2BI96ERm5MKUHZEjjkDn8KI5yIwtfpNBB3ikcyF64JWmQ6j1iI7h9cx69qMDubUeZOGNHrElOjiLn/dPeGNjdI496P1Apvh4M7LY5/F7VlPCRCDQIaTglR/tX0OgIdAQaAjMSwRUGOamn3vuuaXyM5c7Fc+8NGg5KZ1KO5W/37CsK300h5DKOr/RXNfxcw8vWeHJGW8C3hz4Iye8zkkztFq/xEVznfiuwy9++EKLjPwuzD1bEq/mrfkjM2n7nevaltAjL2nljF7LzTV64pAh+J00CqHSOb9zDm/k9On53dfP79CcxYerayE055rmHt7wlIuK3706Tnhr/sgOrZbvOnq4Tr6Ep59eZIQuvRziJF6u8zvxpJXrnBM/eoQuLn3y27nWL2mgkyG+c51mZIeWc1+PyKj5w4uWEJpz6K7rA722JbLruClv4/SobUm8Or1an76M6ILfkfih9zElK/fCG1rsqOmR2denr0fsDn9kOIc36TgPDbNyWHhaFvx8+tOfLuD46EsW4gxVoMVrCDQEGgINgRWLgIrNEL3RdFNwUkGtWK3mduoqYzjlqCtpmud3bcUoXCPHuY7T/x2ZNU9kh5f8+n7o4YuM+lxf923JvVrmOFrofRmjdAhvfXadMEqGe309pqIFizrOKF1G0SLXvcgJrT67FpJGzqFFdi2jvlci/+JfeGtaGru5F/n5XfO6no5Oj4RaVmg5515+O6NpfNYy0Pu/w9uXEVvw13HCl3PSzO+ca7mR0b+XuDm7X/PU9MioaeN4p6JPZ0vi5txPr6+H+7XMPn9+55z4dZyklXN48ztndNcO8Wt67iVuzuHP75wjo69HX2b4h5xn7bDYjsyuCZTKOpYhCbc4DYGGQEOgIbDiEUhFY861ecbe7UbPp6to0gBZ8RbMfw1guTKFZWXPylLG5oodk+oh/qQyVqZyPoktcEwYgmkdP3JW9vOq5q+NC5kHZ36aysscM/Nsd9ttt1KpZUHduPiN3hBoCDQEGgJzHwHvd3OHzWP23veuH+ewpF4YWmFmWjH56p9x6UyFmrTJcR6qh3hsEYbKiI7qyMgKbaZncQXnoXpI2zFVvk2nT2Tgy7Tv6eL079PfwZahMoLlJLakbJAxNAzVv04vZWKoLbAkw3moDPqwZchzVtsSXSbBNGUjuNTyZ3KdsuE8NNAh5WOoHsGCnElkBI+heQMHMiYpGylfQ9/F8iEyJtEjeTKVjFUxjQtRwjl8dhfQC6cHTuXWQkOgIdAQaAjMfwSy3aUK0C4v9dB+bZ37QuqE+t5MrlOvkON6aEj86DNEzjgZaUDMRPY4GTPVJ3gMxVM6dIgeM023zxcZ9Ij9fZ7pfkeHofHJX5Z6TILpJGUzOE0qI3iSN4msYBq9hpyji/PQMKmM+lmZtIxF1lBbxJv0WZlURmyYC2VjknIBh9gyVb6uareFcUFm2NXBLgYOCtVKjavQxslr9IZAQ6Ah0BCYWwikEeGjgz5wZnemY489toy4jKo87LBjLvvQDiv1il40nV5GdUalMR1CdCZDHTRUDzLYIv4kMuxqlR2LptN71H12kJERrlE809FgqrcVpkPr5WUlgz3wGKoHW8mYareg6fAQnz1TtW9mIkMZYcuQkDIq7kymWI5KQyOOHcLQZ0Vc5dxzNtQWMpRRzwlbhgR4/OhHP5r4WUn5GmoLTD0r3mH1gvDZ2ESGEQlYTCIDHpOUczrTY5LnDZ7sIWPIu5gO8CRjaDknI8/sVOV81XEKKlz1vVxzYPTECfZcnuSFUIS0fw2BhkBDoCGwQhHwvldRWHBv+1S/Hf1GJ1pC6oT8ns05cZ1zPZv4j4Ues0l/FO8QOyIncXMOfbZn8SeRkbg5zzb98A/VI/ma+JPqQZ9JZCRuzrFvyHmIjH6c/u+Z6AFT8XLMJM4onjrt+noU7yha8ta9IfETr7ZjqJzoNzR+Ha++jtzZnofKEK8+Zpsu/qQdOUNk1HEir6ZNd12XDbzjZMxqThdP/4tf/GL3yU9+slRkr3vd68oHaKZTpt1vCDQEGgINgbmLgApi1113LR8a0wk1SU/Z3LWyadYQWDEIjGuArRhthqfKjvluy1zRf67oMbw0LP+Ys3ZYfNn3y1/+cnFYfNyphYZAQ6Ah0BCYvwioOI2kWJtojaJrtFahzt88bZo3BBoCDYGVDYFZOSzm6qnQ3vCGN5TKbP3111/Z8Gj2NAQaAg2BBYeAIXlzkFtoCDQEGgINgYbAXERgVg6LnrcNNtigHIzxO/Mja+PG0fD0e+1G8day6utxvOijZNdx6+tRckbRxBlFH0Wr5dfX43jRhT4eddz6epycmifXo3hH0fCPo0dWfcYrjNJ5tnL6MsbFH0UfRav1rK/xPpY6j5I9W/36WJA5TsY4ejGy928UL5rQT3MUb0/c0p/jeMfJXhqxdzFKziiaaKPoo2i9JJb+HMeLLvTxWBqxdzFOTo+t/BzFO4qGeRx9nFz0UTrPVg4Z4hgtv+aaa8omK9tvv3237rrrjkq60RoCDYGGQEOgIbBCEJiVw6JyM8qiJ04l5yOSaGuvvXaZ84zmcD/TCmJVeu/wO4SZ8uJPmuLVMiI39DhR0SW8zqE5+93nJQMtIWnWtkRGzUtWePvpRb/QxatlTKWHe+Gdqc74pFnrLM3oEfvInqnONS9Zfjv6tiTNcTrXevRl0AUt+o3idX+czkkzcmveomiVt+FFT5qhOQu1HmjSjX3uh5b4JVJFD6/74a3l1vq5zr2aN7Tw+u2+3+S7FugmJE30yAmtMFS8ZCTdmfJGj6Rby4gO0kGPftGl5sVT0/u8saXWGX9ti9/STFrhreUmzfDiCc11eEMfp4c44XVOmjWNDPET3OuXGfeCU3jJQovc6Jf44oRW84Y+ROdaDzIF7/Lzzz+/nDfZZJPmsBRU2r+GQEOgIdAQmCsIrHLooYceOk4ZlWa93WIqTvzf+MY3ytaXZ599dvfc5z63e8pTnlIq3TvuuKN717ve1d1+++3Fkfn1X//1UiF/4AMf6E455ZTu1ltv7XbaaaeS5F133dUdd9xx3amnnto985nP7NZcc80i47777uve8Y53dHfeeWeZV227NQv+P/axj3Unnnhi2f5ss802KzLwHHHEEd1FF13USWu99dYr6V166aXdkUceWXoNn//85xdeW8idccYZRQ4n62lPe1qhP/LII93f/u3fdp///OfLzmdrrbVW0eP4448v+l199dXdC17wgsL74IMPFh1OOOGEsptOpsU9/PDD3dve9rbu2muv7Z7znOeUHXc0RKR39NFHd9/5zneKjRazSg9GF1xwQdmSbvHixUXn6667rvvXf/3XsrXo3nvvXdKz1dvll1/efehDHypbChrhSsPlwAMP7D7zmc8UPdIjSiYZV1xxRefL1RbQ2tIQxsccc0zpSd1iiy2W2v3+97+/O/PMM0ue2CWIzuyVX/fcc0/B80lPelLB/7DDDiu63Xvvvd12221XMPrSl75U5J522mmlHKy22mqFVz7/wz/8Q/ftb3+723zzzYujqzy9973vLZs2wGHjjTcuenzuc58r9skzeCoHwrnnntt99KMf7b7yla90O+ywQ6HZpe7jH/94yQPTE23BSq6y9M53vrOUL9+QIEOZOeqoo7qTTjqp+8IXvlAWFROicSZvlSV44idD3h5yyCHdbbfd1m277bbFCYeHLV6VU9sHyqvI+Md//MdS7ticciA/lDv477777oVXufOcKAfK1m/+5m+WPPRs/c3f/E13/fXXd6uvvnqhS49etpi98sorS7mT38rPySefXOieB9jR+Xvf+17RWbowcg9d4/PDH/5wwd+zBW/lwHPlHhxjC/z/5V/+peC95557Ft1sU3jVVVeVfCEPTra0hCmdL7nkkrKjFLvdv/jii0u5o8fWW2/dKTPwOv3004vdysE222xT8NCbrzwrkzvvvHMpo2R4/mD6ta99bWm5Q5evyqh80/sveL8oz8qdci49wfq697znPd23vvWtUu6is3cEXljCw/nGG28senz605/unvGMZyzF/8ILL+w+8pGPdMo2/QR5lffBpptuuvRddf/993deoTfffHMpR/mYLjy9I2DrQ7sC3k984hMlf5MePWDj3XHLLbf8SrlLevLK+45zQoZniI5s22ijjQr+ypv8/u///u/uhS98YbEP/vg8Q54T7zzpKWMHHXRQ99nPfnZpuVNulHvlZI899ijvc7yjgjJAl0m28/ReE19649IZlXZoygU7xB2qB1mT2kIGW+RFnNDoONMzHTyb3tVDbYGFQ/wheNJVfLiyY6gt0QMeQ/Xw7nHAY6gMmLJlEj3IECbBdFIZbFC+BM/oJHiIO7R8SV+eTPLcs4UMOkxSvuDhvTE0X+ihnE5SzsmQt5PYEjwmeXfAEx7aIEPLRp77SZ6VyBiaJ8pXZEylx6xGWMpT84uCq3LTkPz+979fyMlAWx6rpGWmijaAasBqZKhEKQZcjS2NAk6HRnwKkmsNTMaLj1+jT2MEXQM4vByFm266qfD99m//dqGLo2LHyykJr0bH3Xff3d1www2lAYjuUFmgcXZU1gGOXhpRGpjsQddwZAfZHCHxBbaSoSHCRnR6SA+vRjG6lw776EwfvZl4yddg1vCBSx4GMh544IEimyMUuQqp9DTU2B2dOXt01gBmFzpeDXp6aOCgCfJOI0m6eMl275vf/GbhVWHQUSCDbvCOU8IevPJWI1MeCXTHRz92+x0b5TdejWtpuUcGXg4TbNDxc5jQvVjQlAdpcoo1NjV80WGk0cc+OpAhoCun9NPgxqvcuZ88pKe0yIWH9MgQF79DOVCmNRrxOqRNB/ef97znFX4y4E+Ghmudh8oB/n322afEYUvKnYakHZrIQpMeW3QCkEFn+fDVr361yNZBINADv7KkXEmfDHkFO+VA+fc7dHlI95QDsm2kQTdlGJ9Ark4JenA06CGQlbzSmMfvYDcZ9CAHv3dBnjd6RDY9PcvyMWXGPXlINmzYKw8cyihdlEdylQey0dmJFxaC/KQzhzV5KD3lji4cUWmxW3qwE1784hcXGeSzhYzYgZee8oV+nk/pkZMyg+ZAc49tykzKHV2kx25p0jN60F9eOdPV1sLupRxsuOGGxRZ6sFt8fBw1fA7PELq0pSUfnFMedbiEF519nBjvDkFZO+CAA0r+KrvSaqEh0BBoCDQEGgJzBYFBDosGwy677FJGPzSAVHyCSk6jQgWrka/STAXqt0aQBn0CXr81ElwniJee7zRWVbJ6p9HTiyk9jVyOBhm+HyCgG23Bm976VNYa8ugaBfjop4GERheN8YSk5yxIQ4MtdJV8Aq+Q3e6Rl0BXsn2zBj160BketS2cD3QNyoTaFjYJ9HBID27sji3yQq+3czxV96Rf4yG+oLEMi1pn8vBqZOrJEMgwikOHOIH0Fw9ucJReeOFIP+nKw4R11lmnXKbMyFc20Fle1uUg2HF6EsiSPv3wC2yRNhpdQnfPbw3PpIvmvvIY/NDoQTaaOK7ZLEgPPWUJTRmVV+zO6KJ0YMkW5SzxnWNLRgLIkAad2YdOFlvwkpHyjJd9sTvlAB3+eOUTeWSwBQ+d6/LoPp01slPuyJC2vJWfQmSg009e1bagsT/6uZdyRw+Hcg6PPG/KgYCXHjDW6K7LXdKTN5HBFnknPfZHD+VE2SULbwI6/djtHj1gKj0h5c61Mgo7Qb4J5EfnxBGfnDz30sDnoBec6VKXXXlKD7jC03uDnNDz/pGmvE25q/FIesqdtMRPHpInj6OHMsgWaaH1bck7InrQTRyYRwa76/hFSPvXEGgINAQaAg2BOYDAoiVqqBEBWSWtV1DFWDcC3cshqkpUQFOpOlS8KmINjjRsVYxo+F3jcx+vA40MtMhNo4OMOj7+8DoLZKOTS3d0cdD8HqUHHvfEifwi7BeNWPfEp4cGlt55lbxGUuj46Vzz4o995PrtwKe3VkMnutE7OtS2uO937JGegx7kiBe78QpJM1igkYE/6TlruKBFpnPSQxfCH73JFvx2T8MXLY2vpMmW2IM3eobmjBY9yJB+zSsdetA99/CLi443esjXyAxdnGARW5ImOv7Ixqt3O3Hxhzf4i4OGFy160Andfb3fGq0pG3hH6Syd2EdO7MCbch4aGa7x5UCTZvSQtoAukJE0al78ydvIlab46GgOfMooGaHh8xsf/vwOP7p40YOuRm44CHjEpbMQO5zR3KttIRudTOU0toa31jly0YToge6gKxn5nTN+vHQQ6Ei+3+LUttT49HnxkSOIHz0SJzorXzD17qBDeF2Ljz84kVHL9Tt8bImDFjl4o7NrsskKzu6Flw6xIbzuRW+0XBfG3j/38x6NHj2WaX+y17tDfE7jVOmNE8a25OtQPZaFLWRwzNWPcB8SvM+NznlWhtoCU4d6RX4OCSmHKT9DZcgXeAzRA57KqOeFAz1EBr1hqtync2GILWQI8mRIGWVLZKS+n60eyrlnRci7Y7Yyogcb6DE0yBNlY2gZZYu8pcPQZ0XZgoc2x9B8ybsj7/wheJDhPUiHobaQAVNllC5DAjzhoQNy6LMCU8+KZ3ZIOac3GeyBxxA9lNFaj3EyBr1hGeWQiFAbWVe6uSdxmeqcuO75nUJX01MAarmRUWes+3ijB57IdQ+9lut+9HMd+bmuecmJ7PA540WPHHzo+V3LCG8dP7xk1Lyh1zonXl82emTHXmcBb+4nvrP0BPEENLzoaH6HHz08oYUn9OiJHv1q2eGPXPyhJW5k9fUoiffwjxwyxmHXp4c36dS2uBc9atl0ye/wx778dhZf2RVce1iFvi3h7euG3pcbjMhzL7Ijoz6Xm5XzmLj0ED8yxBGcHfSof7vGWz+HuU+H6FgiVelFbnjJpUN+Rw/xY3vuSU/86BlZoftdH6N0JrfmiWz0Ol/RyY0OiYNe24bel5Hf7pFRp1nfi354EsIbWmTgRQsdv+volTM6GUJozmhJL/SaN+Ug8WrZodX8uY8mkNlCQ6Ah0BBoCDQE5hoCgxyWGNGv3OoKtOZBV9HWlbT7/fihjaOLP1RGdBM/DYGp0ss9Z6FujIlfy3C/rxda7C4CKhnRobYz+oU351H00Po6JM1RuozjRe/rMYq3L5NHLh567JlO5+gXvhrTNMJyr88bujRr/SKjr0Pi17y1jFzX577syKjxCX+f5rcjetT3XY/SA28dginePn/k1/xJI2f3ch09an7Xfbl1nPDClJxRevR1Tpyk63fyBG2UHug1f3To00InY9S9UbaM0k9c9P69UTLRanpsoUtfRvhG6eFe0ouM0Pr84ZNGAt4+n3uj6GiOfpiKPkp2P3773RBoCDQEGgINgbmCwK+2mOaKVk2PeYXAqMbSbAyYNP5s0loevCubPcsDs8c6jbmSJ3NFj8ca7ya/IdAQaAiszAh4lzvSIRVb+79D759nyteP1/+dzqdlJa8vfy79nmiEZS4Z0nRZcQhM+qBMGn9Sy1d0+pPqX8dfmWyp7Zr0Gi7z2Vlo+TppCWjxGwINgfmMgHegdVY/+tGPfmWDk9omPHlXxqEQp57Bkft1vKmuky55tRxxyLZOyfoP06qtSXFGM3Jeb+KUNMiz/sWMiqEh683IsiZIenQzFZsDEyemlj+VHTVffU0eXcnOFPj6/mN1LV36whBOwX3VLArrJ4w5kYAztLInw2FBzbKQMTSTaz2GyEhmO2eBUR+zmfyOHnAfigf96TEu72aiRy1jiB7siIwslppJujUPG8iQ/iS20GVSPMRXzp2HhGCRF9gQGSkbwWWIDHHJoYfzkBAZk+RrsCRjEkzZQMbQkHwRf0g5Fy8y6DFERvKTLcr5qClgM7Evekz6rEhrqIyUDedJ8pUtee4nxXSoHuIF00lkiDvJ85ZnJOeZlIU+j7KVZ2UInuRFRnDppzGT35ExybMSLCd9VoLHTPQexVOXjSGY1jiyZYgMNtBDmATT+nkbZetMaHTJe30m/H0eeEzyrMCPs2KReTZTqDF1Tb4NLDSubVIAd5+isONieJMvzmyaLnhfc0TwJ13X5NHFRkzZydH2+3aMlCbZdrxMukmHMyEOR8BGG/I1eRyeqc70sZMsHTTkHbbJt0lFHKZRmysknvTZkZBy3i+jwZNsDhk8+7ZEBluD5Tie8I4704OMuoy5ln7y7/8D17GKWwCNKQMAAAAASUVORK5CYII=;" vertex="1" parent="1">
          <mxGeometry x="-497.75" y="1146" width="695.5" height="394" as="geometry" />
        </mxCell>
        <mxCell id="nd6oboQFitSLa15vrSld-48" value="PC" style="rounded=0;whiteSpace=wrap;html=1;strokeColor=#1A1A1A;" vertex="1" parent="1">
          <mxGeometry x="-395" y="1594" width="110" height="30" as="geometry" />
        </mxCell>
        <mxCell id="nd6oboQFitSLa15vrSld-49" value="APP&lt;span style=&quot;white-space: pre&quot;&gt;	&lt;/span&gt;" style="rounded=0;whiteSpace=wrap;html=1;strokeColor=#1A1A1A;" vertex="1" parent="1">
          <mxGeometry x="-235" y="1594" width="110" height="30" as="geometry" />
        </mxCell>
        <mxCell id="nd6oboQFitSLa15vrSld-50" value="三方系统介入" style="rounded=0;whiteSpace=wrap;html=1;strokeColor=#1A1A1A;" vertex="1" parent="1">
          <mxGeometry x="-75" y="1594" width="110" height="30" as="geometry" />
        </mxCell>
        <mxCell id="nd6oboQFitSLa15vrSld-51" value="" style="rounded=0;whiteSpace=wrap;html=1;strokeColor=#1A1A1A;" vertex="1" parent="1">
          <mxGeometry x="-475" y="1694" width="590" height="295" as="geometry" />
        </mxCell>
        <mxCell id="nd6oboQFitSLa15vrSld-52" value="RESTful通信" style="edgeStyle=orthogonalEdgeStyle;rounded=0;orthogonalLoop=1;jettySize=auto;html=1;entryX=0.5;entryY=0;entryDx=0;entryDy=0;strokeColor=#1A1A1A;" edge="1" parent="1" source="nd6oboQFitSLa15vrSld-53" target="nd6oboQFitSLa15vrSld-56">
          <mxGeometry relative="1" as="geometry" />
        </mxCell>
        <mxCell id="nd6oboQFitSLa15vrSld-73" style="edgeStyle=none;rounded=0;orthogonalLoop=1;jettySize=auto;html=1;entryX=0.5;entryY=0;entryDx=0;entryDy=0;strokeColor=#1A1A1A;exitX=0.183;exitY=1;exitDx=0;exitDy=0;exitPerimeter=0;" edge="1" parent="1" source="nd6oboQFitSLa15vrSld-53" target="nd6oboQFitSLa15vrSld-55">
          <mxGeometry relative="1" as="geometry">
            <mxPoint x="-321" y="1742" as="sourcePoint" />
          </mxGeometry>
        </mxCell>
        <mxCell id="nd6oboQFitSLa15vrSld-53" value="API服务网关" style="rounded=0;whiteSpace=wrap;html=1;strokeColor=#006EAF;fillColor=#1ba1e2;fontColor=#ffffff;" vertex="1" parent="1">
          <mxGeometry x="-395" y="1718" width="420" height="26" as="geometry" />
        </mxCell>
        <mxCell id="nd6oboQFitSLa15vrSld-55" value="容错限流" style="rounded=0;whiteSpace=wrap;html=1;strokeColor=#1A1A1A;" vertex="1" parent="1">
          <mxGeometry x="-368" y="1794" width="100" height="30" as="geometry" />
        </mxCell>
        <mxCell id="nd6oboQFitSLa15vrSld-56" value="" style="rounded=0;whiteSpace=wrap;html=1;strokeColor=#6c8ebf;fillColor=#FFFFFF;" vertex="1" parent="1">
          <mxGeometry x="-395" y="1849" width="420" height="100" as="geometry" />
        </mxCell>
        <mxCell id="nd6oboQFitSLa15vrSld-59" value="微服务" style="whiteSpace=wrap;html=1;aspect=fixed;strokeColor=#1A1A1A;" vertex="1" parent="1">
          <mxGeometry x="-165" y="1869" width="60" height="60" as="geometry" />
        </mxCell>
        <mxCell id="nd6oboQFitSLa15vrSld-60" value="微服务" style="whiteSpace=wrap;html=1;aspect=fixed;strokeColor=#1A1A1A;" vertex="1" parent="1">
          <mxGeometry x="-65" y="1869" width="60" height="60" as="geometry" />
        </mxCell>
        <mxCell id="nd6oboQFitSLa15vrSld-64" value="" style="shape=flexArrow;endArrow=classic;startArrow=classic;html=1;rounded=0;strokeColor=#1A1A1A;" edge="1" parent="1">
          <mxGeometry width="100" height="100" relative="1" as="geometry">
            <mxPoint x="-344.5" y="1714" as="sourcePoint" />
            <mxPoint x="-345" y="1624" as="targetPoint" />
            <Array as="points">
              <mxPoint x="-345" y="1684" />
            </Array>
          </mxGeometry>
        </mxCell>
        <mxCell id="nd6oboQFitSLa15vrSld-65" value="" style="shape=flexArrow;endArrow=classic;startArrow=classic;html=1;rounded=0;strokeColor=#1A1A1A;" edge="1" parent="1">
          <mxGeometry width="100" height="100" relative="1" as="geometry">
            <mxPoint x="-180" y="1714" as="sourcePoint" />
            <mxPoint x="-180.5" y="1624" as="targetPoint" />
            <Array as="points">
              <mxPoint x="-180.5" y="1684" />
            </Array>
          </mxGeometry>
        </mxCell>
        <mxCell id="nd6oboQFitSLa15vrSld-66" value="" style="shape=flexArrow;endArrow=classic;startArrow=classic;html=1;rounded=0;strokeColor=#1A1A1A;" edge="1" parent="1">
          <mxGeometry width="100" height="100" relative="1" as="geometry">
            <mxPoint x="-20" y="1714" as="sourcePoint" />
            <mxPoint x="-20.5" y="1624" as="targetPoint" />
            <Array as="points">
              <mxPoint x="-20.5" y="1684" />
            </Array>
          </mxGeometry>
        </mxCell>
        <mxCell id="nd6oboQFitSLa15vrSld-71" value="微服务" style="whiteSpace=wrap;html=1;aspect=fixed;strokeColor=#1A1A1A;" vertex="1" parent="1">
          <mxGeometry x="-365" y="1869" width="60" height="60" as="geometry" />
        </mxCell>
        <mxCell id="nd6oboQFitSLa15vrSld-72" value="微服务" style="whiteSpace=wrap;html=1;aspect=fixed;strokeColor=#1A1A1A;" vertex="1" parent="1">
          <mxGeometry x="-265" y="1869" width="60" height="60" as="geometry" />
        </mxCell>
        <mxCell id="nd6oboQFitSLa15vrSld-83" style="edgeStyle=none;rounded=0;orthogonalLoop=1;jettySize=auto;html=1;entryX=0.5;entryY=0;entryDx=0;entryDy=0;strokeColor=#1A1A1A;" edge="1" parent="1" source="nd6oboQFitSLa15vrSld-74" target="nd6oboQFitSLa15vrSld-77">
          <mxGeometry relative="1" as="geometry" />
        </mxCell>
        <mxCell id="nd6oboQFitSLa15vrSld-84" style="edgeStyle=none;rounded=0;orthogonalLoop=1;jettySize=auto;html=1;strokeColor=#1A1A1A;" edge="1" parent="1" source="nd6oboQFitSLa15vrSld-74" target="nd6oboQFitSLa15vrSld-78">
          <mxGeometry relative="1" as="geometry" />
        </mxCell>
        <mxCell id="nd6oboQFitSLa15vrSld-85" style="edgeStyle=none;rounded=0;orthogonalLoop=1;jettySize=auto;html=1;entryX=0.5;entryY=0;entryDx=0;entryDy=0;strokeColor=#1A1A1A;" edge="1" parent="1" source="nd6oboQFitSLa15vrSld-74" target="nd6oboQFitSLa15vrSld-79">
          <mxGeometry relative="1" as="geometry" />
        </mxCell>
        <mxCell id="nd6oboQFitSLa15vrSld-74" value="微服务A节点" style="rounded=0;whiteSpace=wrap;html=1;strokeColor=#1A1A1A;fillColor=#FFFFFF;" vertex="1" parent="1">
          <mxGeometry x="-432" y="2107" width="127" height="73" as="geometry" />
        </mxCell>
        <mxCell id="nd6oboQFitSLa15vrSld-86" style="edgeStyle=none;rounded=0;orthogonalLoop=1;jettySize=auto;html=1;entryX=0.5;entryY=0;entryDx=0;entryDy=0;strokeColor=#1A1A1A;" edge="1" parent="1" source="nd6oboQFitSLa15vrSld-76" target="nd6oboQFitSLa15vrSld-80">
          <mxGeometry relative="1" as="geometry" />
        </mxCell>
        <mxCell id="nd6oboQFitSLa15vrSld-87" style="edgeStyle=none;rounded=0;orthogonalLoop=1;jettySize=auto;html=1;strokeColor=#1A1A1A;" edge="1" parent="1" source="nd6oboQFitSLa15vrSld-76" target="nd6oboQFitSLa15vrSld-81">
          <mxGeometry relative="1" as="geometry" />
        </mxCell>
        <mxCell id="nd6oboQFitSLa15vrSld-88" style="edgeStyle=none;rounded=0;orthogonalLoop=1;jettySize=auto;html=1;entryX=0.5;entryY=0;entryDx=0;entryDy=0;strokeColor=#1A1A1A;" edge="1" parent="1" source="nd6oboQFitSLa15vrSld-76" target="nd6oboQFitSLa15vrSld-82">
          <mxGeometry relative="1" as="geometry" />
        </mxCell>
        <mxCell id="nd6oboQFitSLa15vrSld-76" value="微服务B节点" style="rounded=0;whiteSpace=wrap;html=1;strokeColor=#1A1A1A;fillColor=#FFFFFF;" vertex="1" parent="1">
          <mxGeometry x="-127" y="2107" width="127" height="73" as="geometry" />
        </mxCell>
        <mxCell id="nd6oboQFitSLa15vrSld-77" value="JDBC配置" style="rounded=1;whiteSpace=wrap;html=1;strokeColor=#1A1A1A;fillColor=#FFFFFF;" vertex="1" parent="1">
          <mxGeometry x="-502" y="2254" width="77" height="47" as="geometry" />
        </mxCell>
        <mxCell id="nd6oboQFitSLa15vrSld-78" value="环境配置" style="rounded=1;whiteSpace=wrap;html=1;strokeColor=#1A1A1A;fillColor=#FFFFFF;" vertex="1" parent="1">
          <mxGeometry x="-407" y="2254" width="77" height="47" as="geometry" />
        </mxCell>
        <mxCell id="nd6oboQFitSLa15vrSld-79" value="自定义配置" style="rounded=1;whiteSpace=wrap;html=1;strokeColor=#1A1A1A;fillColor=#FFFFFF;" vertex="1" parent="1">
          <mxGeometry x="-312" y="2254" width="77" height="47" as="geometry" />
        </mxCell>
        <mxCell id="nd6oboQFitSLa15vrSld-80" value="JDBC配置" style="rounded=1;whiteSpace=wrap;html=1;strokeColor=#1A1A1A;fillColor=#FFFFFF;" vertex="1" parent="1">
          <mxGeometry x="-197" y="2254" width="77" height="47" as="geometry" />
        </mxCell>
        <mxCell id="nd6oboQFitSLa15vrSld-81" value="环境配置" style="rounded=1;whiteSpace=wrap;html=1;strokeColor=#1A1A1A;fillColor=#FFFFFF;" vertex="1" parent="1">
          <mxGeometry x="-102" y="2254" width="77" height="47" as="geometry" />
        </mxCell>
        <mxCell id="nd6oboQFitSLa15vrSld-82" value="自定义配置" style="rounded=1;whiteSpace=wrap;html=1;strokeColor=#1A1A1A;fillColor=#FFFFFF;" vertex="1" parent="1">
          <mxGeometry x="-7" y="2254" width="77" height="47" as="geometry" />
        </mxCell>
        <mxCell id="nd6oboQFitSLa15vrSld-104" style="edgeStyle=none;rounded=0;orthogonalLoop=1;jettySize=auto;html=1;strokeColor=#1A1A1A;" edge="1" parent="1" source="nd6oboQFitSLa15vrSld-92" target="nd6oboQFitSLa15vrSld-103">
          <mxGeometry relative="1" as="geometry" />
        </mxCell>
        <mxCell id="nd6oboQFitSLa15vrSld-92" value="微服务A节点" style="rounded=0;whiteSpace=wrap;html=1;strokeColor=#1A1A1A;fillColor=#FFFFFF;" vertex="1" parent="1">
          <mxGeometry x="-438" y="2374" width="127" height="73" as="geometry" />
        </mxCell>
        <mxCell id="nd6oboQFitSLa15vrSld-105" style="edgeStyle=none;rounded=0;orthogonalLoop=1;jettySize=auto;html=1;entryX=1;entryY=0;entryDx=0;entryDy=0;strokeColor=#1A1A1A;" edge="1" parent="1" source="nd6oboQFitSLa15vrSld-96" target="nd6oboQFitSLa15vrSld-103">
          <mxGeometry relative="1" as="geometry" />
        </mxCell>
        <mxCell id="nd6oboQFitSLa15vrSld-96" value="微服务B节点" style="rounded=0;whiteSpace=wrap;html=1;strokeColor=#1A1A1A;fillColor=#FFFFFF;" vertex="1" parent="1">
          <mxGeometry x="-133" y="2374" width="127" height="73" as="geometry" />
        </mxCell>
        <mxCell id="nd6oboQFitSLa15vrSld-97" value="JDBC配置" style="rounded=1;whiteSpace=wrap;html=1;strokeColor=#1A1A1A;fillColor=#FFFFFF;" vertex="1" parent="1">
          <mxGeometry x="-515" y="2686" width="77" height="47" as="geometry" />
        </mxCell>
        <mxCell id="nd6oboQFitSLa15vrSld-98" value="环境配置" style="rounded=1;whiteSpace=wrap;html=1;strokeColor=#1A1A1A;fillColor=#FFFFFF;" vertex="1" parent="1">
          <mxGeometry x="-420" y="2686" width="77" height="47" as="geometry" />
        </mxCell>
        <mxCell id="nd6oboQFitSLa15vrSld-99" value="自定义配置" style="rounded=1;whiteSpace=wrap;html=1;strokeColor=#1A1A1A;fillColor=#FFFFFF;" vertex="1" parent="1">
          <mxGeometry x="-325" y="2686" width="77" height="47" as="geometry" />
        </mxCell>
        <mxCell id="nd6oboQFitSLa15vrSld-100" value="JDBC配置" style="rounded=1;whiteSpace=wrap;html=1;strokeColor=#1A1A1A;fillColor=#FFFFFF;" vertex="1" parent="1">
          <mxGeometry x="-210" y="2686" width="77" height="47" as="geometry" />
        </mxCell>
        <mxCell id="nd6oboQFitSLa15vrSld-101" value="环境配置" style="rounded=1;whiteSpace=wrap;html=1;strokeColor=#1A1A1A;fillColor=#FFFFFF;" vertex="1" parent="1">
          <mxGeometry x="-115" y="2686" width="77" height="47" as="geometry" />
        </mxCell>
        <mxCell id="nd6oboQFitSLa15vrSld-102" value="自定义配置" style="rounded=1;whiteSpace=wrap;html=1;strokeColor=#1A1A1A;fillColor=#FFFFFF;" vertex="1" parent="1">
          <mxGeometry x="-20" y="2686" width="77" height="47" as="geometry" />
        </mxCell>
        <mxCell id="nd6oboQFitSLa15vrSld-108" style="edgeStyle=none;rounded=0;orthogonalLoop=1;jettySize=auto;html=1;entryX=0.481;entryY=0.022;entryDx=0;entryDy=0;entryPerimeter=0;strokeColor=#1A1A1A;" edge="1" parent="1" source="nd6oboQFitSLa15vrSld-103" target="nd6oboQFitSLa15vrSld-106">
          <mxGeometry relative="1" as="geometry" />
        </mxCell>
        <mxCell id="nd6oboQFitSLa15vrSld-109" style="edgeStyle=none;rounded=0;orthogonalLoop=1;jettySize=auto;html=1;entryX=0.5;entryY=0;entryDx=0;entryDy=0;strokeColor=#1A1A1A;" edge="1" parent="1" source="nd6oboQFitSLa15vrSld-103" target="nd6oboQFitSLa15vrSld-107">
          <mxGeometry relative="1" as="geometry" />
        </mxCell>
        <mxCell id="nd6oboQFitSLa15vrSld-103" value="配置中心" style="rhombus;whiteSpace=wrap;html=1;strokeColor=#1A1A1A;fillColor=#FFFFFF;" vertex="1" parent="1">
          <mxGeometry x="-261" y="2516" width="80" height="80" as="geometry" />
        </mxCell>
      </root>
    </mxGraphModel>
  </diagram>
</mxfile>
